/* XPM */
static char *result[] = {
/* columns rows colors chars-per-pixel */
"50 50 201 2 ",
"   c #000203",
".  c #0C0A0A",
"X  c #07090B",
"o  c #150706",
"O  c #160C0A",
"+  c #151104",
"@  c #15100C",
"#  c #1A140A",
"$  c #1E1913",
"%  c #151718",
"&  c #201704",
"*  c #2A1E04",
"=  c #261D06",
"-  c #281E18",
";  c #2A2009",
":  c #2A251E",
">  c #3B2A1C",
",  c #372819",
"<  c #332404",
"1  c #171C28",
"2  c #1B212F",
"3  c #212222",
"4  c #2C2928",
"5  c #382E26",
"6  c #222939",
"7  c #383230",
"8  c #3F3C3C",
"9  c #2E3030",
"0  c #5A1712",
"q  c #751A14",
"w  c #7C1B15",
"e  c #781F1A",
"r  c #6E1913",
"t  c #7B2413",
"y  c #73251B",
"u  c #622018",
"i  c #4A3525",
"p  c #513A2F",
"a  c #6B3F2D",
"s  c #7A5506",
"d  c #594434",
"f  c #664531",
"g  c #6D4A35",
"h  c #694532",
"j  c #734B35",
"k  c #77513A",
"l  c #7D543C",
"z  c #6C3F52",
"x  c #434443",
"c  c #555352",
"v  c #7C5946",
"b  c #644C44",
"n  c #49567B",
"m  c #644C66",
"M  c #614F69",
"N  c #635677",
"B  c #871C18",
"V  c #921B17",
"C  c #961A18",
"Z  c #8B251E",
"A  c #822515",
"S  c #962117",
"D  c #992516",
"F  c #9E2B1A",
"G  c #992618",
"H  c #833111",
"J  c #8F3C18",
"K  c #963316",
"L  c #A4351A",
"P  c #872D24",
"I  c #883826",
"U  c #9B3529",
"Y  c #863631",
"T  c #912922",
"R  c #865D06",
"E  c #9B580B",
"W  c #954319",
"Q  c #A35D0B",
"!  c #936606",
"~  c #9D6C06",
"^  c #9C690A",
"/  c #8E6312",
"(  c #A26909",
")  c #AA6E0C",
"_  c #A7670B",
"`  c #A77306",
"'  c #AB7509",
"]  c #AE790A",
"[  c #A57308",
"{  c #B37E0D",
"}  c #AD7C16",
"|  c #81573D",
" . c #82583F",
".. c #8F553C",
"X. c #986F29",
"o. c #A47F30",
"O. c #C97C20",
"+. c #895E43",
"@. c #875F44",
"#. c #954F4A",
"$. c #936346",
"%. c #9B694A",
"&. c #95684A",
"*. c #906D57",
"=. c #A36346",
"-. c #A26E4D",
";. c #A6704F",
":. c #AB7451",
">. c #A37151",
",. c #B27A57",
"<. c #B7810F",
"1. c #B78315",
"2. c #B28425",
"3. c #B78827",
"4. c #BF902F",
"5. c #B88D35",
"6. c #BB9137",
"7. c #C5831F",
"8. c #C48E1A",
"9. c #CD941B",
"0. c #D1971C",
"q. c #D49A1E",
"w. c #C58120",
"e. c #CC8120",
"r. c #CB8A20",
"t. c #D59C20",
"y. c #D89D20",
"u. c #D59222",
"i. c #D18F21",
"p. c #DEA323",
"a. c #DEA833",
"s. c #E3AF3F",
"d. c #BE9746",
"f. c #BB845E",
"g. c #AC846B",
"h. c #A88672",
"j. c #C5865E",
"k. c #DCAD48",
"l. c #E4B44C",
"z. c #CB8A61",
"x. c #D18E64",
"c. c #CB9963",
"v. c #D69166",
"b. c #DA986C",
"n. c #D8956A",
"m. c #CD9E74",
"M. c #D29E76",
"N. c #DAA578",
"B. c #DFA97C",
"V. c #D5A377",
"C. c #D6A36E",
"Z. c #E4AD7B",
"A. c #4E5C84",
"S. c #615E86",
"D. c #5A6997",
"F. c #5A6B9B",
"G. c #5B6791",
"H. c #616189",
"J. c #5B6FA2",
"K. c #5A75AB",
"L. c #5A78B0",
"P. c #9E9B99",
"I. c #A29F9E",
"U. c #BDB49F",
"Y. c #969FB0",
"T. c #9DA5B1",
"R. c #A8A7A8",
"E. c #B9BDBC",
"W. c gray69",
"Q. c #A7ACB6",
"!. c #D7A887",
"~. c #DAB399",
"^. c #E5AF80",
"/. c #E7B182",
"(. c #EBB585",
"). c #EFC39C",
"_. c #DECBA2",
"`. c #CEC2B3",
"'. c #E9D8B4",
"]. c #E2D0AA",
"[. c #BFC0C0",
"{. c #C2C2C1",
"}. c #C5C8C0",
"|. c #C1C7D8",
" X c #CFD0D0",
".X c #D7D8D8",
"XX c #E9DCC1",
"oX c #EAD6C8",
"OX c #E0CBC3",
"+X c #EEE5D2",
"@X c #F3EAD7",
"#X c #F2E4C9",
"$X c #DFE0E0",
"%X c #E3E3E3",
"&X c #EAE8E6",
"*X c #F4EEE0",
"=X c #F7F2E7",
"-X c #F6F2F2",
";X c #FFFFFF",
":X c #FAF7F2",
">X c None",
/* pixels */
">X>X>X>X>X>X>X>X>X>X>X>X>X>X>X>X>X>X>X;X;X2.[ p.p.{ ` 0.p.p.p.#X;X;X;X;X;X;X;X>X>X>X>X>X>X>X>X>X>X>X",
">X>X>X>X>X>X>X>X>X>X>X>X>X>X>X>X>X>X>X*X@X3.] p.p.<.' q.p.q.p.'.*X*X*X;X;X;X;X>X>X>X>X>X>X>X>X>X>X>X",
">X>X>X>X>X>X>X>X>X>X>X>X>X>X>X>X>X;X*Xd.5.u.q.p.p.q.q.p.p.<.{ 3.4.k.l.@X;X;X;X;X;X>X>X>X>X>X>X>X>X>X",
">X>X>X>X>X>X>X>X>X>X>X>X>X>X>X>X>X&XoX2.` y.p.t.t.p.p.p.p.{ ] { <.y.p.'.@X;X;X;X;X>X>X>X>X>X>X>X>X>X",
">X>X>X>X>X>X>X>X>X>X>X>X>X;X;X;X-X#.I ( ` p.p.{ { q.p.p.p.q.q.y.q.p.p.3.2.@X;X;X;X>X>X>X>X>X>X>X>X>X",
">X>X>X>X>X>X>X>X>X>X>X>X>X;X;X;X-X#.t ^ ` q.p.` ' q.p.p.p.p.p.p.p.p.p.<.` +X;X;X;X>X>X>X>X>X>X>X>X>X",
">X>X>X>X>X>X>X;X*X5.] y.p.3.2.Y Y e w S G ' { y.q.<.{ 0.p.p.p.p.p.<.] 9.t.3.2.#X;X>X>X>X>X>X>X>X>X>X",
">X>X>X>X>X>X>X;X*X5.] q.p.] ` q q q w V C ( ` y.y.{ ` q.p.p.p.p.y.{ ` 0.p.{ ` XX;X>X>X>X>X>X>X>X>X>X",
">X>X>X>X>X>X>X` ] 0.p.p.p.p.p.` ` G C C C C C p.p.p.p.p.p.p.p.p.p.p.p.p.p.<.` XX;X>X>X>X>X>X>X>X>X>X",
">X>X>X>X>X>X>X} 1.t.y.p.p.p.p.] ` K C C C C C y.q.p.p.p.p.p.p.p.p.p.p.p.p.<.` '.:X>X>X>X>X>X>X>X>X>X",
">X>X>X>X>X>X>X+X'.5.1.y.p.p.p.q.0.) Q A w w w L L u.p.p.p.p.p.p.p.p.p.p.p.q.q.4.6.].;X>X>X>X>X>X>X>X",
">X>X>X>X>X>X>X;X&X2.~ 9.q.p.q.p.p.{ ( H t q q C F O.u.q.y.p.p.p.p.p.p.y.y.p.p.<.} _.;X>X>X>X>X>X>X>X",
">X>X>X>X>X>X>X>X>X# = ~ ' ] ] p.p.y.0.) ( t q C C F F _ { q.p.p.p.p.p.<.] t.p.{ } _.;X>X>X>X>X>X>X>X",
">X>X>X>X>X>X>X>X>X  + ! ` ` ` p.p.p.y.{ ` t q C C C C Q ` y.p.p.p.p.p.<.` q.p.<.} _.;X>X>X>X>X>X>X>X",
">X>X>X>X>X>X>X>X>X$X}.4 + ! ` ] { q.y.y.y.) ( w B V C D F F F F F ) ] 9.y.<.] ].*X:X;X>X>X>X>X>X>X>X",
">X>X>X>X>X>X>X>X>X;X%X3   ! ` ` ' y.p.p.y.' ` q q V C C C C C C C _ ` 0.p.{ ` XX;X;X;X>X>X>X>X>X>X>X",
">X>X>X>X>X>X>X>X>X;X$X3   = * * < ~ { <.<.9.9.7.7.7.O.K w C C C C G K J J H H OX;X;X;X>X>X>X>X>X>X>X",
">X>X>X>X>X>X>X>X>X;X$X9 @     . O / ' ~ ~ q.y.y.p.p.p.W t S S C V C C B q q t `.:X;X;X>X>X>X>X>X>X>X",
">X>X>X>X>X>X>X>X>X;X:X.X X1   +.&.c.c., # [ { { { q.p.0.r._ _ A w V C B q E E 2.d.'.;X>X>X>X>X>X>X>X",
">X>X>X>X>X>X>X>X>X;X;X;X;X3   :.,.B.m.#   ! ` ` ' q.p.p.p.] ` H q V C w q ( ` ` } _.;X>X>X>X>X>X>X>X",
">X>X>X>X>X>X>X>X>X;X&Xc x W.{.N.N./.m.$   `.XX[ ` { <.<.<.9.0.7.w.e.e.w.w.0.9.{ } _.;X>X>X>X>X>X>X>X",
">X>X>X>X>X>X>X>X>X;X$X3   .X;X(.(.(.m.$   +X;X[ ` ` ` ` ' y.p.p.p.p.p.p.p.p.p.{ } _.;X>X>X>X>X>X>X>X",
">X>X>X>X>X>X>X>X>X>X>X>X>X;X;Xb.b././.V.m.v v Z.C.> + R ` ] ] ] ] q.p.p.p.1.] 9.t.a.s.>X>X>X>X>X>X>X",
">X>X>X>X>X>X>X>X>X>X>X>X>X;X;Xv.n.Z.(.(.(.v f (.B.:   s ` ` ` ` ' q.p.p.p.{ [ 0.p.p.p.>X>X>X>X>X>X>X",
">X>X>X>X>X>X>X>X>X>X>X>X>X>X>X .+.N.(.(.(.m.m.(.Z.&.v , ; * * R ` { { q.p.q.0.1.{ <.{ >X>X>X>X>X>X>X",
">X>X>X>X>X>X>X>X>X>X>X>X>X>X>Xf j m././.(././.(./.f.,., .     s ~ ~ ~ 8.0.t.t.1.} } } >X>X>X>X>X>X>X",
">X>X>X>X>X>X>X>X>X>X>X>X>X>X>X>X>X,.f.v.b.b.b.(.(.Z.B.>.+.O   + & & & = = ; ; U.+X+X+X>X>X>X>X>X>X>X",
">X>X>X>X>X>X>X>X>X>X>X>X>X>X>X>X>X:.,.x.v.v.v.(.(.(.(.f.:.#                   [.;X;X;X>X>X>X>X>X>X>X",
">X>X>X>X>X>X>X>X>X>X>X>X>X>X>X>X>X>X>X . . . .f.f.f.f.+.k 0 0 O           >X>X>X>X>X>X>X>X>X>X>X>X>X",
">X>X>X>X>X>X>X>X>X>X>X>X>X>X>X>X>X>X>Xf f f f :.:.:.:.k f q q o           >X>X>X>X>X>X>X>X>X>X>X>X>X",
">X>X>X>X>X>X>X>X>X>X>X>X>X>X>X>X>X>X>Xf f &.%.B.V.@.j $.=.h h u 0 o   >X>X>X>X>X>X>X>X>X>X>X>X>X>X>X",
">X>X>X>X>X>X>X>X>X>X>X>X>X>X>X>X>X>X>Xf f >.:.(.Z. .f %.:.g f y r o   >X>X>X>X>X>X>X>X>X>X>X>X>X>X>X",
">X>X>X>X>X>X>X>X>X>X>X>X>X>X>X>X>Xf g &.%.j.z.b.b.;.%.W U Z Z q r i p >X>X>X>X>X>X>X>X>X>X>X>X>X>X>X",
">X>X>X>X>X>X>X>X>X>X>X>X>X>X>X>X>Xf g %.;.x.v.v.v.:.:.U C C C B w a g >X>X>X>X>X>X>X>X>X>X>X>X>X>X>X",
">X>X>X>X>X>X>X>X>X>X>X>X>X>X>X>X>Xf h l | z.v.v.z.+.@.T C C C V V ..$.j f >X>X>X>X>X>X>X>X>X>X>X>X>X",
">X>X>X>X>X>X>X>X>X>X>X>X>X>X>X>X>Xf f f f j.v.v.z.v a Z C C C C C =.:.k f >X>X>X>X>X>X>X>X>X>X>X>X>X",
">X>X>X>X>X>X>X>X>X>X>X>X>X>X>X>X>X>X>Xf f l  . .+.P Z w w B w w A =.:.k f >X>X>X>X>X>X>X>X>X>X>X>X>X",
">X>X>X>X>X>X>X>X>X>X>X>X>X>X>X>X>X>X>Xf f f f f a Z C w q q q r e %.:.k f >X>X>X>X>X>X>X>X>X>X>X>X>X",
">X>X>X>X>X>X>X>X>X>X>X>X>X>X>X>X>X;X+XX./ I P y y e B z m m m m m v +.f f >X>X>X>X>X>X>X>X>X>X>X>X>X",
">X>X>X>X>X>X>X>X>X>X>X>X>X>X>X>X>X;X*X2.` D C q q q q N D.D.D.D.G.b a a f >X>X>X>X>X>X>X>X>X>X>X>X>X",
">X>X>X>X>X>X>X>X>X>X>X>X>X>X>X;X;X;X%Xi ; M N N N S.H.J.K.F.F.Y.Q.*.%.> # >X>X>X>X>X>X>X>X>X>X>X>X>X",
">X>X>X>X>X>X>X>X>X>X>X>X>X>X>X;X;X;X.X3   A.D.D.F.K.L.L.L.F.F.Q.}.,.:.-   >X>X>X>X>X>X>X>X>X>X>X>X>X",
">X>X>X>X>X>X>X>X>X>X>X>X>X>X>X;X;X;X$X8 3 6 6 D.F.F.J.K.L.Y.T..X&X!.M.>   E.;X>X>X>X>X>X>X>X>X>X>X>X",
">X>X>X>X>X>X>X>X>X>X>X>X>X>X>X;X;X;X&Xc 7 .   D.D.D.D.K.L.E.}.-X;X).(.5    X;X>X>X>X>X>X>X>X>X>X>X>X",
">X>X>X>X>X>X>X>X>X>X>X>X>X>X>Xx x h.g.- @ 3 4 1 2 A.D.F.F.E.}.~.!.d 5 P.{.-X;X;X;X>X>X>X>X>X>X>X>X>X",
">X>X>X>X>X>X>X>X>X>X>X>X>X>X>X  . +.&.O   4 7   X n D.D.D.E.}.M.z.-   `.;X;X;X;X;X>X>X>X>X>X>X>X>X>X",
">X>X>X>X>X>X>X>X>X>X>X>X>X>X>X>X>X5 i f g p p 3 4 Q.[.|.|.&X&XoXoXR.I.&X;X;X;X;X;X>X>X>X>X>X>X>X>X>X",
">X>X>X>X>X>X>X>X>X>X>X>X>X>X>X>X>X  @ &.:.j f 7 x .X;X;X;X;X;X;X;X;X;X;X;X;X;X;X;X>X>X>X>X>X>X>X>X>X",
">X>X>X>X>X>X>X>X>X>X>X>X>X>X>X>X>X>X@ i p > , P.I.&X;X;X;X;X;X;X;X;X;X;X;X;X;X;X>X>X>X>X>X>X>X>X>X>X",
">X>X>X>X>X>X>X>X>X>X>X>X>X>X>X>X>X>X>X        ;X;X;X;X;X;X;X;X>X>X>X>X>X>X;X;X>X>X>X>X>X>X>X>X>X>X>X"
};
