/* XPM */
static char *result[] = {
/* columns rows colors chars-per-pixel */
"50 50 176 2 ",
"   c #000203",
".  c #0A0404",
"X  c #0B0903",
"o  c #0E0D0B",
"O  c #1E0808",
"+  c #140B09",
"@  c #1A130F",
"#  c #14110E",
"$  c #3A0D0C",
"%  c #201712",
"&  c #351813",
"*  c #36261B",
"=  c #2D2F2F",
"-  c #303232",
";  c #4B120E",
":  c #50110E",
">  c #4A1813",
",  c #5D1511",
"<  c #641612",
"1  c #6B1813",
"2  c #751A14",
"3  c #7D1A15",
"4  c #791614",
"5  c #7F2B12",
"6  c #402C20",
"7  c #4A3323",
"8  c #523929",
"9  c #783432",
"0  c #745013",
"q  c #7E5706",
"w  c #5D402E",
"e  c #58473C",
"r  c #664531",
"t  c #6D4A34",
"y  c #694733",
"u  c #724D37",
"i  c #775139",
"p  c #7D563D",
"a  c #6D3E4F",
"s  c #783C4C",
"d  c #7E3E51",
"f  c #7F5A41",
"g  c #684962",
"h  c #65516E",
"j  c #625A7D",
"k  c #851A16",
"l  c #8C1A17",
"z  c #901A17",
"x  c #961A18",
"c  c #883C0F",
"v  c #872C14",
"b  c #932916",
"n  c #8F3C18",
"m  c #853114",
"M  c #973814",
"N  c #A53C1B",
"B  c #893624",
"V  c #842A22",
"C  c #8E470D",
"Z  c #9F470F",
"A  c #885E06",
"S  c #855E0A",
"D  c #98580B",
"F  c #9D4E1A",
"G  c #9E5713",
"H  c #A64716",
"J  c #B14E1D",
"K  c #A65F18",
"L  c #BA5F1E",
"P  c #B45C1A",
"I  c #91630E",
"U  c #8F6216",
"Y  c #976811",
"T  c #9D6F15",
"R  c #A3680B",
"E  c #A77306",
"W  c #AB7608",
"Q  c #A9740C",
"!  c #B47E0D",
"~  c #A76810",
"^  c #BD6F1B",
"/  c #A67B1B",
"(  c #AD7C16",
")  c #B77B1D",
"_  c #8A4634",
"`  c #80573D",
"'  c #935039",
"]  c #A2543F",
"[  c #A47935",
"{  c #803A4C",
"}  c #803E51",
"|  c #835C42",
" . c #8B5E42",
".. c #9A5847",
"X. c #8C6246",
"o. c #96684A",
"O. c #976E50",
"+. c #986F51",
"@. c #836858",
"#. c #A06C4C",
"$. c #A6704F",
"%. c #AA7351",
"&. c #A17353",
"*. c #B37956",
"=. c #B77E59",
"-. c #BB7E59",
";. c #B17354",
":. c #BC8511",
">. c #BF8813",
",. c #B7851B",
"<. c #BA913B",
"1. c #C38B15",
"2. c #C48C1A",
"3. c #CB9219",
"4. c #D1971C",
"5. c #D49A1E",
"6. c #D79D20",
"7. c #D89D21",
"8. c #C89226",
"9. c #DEA323",
"0. c #B7805B",
"q. c #BD9645",
"w. c #B98B65",
"e. c #BF946D",
"r. c #C4855D",
"t. c #C38C65",
"y. c #CD8C62",
"u. c #D69166",
"i. c #D1946A",
"p. c #DC9A6E",
"a. c #D39D72",
"s. c #D38F65",
"d. c #C9AA67",
"f. c #D0B06E",
"g. c #D5A176",
"h. c #DFA97B",
"j. c #DDA478",
"k. c #E6AC7E",
"l. c #E1A376",
"z. c #5A6997",
"x. c #5C6B9A",
"c. c #616189",
"v. c #5A6FA1",
"b. c #5A73A7",
"n. c #5A75AB",
"m. c #5A78B0",
"M. c #7986A7",
"N. c #758CB4",
"B. c #7E93BB",
"V. c #6E84AD",
"C. c #B29F91",
"Z. c #B3A298",
"A. c #909AB4",
"S. c #ABACAF",
"D. c #D3B983",
"F. c #E3AE80",
"G. c #EBB585",
"H. c #E7B182",
"J. c #C2B9AD",
"K. c #CEC8BD",
"L. c #839AC4",
"P. c #8197C1",
"I. c #C5C8C0",
"U. c #C9CCC4",
"Y. c #D9D9D3",
"T. c #D6CEC3",
"R. c #E4DAD0",
"E. c #EEE3D5",
"W. c #F0E7D5",
"Q. c #EDEDEB",
"!. c #E1E3E1",
"~. c #F8ECE4",
"^. c #FBF1E8",
"/. c white",
"(. c #F5F5F3",
"). c None",
/* pixels */
").).).).).).).).).).).).).).).).).).).E ! 7.9.W W 5.9.9.9.>.E E ).).).).).).).).).).).).).).).).).).",
").).).).).).).).).).).).).).).).).).).W ! 6.9.W W 5.9.9.9.>.W E ).).).).).).).).).).).).).).).).).).",
").).).).).).).).).).).).).).).).).E ! 6.6.9.9.4.6.9.9.9.9.5.5.1.E E ).).).).).).).).).).).).).).).).",
").).).).).).).).).).).).).).).).).E ! 9.9.9.9.9.9.9.9.9.9.9.9.1.E E ).).).).).).).).).).).).).).).).",
").).).).).).).).).).).).).).).E :.3.3.! >.9.9.9.9.9.9.9.9.9.9.6.4.1.E E ).).).).).).).).).).).).).).",
").).).).).).).).).).).).).).E E >.9.4.E ! 6.9.9.9.9.9.9.9.9.9.9.9.3.E E ).).).).).).).).).).).).).).",
").).).).).).).).).).).).).).6.6.6.9.9.5.3.! ! 9.9.9.9.9.9.9.9.9.9.3.E <././.).).).).).).).).).).).).",
").).).).).).).).).).).).).).9.9.9.9.9.9.6.W E 9.9.9.9.9.9.9.9.9.9.3.E q././.).).).).).).).).).).).).",
").).).).).).).).).).9.9.F 2 m n G :.>.9.9.4.4.9.9.9.9.9.9.9.9.3.! G m m ....Q E /./.).).).).).).).).",
").).).).).).).).).).9.9.F 2 2 2 c E ! 9.9.9.9.9.9.9.9.9.9.9.9.2.E D 2 2 2 5 R E /./.).).).).).).).).",
").).).).).).).).E E 5.9.F 2 k l v c G 9.9.9.9.9.9.9.9.2.:.:.:.R c v l k 2 m 2.3.d.d.W./.).).).).).).",
").).).).).).).).E E 4.9.F 2 k x l 2 n 9.9.9.9.9.9.9.9.:.E E E C 4 k x z 2 m 7.9.E ( E./.).).).).).).",
").).).).).).E W 1.1.6.9.) P M x l k b L L L L L L P ^ H Z Z Z b k l x b C G 6.9.1.2.f.D.).).).).).).",
").).).).).).E W 5.9.9.9.9.9.L x x x x x x x x x x x x x x x x x x x x M E ! 9.9.9.9.! E ).).).).).).",
").).).).).).E W 5.9.9.9.4.3.^ J H H b l l x x l l l l k l l l b M H J P :.1.6.9.9.9.1.:.).).).).).).",
").).).).).).E W 5.9.9.9.:.E 2.9.3.E D 2 4 x x 2 2 2 2 2 2 2 2 C E :.9.9.9.9.9.9.9.9.9.9.).).).).).).",
").).).).).).E W 5.9.9.9.>.:.3.9.3.! Q n M H N n n n n n n n n K :.1.9.9.9.9.4.4.9.9.9.9.).).).).).).",
").).).).).).).).9.9.9.9.9.9.9.9.9.9.9.9.9.9.9.9.9.9.9.9.9.9.9.9.9.9.9.9.9.4.E E 9.9.).).).).).).).).",
").).).).).).).).9.9.9.9.5.5.4.5.7.9.9.9.9.9.9.9.9.9.9.9.9.9.9.9.9.7.5.5.5.3.! ! ,.,.).).).).).).).).",
").).).).).).).).).).9.9.>.E E E 1.9.9.9.9.9.9.9.9.9.9.9.9.9.9.9.9.3.E E E ! 9.9.    ).).).).).).).).",
").).).).).).).).).)./ / ~ Y Q ! :.4.3.4.4.4.4.4.4.4.4.4.5.4.4.4.4.,.Y I q S / /     ).).).).).).).).",
").).).).).).).).).).    6 r [ 9.3.E E E E E E E E E E E E E E E W U y 7         ).).).).).).).).).).",
").).).).).).).).).).    e @.[ 8.) A A A A A A A A A A A A A A A A 0 8 *   o - - ).).).).).).).).).).",
").).).).).).).).).).).).Q.(.Z.t 7 X X X X X X X X X X X X X X X X . o     = !.Q.).).).).).).).).).).",
").).).).).).).).).).).)././.Z.r 6                                         - Q./.).).).).).).).).).).",
").).).).).).).).).).).).r r r r ` %.o.2 , .   2 1 O       ; 4 _ %.o.r r r r ).).).).).).).).).).).).",
").).).).).).).).).).).).y r y t ` #.' 2 < . X 2 1 O . . X : 2 _ #. .t t r r ).).).).).).).).).).).).",
").).).).).).).).).).%.%.p r o.0.` % & 2 2 < < z z 3 4 1 , 1 2 > % 8 t.%.r u $.%.).).).).).).).).).).",
").).).).).).).).).).%.%.` r #.u. .  O 2 4 2 2 x x x x 3 2 2 2 $   8 u.-.r u $.%.).).).).).).).).).).",
").).).).).).).).%.%.%.%.*.-.i.F.;., 1 l l z l x x x x z l z l 2 : ' F.p.-.=.%.%.%.%.).).).).).).).).",
").).).).).).).).%.%.%.%.y.s.l.G.-.2 3 x x x x x x x x x x x x l 2 ] G.k.u.y.%.%.%.%.).).).).).).).).",
").).).).).).%.*.g.l.i.y.-.*.+.| B z z x x x x x x x x x x x x z z B | X.*.-.y.y.h.j.=.%.).).).).).).",
").).).).).).%.*.h.G.p.i.0.%.` y 9 x x x x x x x x x x x x x x x x V r i %.*.s.u.G.H.0.%.).).).).).).",
").).).).).).i p g.G.k.k.&.i 7 @ > x x x x x x x x x x x x x x x x 1 # * i X.j.k.G.F.X.i ).).).).).).",
").).).).).).y t g.G.G.G.+.r *   $ x x x x x x x x x x x x x x x x ,   @ r f F.G.G.F.f r ).).).).).).",
").).).).).).).).O.O.O.O.X.).).).: k k x x x x x x x x x x x x l k 1 ).).).).O.+.+.+.).).).).).).).).",
").).).).).).).).r r r r ).).).).).2 3 x x x x x x x x x x x x k 2 2 ).).).).r r r r ).).).).).).).).",
").).).).).).).).).r r r ).).).z.j g a l l x x k k x x x x z k 9 g h x.).).).).r r ).).).).).).).).).",
").).).).).).).).).).).).).).z.z.v.m.c.2 3 z x 2 2 z x x x k 2 g m.v.z.z.).).).).).).).).).).).).).).",
").).).).).).).).).).).).).).z.z.v.m.x.a a d d a a s { { { s a j m.n.z.z.).).).).).).).).).).).).).).",
").).).).).).).).).).).).).).z.z.x.m.m.m.m.m.n.m.m.x.x.n.m.m.m.m.m.b.z.z.).).).).).).).).).).).).).).",
").).).).).).).).).).).).).).A.M.N.L.L.L.L.N.N.n.b.x.x.M.N.B.L.L.L.N.M.M.).).).).).).).).).).).).).).",
").).).).).).).).).).).)././.E.I.Y./././.(.U.I.x.z.z.z.S.I.Q./././.Q.I.Y././.).).).).).).).).).).).).",
").).).).).).).).).).).)././.R.S.T.^.^.~.E.J.J.x.z.z.z.S.S.R.~.~.^.R.J.K././.).).).).).).).).).).).).",
").).).).).).).).).).).).).).%.%.t.G.k.u.y.*.%.).).).).%.%.r.u.l.G.a.%.%.).).).).).).).).).).).).).).",
").).).).).).).).).).).).).).%.%.t.G.k.p.i.%.%.).).).).%.%.t.p.k.G.a.%.%.).).).).).).).).).).).).).).",
").).).).).).).).).).).).).).%.%.t.G.G.G.h.%.%.).).).).%.%.g.G.G.G.a.%.%.).).).).).).).).).).).).).).",
").).).).).).).).).).).).).).).%.0.e.e.e.e.%.%.).).).).%.%.w.e.t.e.w.%.%.).).).).).).).).).).).).).).",
").).).).).).).).).).).).).).).).).o o o # ).).).).).).).).# o o o # ).).).).).).).).).).).).).).).).",
").).).).).).).).).).).).).).).).).        ).).).).).).).).          ).).).).).).).).).).).).).).).)."
};
