/* XPM */
static char *result[] = {
/* columns rows colors chars-per-pixel */
"50 50 201 2 ",
"   c #000203",
".  c #0B0908",
"X  c #150706",
"o  c #160C0A",
"O  c #151104",
"+  c #1B140E",
"@  c #161108",
"#  c #1E1913",
"$  c #171716",
"%  c #201704",
"&  c #2A1E04",
"*  c #261D06",
"=  c #281D15",
"-  c #2A2009",
";  c #2D271E",
":  c #3A2A18",
">  c #332404",
",  c #202223",
"<  c #3A3331",
"1  c #3D393D",
"2  c #2E3030",
"3  c #5A1712",
"4  c #751A14",
"5  c #7C1A15",
"6  c #781F1A",
"7  c #6E1913",
"8  c #7B2413",
"9  c #75231B",
"0  c #622018",
"q  c #4F3C30",
"w  c #73372A",
"e  c #7A5506",
"r  c #5A4031",
"t  c #51403B",
"y  c #63412E",
"u  c #664531",
"i  c #6D4B35",
"p  c #66483B",
"a  c #744934",
"s  c #775139",
"d  c #78523B",
"f  c #6C3F52",
"g  c #414146",
"h  c #5A5957",
"j  c #454757",
"k  c #6C5644",
"l  c #7A5C45",
"z  c #655A55",
"x  c #484C60",
"c  c #615576",
"v  c #644C66",
"b  c #5D607E",
"n  c #821A16",
"m  c #8A1A17",
"M  c #921B17",
"N  c #961A18",
"B  c #872616",
"V  c #962117",
"C  c #992516",
"Z  c #9E2B1A",
"A  c #9A2816",
"S  c #823111",
"D  c #8F3C18",
"F  c #963316",
"G  c #A4351A",
"H  c #893929",
"J  c #9D382B",
"K  c #863631",
"L  c #902A22",
"P  c #A93F32",
"I  c #865D06",
"U  c #98550C",
"Y  c #954319",
"T  c #A35D0B",
"R  c #936606",
"E  c #9D6C06",
"W  c #9C690A",
"Q  c #8D630D",
"!  c #A26909",
"~  c #AA6E0C",
"^  c #A7670B",
"/  c #A77306",
"(  c #AB7509",
")  c #AE790A",
"_  c #A57308",
"`  c #B37E0D",
"'  c #AD7C16",
"]  c #81583E",
"[  c #804733",
"{  c #AB4133",
"}  c #A47F30",
"|  c #C97C20",
" . c #895E43",
".. c #875F44",
"X. c #954F4A",
"o. c #A45940",
"O. c #976749",
"+. c #826654",
"@. c #9D7B5E",
"#. c #A6674A",
"$. c #AA7351",
"%. c #A57656",
"&. c #BA7E59",
"*. c #B37A58",
"=. c #8D7465",
"-. c #907565",
";. c #B7810F",
":. c #B78315",
">. c #B28425",
",. c #B78827",
"<. c #B88D35",
"1. c #BB9137",
"2. c #BF902F",
"3. c #C5831F",
"4. c #C48E1A",
"5. c #CD941B",
"6. c #D1971C",
"7. c #D49A1E",
"8. c #C58120",
"9. c #CC8120",
"0. c #CB8A20",
"q. c #D59C20",
"w. c #D89D20",
"e. c #D59222",
"r. c #D18F21",
"t. c #DEA323",
"y. c #DEA833",
"u. c #E3AF3F",
"i. c #BE9746",
"p. c #BB835E",
"a. c #B6937D",
"s. c #A88465",
"d. c #C2845E",
"f. c #DCAD48",
"g. c #E4B44C",
"h. c #C68B65",
"j. c #D28E65",
"k. c #CB9963",
"l. c #D69166",
"z. c #D99569",
"x. c #DA986C",
"c. c #D6956A",
"v. c #CD9D74",
"b. c #D39E73",
"n. c #DBA578",
"m. c #DFA97C",
"M. c #D5A377",
"N. c #D6A36E",
"B. c #E5AC7D",
"V. c #E3AD76",
"C. c #5A6997",
"Z. c #5A6C9C",
"A. c #5D6383",
"S. c #6E7B9F",
"D. c #5A73A7",
"F. c #5A78B0",
"G. c #5A6FA1",
"H. c #6B7DA7",
"J. c #6E87B3",
"K. c #969594",
"L. c #BA9E96",
"P. c #B59781",
"I. c #BEB396",
"U. c #9BA3B1",
"Y. c #A4A3A3",
"T. c #B2ADAA",
"R. c #CCA58A",
"E. c #E5AF80",
"W. c #E7B182",
"Q. c #EBB585",
"!. c #C3B8B1",
"~. c #BFC2BE",
"^. c #DECBA2",
"/. c #D3C1B1",
"(. c #E9D8B4",
"). c #E2D0AA",
"_. c #BFBDC7",
"`. c #BFC0C2",
"'. c #C2C2C1",
"]. c #C5C8C0",
"[. c #CECCCC",
"{. c #C1C7D8",
"}. c #D8D9D7",
"|. c #D2CECB",
" X c #E1CDC7",
".X c #E9DCC1",
"XX c #E5D5C6",
"oX c #EFE5D1",
"OX c #EFE5DF",
"+X c #F3EAD7",
"@X c #F2E4C9",
"#X c #DFE0E0",
"$X c #E3E3E2",
"%X c #EAE7E6",
"&X c #F4EEE1",
"*X c #FBF3E4",
"=X c #FAF6F2",
"-X c #FFFFFF",
";X c #F8F5F4",
":X c #EBEDF2",
">X c None",
/* pixels */
">X>X>X>X>X>X>X>X>X>X>X>X>X>X>X>X>X>X>X-X-X>.( t.t.` / 6.t.t.t.@X-X-X-X-X-X-X-X>X>X>X>X>X>X>X>X>X>X>X",
">X>X>X>X>X>X>X>X>X>X>X>X>X>X>X>X>X>X>X&XOX,.) t.t.` ) 6.t.7.t.(.&X*X*X=X-X-X-X>X>X>X>X>X>X>X>X>X>X>X",
">X>X>X>X>X>X>X>X>X>X>X>X>X>X>X>X>X-X&Xi.<.q.7.t.t.7.7.t.t.;.` ,.2.f.g.+X-X-X-X-X-X>X>X>X>X>X>X>X>X>X",
">X>X>X>X>X>X>X>X>X>X>X>X>X>X>X>X>X%XXX>./ 7.t.7.7.t.t.t.t.` ) ` ;.w.t.(.&X-X-X-X-X>X>X>X>X>X>X>X>X>X",
">X>X>X>X>X>X>X>X>X>X>X>X>X-X-X-X;XX.H ! ( q.t.` ` 7.t.t.t.7.w.w.7.t.t.,.>.oX-X-X-X>X>X>X>X>X>X>X>X>X",
">X>X>X>X>X>X>X>X>X>X>X>X>X-X-X-X;XX.8 W / t.t./ ) 7.t.t.t.t.t.t.t.t.t.;.( oX-X-X-X>X>X>X>X>X>X>X>X>X",
">X>X>X>X>X>X>X-X&X1.` 7.t.,.>.K K 4 5 V C ~ ` 7.7.;.) 6.t.t.t.t.t.;.) 5.q.,.>.oX-X>X>X>X>X>X>X>X>X>X",
">X>X>X>X>X>X>X-X+X<.) q.t.) / 4 4 4 5 M M ! / t.t.) ( 7.t.t.t.t.t.) / 6.t.` _ .X-X>X>X>X>X>X>X>X>X>X",
">X>X>X>X>X>X>X/ ) q.t.t.t.t.t./ ~ A N N N N N w.t.t.t.t.t.t.t.t.t.t.t.t.t.;.( .X-X>X>X>X>X>X>X>X>X>X",
">X>X>X>X>X>X>X' :.6.w.t.t.t.t.) / F N N N N N w.7.t.t.t.t.t.t.t.t.t.t.t.t.;.) (.=X>X>X>X>X>X>X>X>X>X",
">X>X>X>X>X>X>XoX(.<.:.w.t.t.t.7.6.~ T 8 5 5 5 G G r.t.t.t.t.t.t.t.t.t.t.t.7.7.0.1.).-X>X>X>X>X>X>X>X",
">X>X>X>X>X>X>X-X%X>.W 5.q.7.t.t.t.;.~ S 8 4 4 N Z | e.7.w.t.t.t.t.t.t.7.7.t.t.;.' ^.-X>X>X>X>X>X>X>X",
">X>X>X>X>X>X>X>X>X+ * W ) ) ) t.t.w.6.~ ! 8 4 N N Z Z ^ ` 7.t.t.t.t.t.:.) 7.t.;.' ^.-X>X>X>X>X>X>X>X",
">X>X>X>X>X>X>X>X>X  O R / / / t.t.t.w.) / 8 4 N N N N T / 7.t.t.t.t.t.;./ 7.t.` ' ^.-X>X>X>X>X>X>X>X",
">X>X>X>X>X>X>X>X>X#X].; O R / ) ` 7.t.w.w.~ ! 5 n N N C C Z G Z Z ~ ) 5.w.;.) ).&X=X-X>X>X>X>X>X>X>X",
">X>X>X>X>X>X>X>X>X-X$X,   R / / ( 7.t.t.t.( / 4 4 N N N N N N N M ! / 6.t.` ( .X-X-X-X>X>X>X>X>X>X>X",
">X>X>X>X>X>X>X>X>X-X}.,   * & - > W ` ;.;.5.5.3.3.3.9.F 5 N N N N A F F D S S (.-X-X-X>X>X>X>X>X>X>X",
">X>X>X>X>X>X>X>X>X-X$X2 $     . @ Q ( E E 7.w.t.7.t.t.Y 8 N V N N N N n 4 8 B !.;X;X-X>X>X>X>X>X>X>X",
">X>X>X>X>X>X>X>X>X-X-X}.[.$    . .k.k.: + _ ) ;.;.7.t.6.0.^ ^ S 5 M N 5 4 U W } i.(.-X>X>X>X>X>X>X>X",
">X>X>X>X>X>X>X>X>X-X-X-X-X,   $.*.m.v.#   R ( _ ( 7.t.t.t.( _ S 4 M N n 4 W / / ' ^.-X>X>X>X>X>X>X>X",
">X>X>X>X>X>X>X>X>X-X%Xh g T.'.n.m.W.v.#   /.(._ / ` ` ` ` 6.6.3.3.| 9.8.3.5.6.` ' ^.-X>X>X>X>X>X>X>X",
">X>X>X>X>X>X>X>X>X-X#X,   }.-XQ.Q.Q.v.#   #X-X( / / / / ( w.t.t.t.t.t.t.t.t.t.` ' ^.-X>X>X>X>X>X>X>X",
">X>X>X>X>X>X>X>X>X>X>X>X>X-X-Xx.x.B.Q.M.v.+.l V.N.: @ I / ( ` ( ` 7.t.t.t.;.) 5.q.y.u.>X>X>X>X>X>X>X",
">X>X>X>X>X>X>X>X>X>X>X>X>X-X-Xl.z.B.Q.Q.Q.d u Q.m.;   I / / / / ( 7.t.t.t.` ( 6.t.t.t.>X>X>X>X>X>X>X",
">X>X>X>X>X>X>X>X>X>X>X>X>X>X>X] ..M.Q.Q.Q.M.v.Q.E.O.] : & > & I / ` ` 7.t.6.5.:.` ;.` >X>X>X>X>X>X>X",
">X>X>X>X>X>X>X>X>X>X>X>X>X>X>Xu i b.W.Q.Q.B.Q.Q.W.p.$.; .     e E E E 4.6.q.q.>.' ' ' >X>X>X>X>X>X>X",
">X>X>X>X>X>X>X>X>X>X>X>X>X>X>X>X>X&.p.z.x.x.x.Q.W.E.m.%. .o   O % % % * - - - I.oXoXoX>X>X>X>X>X>X>X",
">X>X>X>X>X>X>X>X>X>X>X>X>X>X>X>X>X$.$.j.l.l.z.Q.Q.Q.W.p.$.@                   `.-X-X-X>X>X>X>X>X>X>X",
">X>X>X>X>X>X>X>X>X>X>X>X>X>X>X>X>X>X>X*.p.] ] p.p.p.p. .s 3 3 X           >X>X>X>X>X>X>X>X>X>X>X>X>X",
">X>X>X>X>X>X>X>X>X>X>X>X>X>X>X>X>X>X>X$.$.i u $.$.$.$.s u 9 5 X           >X>X>X>X>X>X>X>X>X>X>X>X>X",
">X>X>X>X>X>X>X>X>X>X>X>X>X>X>X>X>X>X>X>X>X>X>Xm.M...s O.O.u w 0 3 X   >X>X>X>X>X>X>X>X>X>X>X>X>X>X>X",
">X>X>X>X>X>X>X>X>X>X>X>X>X>X>X>X>X>X>X>X>X>X>XQ.B.] u O.$.i u 9 7 X   >X>X>X>X>X>X>X>X>X>X>X>X>X>X>X",
">X>X>X>X>X>X>X>X>X>X>X>X>X>X>X>X>X>X>X>X>X4 4 P P L B #.$.&.&.H 6 T._.>X>X>X>X>X>X>X>X>X>X>X>X>X>X>X",
">X>X>X>X>X>X>X>X>X>X>X>X>X>X>X>X>X>X>X>X>X5 5 N N N N o.#.j.l.H 9  X=X>X>X>X>X>X>X>X>X>X>X>X>X>X>X>X",
">X>X>X>X>X>X>X>X>X>X>X>X>X>X>X>X>X>X>X/ / B m N N N N J J *.&.[ w P.R.>X>X>X>X>X>X>X>X>X>X>X>X>X>X>X",
">X>X>X>X>X>X>X>X>X>X>X>X>X>X>X>X>X>X>X/ / C N N N N N N N #.$.s p #.$.>X>X>X>X>X>X>X>X>X>X>X>X>X>X>X",
">X>X>X>X>X>X>X>X>X>X>X>X>X>X>X>X>X>X>XS S M N N N N N n 5 a d $.p.b.n.p.$.>X>X>X>X>X>X>X>X>X>X>X>X>X",
">X>X>X>X>X>X>X>X>X>X>X>X>X>X>X>X>X>X>X4 5 M N N N N N n 4 w u &.z.W.Q.p.$.>X>X>X>X>X>X>X>X>X>X>X>X>X",
">X>X>X>X>X>X>X>X>X>X>X>X>X>X>X>X>X>X>XU U V M n n n n f v q u h.B.W.Q.p.$.>X>X>X>X>X>X>X>X>X>X>X>X>X",
">X>X>X>X>X>X>X>X>X>X>X>X>X>X>X>X>X>X>X/ / A M 7 4 4 4 c C.k u b.Q.Q.Q.d.$.>X>X>X>X>X>X>X>X>X>X>X>X>X",
">X>X>X>X>X>X>X>X>X>X>X>X>X>X>X>X>X>X>XI.I.L.L.b c c c Z.D.A.A.z k %.p. .s >X>X>X>X>X>X>X>X>X>X>X>X>X",
">X>X>X>X>X>X>X>X>X>X>X>X>X>X>X>X>X>X>X].`./.`.G.C.C.C.F.F.Z.C.g 1 O.$.d u >X>X>X>X>X>X>X>X>X>X>X>X>X",
">X>X>X>X>X>X>X>X>X>X>X>X>X>X>X-X-X>X>X`.].#X:XU.U.H.D.G.G.x j t q d ] : = >X>X>X>X>X>X>X>X>X>X>X>X>X",
">X>X>X>X>X>X>X>X>X>X>X>X>X>X>X-X-X>X>X/.].-X-X/._.J.F.Z.C.1 < r u i u +   >X>X>X>X>X>X>X>X>X>X>X>X>X",
">X>X>X>X>X>X>X>X>X>X>X>X>X>X>X=.-.h.d.z h ~.}.`.~.J.C.C.C.`.[.+.u = % K.'.>X>X>X>X>X>X>X>X>X>X>X>X>X",
">X>X>X>X>X>X>X>X>X>X>X>X>X>X>Xu i d.d.t 2 ~.`./.T.J.C.C.C.:X-X=.q o   _.-X>X>X>X>X>X>X>X>X>X>X>X>X>X",
">X>X>X>X>X>X>X>X>X>X>X>X>X>X>X>X>Xq r s.s.M.R.a.a.`.{.{.{.;X-X|.!.Y.Y.%X-X>X>X>X>X>X>X>X>X>X>X>X>X>X",
">X>X>X>X>X>X>X>X>X>X>X>X>X>X>X>X>X  $ v.Q.c.c.$.*.OX-X-X-X-X-X-X-X-X-X-X-X>X>X>X>X>X>X>X>X>X>X>X>X>X",
">X>X>X>X>X>X>X>X>X>X>X>X>X>X>X>X>X>X+ k l i i $.*.%X-X-X-X-X-X-X-X-X-X-X-X>X>X>X>X>X>X>X>X>X>X>X>X>X",
">X>X>X>X>X>X>X>X>X>X>X>X>X>X>X>X>X>X>X        >X>X>X>X>X>X>X>X>X>X>X>X>X>X>X>X>X>X>X>X>X>X>X>X>X>X>X"
};
