/* XPM */
static char *result[] = {
/* columns rows colors chars-per-pixel */
"50 50 178 2 ",
"   c #000203",
".  c #0B0504",
"X  c #0D0B0A",
"o  c gray3",
"O  c #140F03",
"+  c #151104",
"@  c #1B140B",
"#  c #0C0F16",
"$  c #151719",
"%  c #201704",
"&  c #2A1E04",
"*  c #241B08",
"=  c #2B1F17",
"-  c #231913",
";  c #2B2109",
":  c #362705",
">  c #23201F",
",  c #34251C",
"<  c #322512",
"1  c #171C28",
"2  c #232223",
"3  c #292626",
"4  c #312C2B",
"5  c #232A3C",
"6  c #383230",
"7  c #4D120E",
"8  c #5C1511",
"9  c #671B14",
"0  c #751A14",
"q  c #7D1A15",
"w  c #443006",
"e  c #7B2313",
"r  c #74231B",
"t  c #702A1F",
"y  c #412E22",
"u  c #4D3425",
"i  c #48372D",
"p  c #533A29",
"a  c #553E31",
"s  c #7F2B21",
"d  c #6B3C2B",
"f  c #5B4131",
"g  c #68402E",
"h  c #664531",
"j  c #6C4A34",
"k  c #694836",
"l  c #734D36",
"z  c #744F38",
"x  c #75513A",
"c  c #7A543C",
"v  c #303952",
"b  c #7E5640",
"n  c #694E5F",
"m  c #644C66",
"M  c #645577",
"N  c #655779",
"B  c #811A16",
"V  c #8D1A17",
"C  c #971E17",
"Z  c #951A18",
"A  c #981D18",
"S  c #89241E",
"D  c #862418",
"F  c #972017",
"G  c #992616",
"H  c #9F2B1A",
"J  c #9A2D15",
"K  c #823111",
"L  c #8F3C18",
"P  c #9B3015",
"I  c #A4381A",
"U  c #872A21",
"Y  c #9A2D24",
"T  c #9B3026",
"R  c #9C5D0A",
"E  c #99530C",
"W  c #8C5D0F",
"Q  c #AF491C",
"!  c #9D6C06",
"~  c #9F6409",
"^  c #956706",
"/  c #8F6216",
"(  c #A5640B",
")  c #A26808",
"_  c #A66E07",
"`  c #A77306",
"'  c #A97507",
"]  c #A3720C",
"[  c #AB7609",
"{  c #AE790A",
"}  c #B37D0D",
"|  c #80573D",
" . c #82583F",
".. c #844F39",
"X. c #845B41",
"o. c #8A5E43",
"O. c #905E42",
"+. c #936346",
"@. c #9B6A4A",
"#. c #96674A",
"$. c #9A6C50",
"%. c #8F715E",
"&. c #A56E4D",
"*. c #A96E4E",
"=. c #A6704F",
"-. c #AB7351",
";. c #AD7A58",
":. c #B47C58",
">. c #8C7465",
",. c #B7810F",
"<. c #B8820F",
"1. c #BB8410",
"2. c #C5831F",
"3. c #CC931B",
"4. c #D1971C",
"5. c #D49A1E",
"6. c #C58120",
"7. c #CC8120",
"8. c #CB8A20",
"9. c #D18B21",
"0. c #D69C20",
"q. c #D89D20",
"w. c #D59222",
"e. c #DEA323",
"r. c #AF8453",
"t. c #BC845E",
"y. c #B6805B",
"u. c #B08865",
"i. c #BE9267",
"p. c #C4855E",
"a. c #CC8C64",
"s. c #CD956B",
"d. c #D69166",
"f. c #DB996D",
"g. c #D9966A",
"h. c #C89976",
"j. c #DC9C71",
"k. c #D49871",
"l. c #DFA97C",
"z. c #D6A378",
"x. c #D9A46B",
"c. c #E1AB7A",
"v. c #596389",
"b. c #5A6997",
"n. c #5A6C9C",
"m. c #566490",
"M. c #616189",
"N. c #67749C",
"B. c #5A6FA1",
"V. c #5A75AC",
"C. c #5A78B0",
"Z. c #637EB0",
"A. c #6879A2",
"S. c #6882B2",
"D. c #9DA5B1",
"F. c #A4AAB5",
"G. c #B0B0AE",
"H. c #DDB093",
"J. c #E5AF81",
"K. c #E6B182",
"L. c #EBB484",
"P. c #EBBA8D",
"I. c #EEBF95",
"U. c #D0BBAE",
"Y. c #C0B8AB",
"T. c #D9C292",
"R. c #C8C3B8",
"E. c #C5C8C0",
"W. c #CCCFC8",
"Q. c #D9D1CC",
"!. c #D6CDC8",
"~. c #E7DBC5",
"^. c #E7DCD7",
"/. c #E0E2E1",
"(. c white",
"). c #F8F7F6",
"_. c #F8EBE3",
"`. c None",
/* pixels */
"`.`.`.`.`.`.`.`.`.`.`.`.`.`.`.`.`.`.`.e.e.e.e.` [ 5.e.,.` `.`.`.`.`.`.`.`.`.`.`.`.`.`.`.`.`.`.`.`.`.",
"`.`.`.`.`.`.`.`.`.`.`.`.`.`.`.`.`.`.`.q.q.e.e.{ } 5.e.1.{ `.`.`.`.`.`.`.`.`.`.`.`.`.`.`.`.`.`.`.`.`.",
"`.`.`.`.`.`.`.`.`.`.`.`.`.`.`.e.e.} ` } } q.e.5.5.e.e.5.5.{ ` `.`.`.`.`.`.`.`.`.`.`.`.`.`.`.`.`.`.`.",
"`.`.`.`.`.`.`.`.`.`.`.`.`.`.`.e.q.,.{ { { e.e.e.e.q.5.e.e.{ ` `.`.`.`.`.`.`.`.`.`.`.`.`.`.`.`.`.`.`.",
"`.`.`.`.`.`.`.`.`.`.`.`.`.` ` e.e.5.q.q.q.e.e.e.q.,.{ 5.e.{ ` K 0 `.`.`.`.`.`.`.`.`.`.`.`.`.`.`.`.`.",
"`.`.`.`.`.`.`.`.`.`.`.`.`.` ` e.e.e.e.e.e.e.e.e.e.} ` 4.e.{ ' K 0 `.`.`.`.`.`.`.`.`.`.`.`.`.`.`.`.`.",
"`.`.`.`.`.`.`.`.`.`.`.` ` 5.e.{ } 5.e.e.e.e.e.{ } 3.q.1.{ P J q 0 0 0 R ` 5.e.,.` `.`.`.`.`.`.`.`.`.",
"`.`.`.`.`.`.`.`.`.`.`.` ` 5.e.` { 5.e.e.e.e.e.` [ 5.e.} ` G A q 0 0 0 R ` 5.e.,.` `.`.`.`.`.`.`.`.`.",
"`.`.`.`.`.`.`.`.`.`.`.` ` q.e.e.e.e.e.e.e.e.e.e.e.e.e.I A Z Z Z F ( ` 4.e.e.e.e.e.1.` `.`.`.`.`.`.`.",
"`.`.`.`.`.`.`.`.`.`.`.[ ` 5.e.e.e.e.e.e.e.e.e.e.e.q.q.I A Z Z A G ( [ 4.e.e.e.e.q.1.` `.`.`.`.`.`.`.",
"`.`.`.`.`.`.`.`.`.` { 3.5.e.e.e.e.e.e.e.e.e.e.e.q.Q H V q q 0 E ( 3.5.e.e.e.e.1.} `.`.`.`.`.`.`.`.`.",
"`.`.`.`.`.`.`.`.`.` { q.e.e.q.e.e.e.e.e.e.q.0.w.9.I A B 0 e e ( } 5.e.q.5.e.5.[ ^ `.`.`.`.`.`.`.`.`.",
"`.`.`.`.`.`.`.`.`.` { q.e.,.{ e.e.e.e.e.e.} { H H Z Z q 0 R ! 8.5.e.e.<.{ { } : O `.`.`.`.`.`.`.`.`.",
"`.`.`.`.`.`.`.`.`.` { q.e.{ ` e.e.e.e.e.e.{ ` A Z Z Z q 0 ! ` 0.e.e.e.<.` ` ` &   `.`.`.`.`.`.`.`.`.",
"`.`.`.`.`.`.`.`.`.`.`.{ { 5.5.} { I H H H G J Z Z q q E ) 3.0.e.e.<.} [ ` : + `.`.`.`.`.`.`.`.`.`.`.",
"`.`.`.`.`.`.`.`.`.`.`.` ` 5.e.` _ H A A Z Z A Z Z q 0 R ` q.e.e.5.} ` ` ` +   `.`.`.`.`.`.`.`.`.`.`.",
"`.`.`.`.`.`.`.`.`.`.`.K e L L J P A A Z Z q q 2.7.7.6.3.4.1.} } { w * & & .   `.`.`.`.`.`.`.`.`.`.`.",
"`.`.`.`.`.`.`.`.`.`.`.e e 0 0 Z A Z Z A C D e e.e.q.e.5.q.` ! [ ] & X         `.`.`.`.`.`.`.`.`.`.`.",
"`.`.`.`.`.`.`.`.`.` ` ~ ! e 0 Z Z q e R ( 2.8.e.e.<.} } } : % r.x.@.o.-   `.`.`.`.`.`.`.`.`.`.`.`.`.",
"`.`.`.`.`.`.`.`.`.` ` ` ` e 0 A Z q e ) [ q.e.e.e.} ` ` ` +   u.L.y.-.=   `.`.`.`.`.`.`.`.`.`.`.`.`.",
"`.`.`.`.`.`.`.`.`.` { 3.5.2.2.7.7.6.6.4.4.1.} } ,.' ` T.~.$   u.L.l.z.`.`.    `.`.`.`.`.`.`.`.`.`.`.",
"`.`.`.`.`.`.`.`.`.` { 5.e.e.e.e.e.e.e.e.e.{ ` ` ` ` ` ~.(.2   u.L.L.L.`.`.    `.`.`.`.`.`.`.`.`.`.`.",
"`.`.`.`.`.`.`.e.e.e.5.} { q.e.e.q.1.{ { { ` ` + @ i.l.P.I.z.z.K.L.f.g.`.`.`.`.`.`.`.`.`.`.`.`.`.`.`.",
"`.`.`.`.`.`.`.e.e.e.5.{ ` q.e.e.q.} ` ` ` ` `   + i.L.L.L.L.L.L.L.f.d.`.`.`.`.`.`.`.`.`.`.`.`.`.`.`.",
"`.`.`.`.`.`.`.} ,.} <.3.5.e.e.,.,.` ! : & & & | X.z.L.L.L.L.L.L.K.#.X.`.`.`.`.`.`.`.`.`.`.`.`.`.`.`.",
"`.`.`.`.`.`.`.` ` ` { 3.4.4.0.! ! ! W +   o . ;.y.c.L.L.L.L.L.L.l.X.h `.`.`.`.`.`.`.`.`.`.`.`.`.`.`.",
"`.`.`.`.`.`.`.`.`.`.`.; ; ; ; @ + % + .   c o.l.l.L.L.x.g.d.f.i.:.`.`.`.`.`.`.`.`.`.`.`.`.`.`.`.`.`.",
"`.`.`.`.`.`.`.`.`.`.`.                    #.-.L.L.L.L.f.d.d.d.:.-.`.`.`.`.`.`.`.`.`.`.`.`.`.`.`.`.`.",
"`.`.`.`.`.`.`.`.`.`.`.`.`.          . 7 8 l z t.t.t.t.+.X.X.X.U.^.`.`.`.`.`.`.`.`.`.`.`.`.`.`.`.`.`.",
"`.`.`.`.`.`.`.`.`.`.`.`.`.          . 9 0 g g -.-.-.-.x d h h Q.(.`.`.`.`.`.`.`.`.`.`.`.`.`.`.`.`.`.",
"`.`.`.`.`.`.`.`.`.`.`.`.`.`.`.    7 9 d g #.@.z x s.c.;.@.j h Q.(.`.`.`.`.`.`.`.`.`.`.`.`.`.`.`.`.`.",
"`.`.`.`.`.`.`.`.`.`.`.`.`.`.`.  . 8 e g h $.-.h z k.L.t.-.j h Q.(.`.`.`.`.`.`.`.`.`.`.`.`.`.`.`.`.`.",
"`.`.`.`.`.`.`.`.`.`.`.`.`.`.`.u u 0 q S S Y T @.@.d.f.a.a.@.@.%.>.`.`.`.`.`.`.`.`.`.`.`.`.`.`.`.`.`.",
"`.`.`.`.`.`.`.`.`.`.`.`.`.`.`.j j r q V Z Z Z =.-.a.d.d.d.-.&.x h `.`.`.`.`.`.`.`.`.`.`.`.`.`.`.`.`.",
"`.`.`.`.`.`.`.`.`.`.`.`.`.h h +.O.S V Z Z Z Z | | p.d.d.d.o.| j k !.(.`.`.`.`.`.`.`.`.`.`.`.`.`.`.`.",
"`.`.`.`.`.`.`.`.`.`.`.`.`.h h -.*.Y Z Z Z Z Z h j p.d.d.d.z h h b ^.(.`.`.`.`.`.`.`.`.`.`.`.`.`.`.`.",
"`.`.`.`.`.`.`.`.`.`.`.`.`.h h -.&.U q q q B q S U | | X.| k h `.`.).(.(.(.`.`.`.`.`.`.`.`.`.`.`.`.`.",
"`.`.`.`.`.`.`.`.`.`.`.`.`.h h -.&.s 0 0 0 0 0 Z A d h h h h h `.`.(.(.(.(.`.`.`.`.`.`.`.`.`.`.`.`.`.",
"`.`.`.`.`.`.`.`.`.`.`.`.`.h h c b n m m m m m B B r s s U / / `.`.`.`.(.(.`.`.`.`.`.`.`.`.`.`.`.`.`.",
"`.`.`.`.`.`.`.`.`.`.`.`.`.h h h h M.b.b.b.b.n.0 q 0 9 V A ( _ `.`.`.`.(.(.`.`.`.`.`.`.`.`.`.`.`.`.`.",
"`.`.`.`.`.`.`.`.`.`.`.`.`.@ @ @.@.G.D.N.n.V.V.M.M.N M M N < & `.`.`.`.`.`.(.(.`.`.`.`.`.`.`.`.`.`.`.",
"`.`.`.`.`.`.`.`.`.`.`.`.`.    -.;.G.G.N.b.V.C.C.V.n.b.b.b.#   `.`.`.`.`.`.(.(.`.`.`.`.`.`.`.`.`.`.`.",
"`.`.`.`.`.`.`.`.`.`.`.`.`.    a.a.^./.F.F.Z.C.n.B.n.b.v 5 2 2 `.`.`.`.`.`.`.`.`.`.`.`.`.`.`.`.`.`.`.",
"`.`.`.`.`.`.`.`.`.`.`.`.`.    d.f._.(.W.R.S.C.n.b.b.b.1   4 6 `.`.`.`.`.`.`.`.`.`.`.`.`.`.`.`.`.`.`.",
"`.`.`.`.`.`.`.`.`.`.`.`.`.`.`., y h.H.E.R.A.n.b.m.5 1 2 3 # X c =.l h `.`.`.`.`.`.`.`.`.`.`.`.`.`.`.",
"`.`.`.`.`.`.`.`.`.`.`.`.`.`.`.  X ;.k.Y.E.N.n.n.m.$   3 6 o   X.=.l h `.`.`.`.`.`.`.`.`.`.`.`.`.`.`.",
"`.`.`.`.`.`.`.`.`.`.`.`.`.`.`.`.`.`.`.`.`.`.`.`.`.3 2 i a h j u y `.`.`.`.`.`.`.`.`.`.`.`.`.`.`.`.`.",
"`.`.`.`.`.`.`.`.`.`.`.`.`.`.`.`.`.`.`.`.`.`.`.`.`.6 6 f h &.-.=   `.`.`.`.`.`.`.`.`.`.`.`.`.`.`.`.`.",
"`.`.`.`.`.`.`.`.`.`.`.`.`.`.`.`.`.`.`.`.`.`.`.`.`.`.6 , , p p - `.`.`.`.`.`.`.`.`.`.`.`.`.`.`.`.`.`.",
"`.`.`.`.`.`.`.`.`.`.`.`.`.`.`.`.`.`.`.`.`.`.`.`.`.`.`.        `.`.`.`.`.`.`.`.`.`.`.`.`.`.`.`.`.`.`."
};
