/* XPM */
static char *result[] = {
/* columns rows colors chars-per-pixel */
"50 50 177 2 ",
"   c #000203",
".  c #0B0504",
"X  c #0C0A09",
"o  c #090807",
"O  c #140F03",
"+  c #151104",
"@  c #1B140A",
"#  c #1E1A16",
"$  c #201704",
"%  c #2A1E04",
"&  c #241B08",
"*  c #261B14",
"=  c #2B1F17",
"-  c #2B2109",
";  c #362705",
":  c #2F261D",
">  c #202223",
",  c #3B2F24",
"<  c #3A3330",
"1  c #3C393D",
"2  c #4D120E",
"3  c #5C1511",
"4  c #681913",
"5  c #751A14",
"6  c #7D1A15",
"7  c #443006",
"8  c #7B2313",
"9  c #742018",
"0  c #7E241C",
"q  c #523929",
"w  c #583C2B",
"e  c #4E3E36",
"r  c #533F36",
"t  c #693B2A",
"y  c #753E2D",
"u  c #5D4333",
"i  c #68402E",
"p  c #664531",
"a  c #6E4B35",
"s  c #664B38",
"d  c #734C36",
"f  c #744F39",
"g  c #77513A",
"h  c #7C543C",
"j  c #464755",
"k  c #534F4B",
"l  c #755B45",
"z  c #64554C",
"x  c #66635E",
"c  c #5E5E77",
"v  c #654C63",
"b  c #615576",
"n  c #5D607E",
"m  c #821A16",
"M  c #8C1A17",
"N  c #971E17",
"B  c #961A18",
"V  c #981D18",
"C  c #832215",
"Z  c #87281A",
"A  c #972017",
"S  c #992616",
"D  c #9F2B1A",
"F  c #9A2D15",
"G  c #823111",
"H  c #8F3C18",
"J  c #9B3015",
"K  c #A4381A",
"L  c #862920",
"P  c #992620",
"I  c #9E3C2E",
"U  c #A53C2F",
"Y  c #895F06",
"T  c #9C5D0A",
"R  c #97520C",
"E  c #954B0D",
"W  c #AF491C",
"Q  c #9D6C06",
"!  c #9F6409",
"~  c #956706",
"^  c #A4640B",
"/  c #A26808",
"(  c #A66E07",
")  c #A77306",
"_  c #A97507",
"`  c #A3720C",
"'  c #AB7609",
"]  c #AE790A",
"[  c #B37D0D",
"{  c #80573E",
"}  c #82583F",
"|  c #A64333",
" . c #835C42",
".. c #8A5E43",
"X. c #946447",
"o. c #99694B",
"O. c #A36E4D",
"+. c #A96E4E",
"@. c #A6704F",
"#. c #AB7351",
"$. c #AF7959",
"%. c #B47A56",
"&. c #BB7F59",
"*. c #B37754",
"=. c #B07F60",
"-. c #B7810F",
";. c #B8820F",
":. c #BB8410",
">. c #C5831F",
",. c #CC931B",
"<. c #D1971C",
"1. c #D49A1E",
"2. c #C58120",
"3. c #CC8120",
"4. c #CB8A20",
"5. c #D18B21",
"6. c #D69C20",
"7. c #D89D20",
"8. c #D59222",
"9. c #DEA323",
"0. c #AF8453",
"q. c #B6815C",
"w. c #BC845E",
"e. c #AB8668",
"r. c #B08865",
"t. c #BE9267",
"y. c #AD907D",
"u. c #B4937B",
"i. c #C4835D",
"p. c #CC8B62",
"a. c #D38F65",
"s. c #CB986F",
"d. c #D69166",
"f. c #DB996D",
"g. c #D9966A",
"h. c #CE9F75",
"j. c #DA9D72",
"k. c #D5A379",
"l. c #DBA679",
"z. c #DFA97C",
"x. c #D6A176",
"c. c #D9A46B",
"v. c #E2AA7C",
"b. c #E3AD76",
"n. c #58638B",
"m. c #5A6997",
"M. c #596C9B",
"N. c #596793",
"B. c #616F9A",
"V. c #5A6FA1",
"C. c #5B76AA",
"Z. c #5A73A6",
"A. c #5A78B0",
"S. c #6173A0",
"D. c #617DB1",
"F. c #A38B8E",
"G. c #B99D96",
"H. c #BEB292",
"J. c #919BAF",
"K. c #9DA5B1",
"L. c #B1B7B9",
"P. c #B1B9BD",
"I. c #ABB1B6",
"U. c #CDA487",
"Y. c #E5AF81",
"T. c #E6B182",
"R. c #EBB484",
"E. c #EBBA8D",
"W. c #EEBF95",
"Q. c #D9C292",
"!. c #DDC4B4",
"~. c #C5C8C0",
"^. c #E9DCC1",
"/. c #EADCD4",
"(. c #FFFFFF",
"). c #FAF7F5",
"_. c None",
/* pixels */
"_._._._._._._._._._._._._._._._._._._.9.9.9.9.) ' 1.9.-.) _._._._._._._._._._._._._._._._._._._._._.",
"_._._._._._._._._._._._._._._._._._._.7.7.9.9.] [ 1.9.:.] _._._._._._._._._._._._._._._._._._._._._.",
"_._._._._._._._._._._._._._._.9.9.[ ) [ [ 7.9.1.1.9.9.1.1.] ) _._._._._._._._._._._._._._._._._._._.",
"_._._._._._._._._._._._._._._.9.7.-.] ] ] 9.9.9.9.7.1.9.9.] ) _._._._._._._._._._._._._._._._._._._.",
"_._._._._._._._._._._._._.) ) 9.9.1.7.7.7.9.9.9.7.[ ] 1.9.] ) G 5 _._._._._._._._._._._._._._._._._.",
"_._._._._._._._._._._._._.) ) 9.9.9.9.9.9.9.9.9.9.[ ) <.9.] ) G 5 _._._._._._._._._._._._._._._._._.",
"_._._._._._._._._._._.) ) 1.9.] [ 1.9.9.9.9.9.] [ ,.7.:.] J F 6 5 5 5 T ) 1.9.;.) _._._._._._._._._.",
"_._._._._._._._._._._.) ) 1.9.) ] 1.9.9.9.9.9.) ] 1.9.-.) S V 6 5 5 5 T ) 1.9.[ ) _._._._._._._._._.",
"_._._._._._._._._._._.) ) 7.9.9.9.9.9.9.9.9.9.9.9.9.9.U V B B B N ^ ) <.9.9.9.9.9.:.) _._._._._._._.",
"_._._._._._._._._._._.' ) 1.9.9.9.9.9.9.9.9.9.9.9.7.7.K B B B V S ^ _ <.9.9.9.9.7.:.) _._._._._._._.",
"_._._._._._._._._.) ] ,.1.9.9.9.9.9.9.9.9.9.9.9.7.W K C 6 6 6 R ( ,.1.9.9.9.9.:.[ _._._._._._._._._.",
"_._._._._._._._._.) ] 7.9.9.7.9.9.9.9.9.9.7.7.<.5.D B m 5 8 8 ^ [ 1.9.7.1.7.7.' ~ _._._._._._._._._.",
"_._._._._._._._._.) ] 7.9.-.] 9.9.9.9.9.9.[ ] D D N N 6 5 T / ,.1.9.9.;.] ] [ ; O _._._._._._._._._.",
"_._._._._._._._._.) ] 7.9.] ) 9.9.9.9.9.9.] ) B B B B 6 5 / ) ,.9.9.9.;.) ) ) %   _._._._._._._._._.",
"_._._._._._._._._._._.] ] 1.1.[ ' K K D D S S B B m 6 R / <.1.9.9.-.] ) ) ; + _._._._._._._._._._._.",
"_._._._._._._._._._._.) ) 1.9.) ( D B V B B B B B 6 5 T ) 1.9.9.7.[ ) ) ) @   _._._._._._._._._._._.",
"_._._._._._._._._._._.G G H H J F N B B B m 6 3.3.2.>.,.,.;.[ [ ] ; - % % o   _._._._._._._._._._._.",
"_._._._._._._._._._._.8 9 5 5 B B B B N A C 8 9.9.9.7.9.9.` Q ' ` % X o       _._._._._._._._._._._.",
"_._._._._._._._._.) ) ! ! 8 5 B B m C T ^ >.5.9.9.:.[ ] [ ; $ 0.c.o...*   _._._._._._._._._._._._._.",
"_._._._._._._._._.) ) ) ) 8 5 B B 6 8 / ) 7.9.9.7.[ ) ) ) +   r.T.&.+.:   _._._._._._._._._._._._._.",
"_._._._._._._._._.) ] ,.1.>.2.3.>.2.>.<.<.[ [ [ -._ _ Q.^.#   r.R.v.l._._.    _._._._._._._._._._._.",
"_._._._._._._._._.) ] 1.9.9.9.9.9.9.9.9.9.[ ) ) ) ) ) ^.(.>   r.R.R.R._._.    _._._._._._._._._._._.",
"_._._._._._._.9.9.9.1.[ ] 7.9.9.7.[ [ ] ] ) ) + @ t.v.E.W.k.h.T.R.f.g._._._._._._._._._._._._._._._.",
"_._._._._._._.9.9.9.1.] ) 7.9.9.9.[ ) ) ) ) )   X t.R.R.R.R.R.R.T.f.d._._._._._._._._._._._._._._._.",
"_._._._._._._.[ -.[ ;.,.1.9.9.-.-.) ~ ; % % % } ..l.R.R.R.R.R.R.Y.o.} _._._._._._._._._._._._._._._.",
"_._._._._._._.) ) ) ] ,.<.<.6.Q Q Q Y +   o X #.%.z.R.R.R.R.R.R.v.l p _._._._._._._._._._._._._._._.",
"_._._._._._._._._._._.- - - - @ $ $ @ .   g ..z.z.R.R.c.f.f.f.w.&._._._._._._._._._._._._._._._._._.",
"_._._._._._._._._._._.                    X.#.R.E.R.R.f.d.d.d.%.#._._._._._._._._._._._._._._._._._.",
"_._._._._._._._._._._._._.          . 2 3 d g w.w.w.w.X.} *.%.!./._._._._._._._._._._._._._._._._._.",
"_._._._._._._._._._._._._.          . 4 5 i p #.#.#.#.g p O.#./.(._._._._._._._._._._._._._._._._._.",
"_._._._._._._._._._._._._._._.  . 2 4 t i X.o.d g s.z._._._._.).(._._._._._._._._._._._._._._._._._.",
"_._._._._._._._._._._._._._._.  . 3 9 t p O.#.p a x.R._._._._.(.(._._._._._._._._._._._._._._._._._.",
"_._._._._._._._._._._._._._._._._.5 0 *.&.#.@.L L U U L 5 _._.(.(._._._._._._._._._._._._._._._._._.",
"_._._._._._._._._._._._._._._._._.5 0 i.d.#.+.B B B B M 5 _._.(.(._._._._._._._._._._._._._._._._._.",
"_._._._._._._._._._._._._._._.#.O.y y *.&.| I B B B B M M ^ ) _._.(.(._._._._._._._._._._._._._._._.",
"_._._._._._._._._._._._._._._.#.+.d a O.#.D B B B B B B B / ) _._.(.(._._._._._._._._._._._._._._._.",
"_._._._._._._._._._._._._.#.#.l.x.p.#.l f 0 6 B B B B B B G G _._.(.(.(.(._._._._._._._._._._._._._.",
"_._._._._._._._._._._._._.#.#.R.T.f.p.d p 5 5 B B B B B B 6 5 _._.(.(.(.(._._._._._._._._._._._._._.",
"_._._._._._._._._._._._._.#.#.R.R.Y.j.g p v v m M m m B B E E _._._._.(.(._._._._._._._._._._._._._.",
"_._._._._._._._._._._._._.#.#.R.R.R.l.h p n.N.5 5 5 5 M B ^ ) _._._._.(.(._._._._._._._._._._._._._.",
"_._._._._._._._._._._._._.g g w.q.l z c n.V.C.c b b b F.G.H.H._._._._._._.(.(._._._._._._._._._._._.",
"_._._._._._._._._._._._._.p p #.O.e 1 n.m.C.A.m.m.m.m.I.~.~.~._._._._._._.(.(._._._._._._._._._._._.",
"_._._._._._._._._._._._._.* * } h u u j j M.M.C.C.J.K.L._.~.~._._._._._._._._._._._._._._._._._._._.",
"_._._._._._._._._._._._._.    p p p u < < n.m.A.D.P.~._._.~.~._._._._._._._._._._._._._._._._._._._.",
"_._._._._._._._._._._._._._._.@ # w p _._.N.m.V.S.L.!.~.P.x x =.p.h p _._._._._._._._._._._._._._._.",
"_._._._._._._._._._._._._._._.  o w p _._.m.m.M.B.L.~.~.!.k < $.a.g p _._._._._._._._._._._._._._._.",
"_._._._._._._._._._._._._._._._._._._._._._._._._.y.F.U.U.r.e.s q _._._._._._._._._._._._._._._._._.",
"_._._._._._._._._._._._._._._._._._._._._._._._._.#.#.i.d.T.R.,   _._._._._._._._._._._._._._._._._.",
"_._._._._._._._._._._._._._._._._._._._._._._._._._.#.f a l l : _._._._._._._._._._._._._._._._._._.",
"_._._._._._._._._._._._._._._._._._._._._._._._._._._.        _._._._._._._._._._._._._._._._._._._."
};
