/* XPM */
static char *result[] = {
/* columns rows colors chars-per-pixel */
"50 50 167 2 ",
"   c #000203",
".  c #0A0405",
"X  c #0D0C0A",
"o  c #140606",
"O  c #1A0A09",
"+  c #151104",
"@  c #1A130F",
"#  c #0B1317",
"$  c #0E191F",
"%  c #1C1B1B",
"&  c #261A0A",
"*  c #291B14",
"=  c #351812",
"-  c #2A2009",
";  c #392B0B",
":  c #35280A",
">  c #102028",
",  c #202223",
"<  c #332E2C",
"1  c #3E2C20",
"2  c #383230",
"3  c #4D120E",
"4  c #52130F",
"5  c #5C1511",
"6  c #5C1A15",
"7  c #661612",
"8  c #6A1A14",
"9  c #7B1614",
"0  c #751A14",
"q  c #7B1A15",
"w  c #543F0E",
"e  c #7B2413",
"r  c #79231A",
"t  c #792716",
"y  c #4D3426",
"u  c #583C2B",
"i  c #6A3C2B",
"p  c #733125",
"a  c #6A492A",
"s  c #724E29",
"d  c #775127",
"f  c #664531",
"g  c #694531",
"h  c #6D4A34",
"j  c #744632",
"k  c #744F38",
"l  c #774B36",
"z  c #77523A",
"x  c #7B533C",
"c  c #755130",
"v  c #615547",
"b  c #745645",
"n  c #7A624F",
"m  c #7B6350",
"M  c #625678",
"N  c #606162",
"B  c #717272",
"V  c #841A16",
"C  c #8E1B17",
"Z  c #911A17",
"A  c #961A18",
"S  c #822B14",
"D  c #8D241E",
"F  c #822214",
"G  c #992616",
"H  c #9F2B1A",
"J  c #8B3D12",
"K  c #8E3B18",
"L  c #8B3729",
"P  c #9C5E0A",
"I  c #9C550C",
"U  c #A25E0B",
"Y  c #9E6309",
"T  c #A36808",
"R  c #A46A09",
"E  c #A77306",
"W  c #AB7509",
"Q  c #AE790A",
"!  c #A37009",
"~  c #B37D0D",
"^  c #B1730F",
"/  c #825922",
"(  c #80573E",
")  c #82583E",
"_  c #95583E",
"`  c #845C42",
"'  c #8A5E43",
"]  c #9C6A4B",
"[  c #976749",
"{  c #8A6E5D",
"}  c #986F51",
"|  c #AA7351",
" . c #B47B57",
".. c #B57C58",
"X. c #B97E59",
"o. c #B07754",
"O. c #8C7465",
"+. c #B7810F",
"@. c #BB8511",
"#. c #B28017",
"$. c #B28525",
"%. c #BF902F",
"&. c #BB933F",
"*. c #C4811F",
"=. c #CC8A1D",
"-. c #CF951B",
";. c #C7901B",
":. c #D1971C",
">. c #D49A1E",
",. c #CB8220",
"<. c #C68D22",
"1. c #D28F20",
"2. c #D49222",
"3. c #D69C20",
"4. c #D89E20",
"5. c #DEA323",
"6. c #BF845D",
"7. c #B6805B",
"8. c #AA8E7E",
"9. c #B5937B",
"0. c #C2835D",
"q. c #CC8A61",
"w. c #D18E65",
"e. c #D69166",
"r. c #DA976B",
"t. c #CD9B72",
"y. c #D6A176",
"u. c #DEA679",
"i. c #E5AC7D",
"p. c #685F86",
"a. c #5F628B",
"s. c #5A6997",
"d. c #5A6B9B",
"f. c #5C6794",
"g. c #626189",
"h. c #69618A",
"j. c #6C799F",
"k. c #5A6FA1",
"l. c #5A72A5",
"z. c #5A76AD",
"x. c #5A78B0",
"c. c #96A2B3",
"v. c #ACB1B5",
"b. c #A8B3BB",
"n. c #D0A688",
"m. c #D7AE90",
"M. c #DFB69B",
"N. c #E3AE80",
"B. c #EAB383",
"V. c #E7B182",
"C. c #C6B3A7",
"Z. c #E6BBA0",
"A. c #BFC2BE",
"S. c #DAC290",
"D. c #DFCBBE",
"F. c #E9CDAC",
"G. c #F0CEB0",
"H. c #B2BAC2",
"J. c #C5C8C0",
"K. c #CCCFC8",
"L. c #D0D3CC",
"P. c #CFD3D4",
"I. c #D1D8E6",
"U. c #D6DDEB",
"Y. c #FEFEFD",
"T. c #F8F8F7",
"R. c None",
/* pixels */
"R.R.R.R.R.R.R.R.R.R.R.R.R.R.R.R.R.R.R.E E 3.5.E W >.5.5.5.Q E R.R.R.R.R.R.R.R.R.R.R.R.R.R.R.R.R.R.R.",
"R.R.R.R.R.R.R.R.R.R.R.R.R.R.R.R.R.R.R.Q Q 3.5.Q +.3.5.5.5.+.Q R.R.R.R.R.R.R.R.R.R.R.R.R.R.R.R.R.R.R.",
"R.R.R.R.R.R.R.R.R.R.R.R.R.R.R.R.R.E Q -.>.5.5.>.:.5.5.5.5.>.>.+.E R.R.R.R.R.R.R.R.R.R.R.R.R.R.R.R.R.",
"R.R.R.R.R.R.R.R.R.R.R.R.R.R.R.R.R.Q ~ >.5.5.5.5.5.5.5.5.5.5.5.@.Q R.R.R.R.R.R.R.R.R.R.R.R.R.R.R.R.R.",
"R.R.R.R.R.R.R.R.R.R.R.R.R.R.R.E W -.:.+.W 5.5.5.5.5.5.5.5.5.5.4.>.~ E R.R.R.R.R.R.R.R.R.R.R.R.R.R.R.",
"R.R.R.R.R.R.R.R.R.R.R.R.R.R.R.E W >.4.W E >.5.5.5.5.5.5.5.5.5.5.>.~ E R.R.R.R.R.R.R.R.R.R.R.R.R.R.R.",
"R.R.R.R.R.R.R.R.R.R.R.R.R.R.R.5.4.5.5.5.4.+.W 5.5.5.5.5.5.5.5.5.5.Q E R.R.R.R.R.R.R.R.R.R.R.R.R.R.R.",
"R.R.R.R.R.R.R.R.R.R.R.R.R.R.R.5.5.5.5.5.5.W E 5.5.5.5.5.5.5.5.5.5.~ E R.R.R.R.R.R.R.R.R.R.R.R.R.R.R.",
"R.R.R.R.R.R.R.R.R.R.R.5.5.S 0 0 0 T Q 4.5.5.5.5.5.5.5.5.5.5.5.~ ! e e 0 0 Y E R.R.R.R.R.R.R.R.R.R.R.",
"R.R.R.R.R.R.R.R.R.R.R.5.5.S 0 0 q P W >.5.5.5.5.5.5.5.4.5.4.4.~ R e 0 0 0 T W R.R.R.R.R.R.R.R.R.R.R.",
"R.R.R.R.R.R.R.R.R.E Q 4.5.S 0 C C S J >.5.5.5.5.5.5.5.;.~ ~ ~ J S C Z q 0 *.>.%.6.F.R.R.R.R.R.R.R.R.",
"R.R.R.R.R.R.R.R.R.Q ~ 5.5.K S A Z V D ,.2.2.2.>.4.2.2.^ T R R S q Z A F e =.5.@.+.S.R.R.R.R.R.R.R.R.",
"R.R.R.R.R.R.R.E Q -.5.5.5.2.2.A A A A G H H H H H H H G G G G A A A A I ! :.5.5.>.@.$.R.R.R.R.R.R.R.",
"R.R.R.R.R.R.R.E Q >.5.5.5.5.5.A A A A A A A A A A A A A A A A A A A A U E 3.5.5.4.@.+.R.R.R.R.R.R.R.",
"R.R.R.R.R.R.R.E Q >.5.5.5.~ Q 2.1.W U e q Z A q q q q q q q q I E =.2.>.3.5.5.5.5.5.>.R.R.R.R.R.R.R.",
"R.R.R.R.R.R.R.E Q >.5.5.5.Q E 5.4.~ R e 0 Z A 0 0 0 0 0 0 0 0 P W >.5.5.5.5.5.5.5.5.5.R.R.R.R.R.R.R.",
"R.R.R.R.R.R.R.R.R.5.5.5.5.>.:.5.5.3.:.,.*.,.,.,.*.*.,.,.$.*.*.:.:.5.5.5.5.@.~ >.5.5.R.R.R.R.R.R.R.R.",
"R.R.R.R.R.R.R.R.R.5.5.5.5.4.5.>.4.5.5.5.5.5.5.5.5.5.5.5.5.5.5.5.5.5.4.4.5.~ W ;.3.R.R.R.R.R.R.R.R.R.",
"R.R.R.R.R.R.R.R.R.R.R.5.5.+.~ ~ ~ 3.5.5.5.5.5.5.5.5.5.5.5.5.5.5.4.@.~ ~ ~ -.>.w - R.R.R.R.R.R.R.R.R.",
"R.R.R.R.R.R.R.R.R.R.R.5.5.Q E E W 3.5.5.5.5.5.5.5.5.5.5.5.5.5.5.4.~ E E E 3.5.;   R.R.R.R.R.R.R.R.R.",
"R.R.R.R.R.R.R.R.R.R.R.; ; s d :.-.+.+.+.~ +.~ +.~ ~ ~ ~ ~ ~ ~ ~ ~ / d ; - : ; R.R.R.R.R.R.R.R.R.R.R.",
"R.R.R.R.R.R.R.R.R.R.R.    u f 5.5.~ E E E E E E E E W E W W E W E s f @       R.R.R.R.R.R.R.R.R.R.R.",
"R.R.R.R.R.R.R.R.R.R.R.R.R.R.R.c a & + + + + + + + + + + + + + + + X X     R.R.R.R.R.R.R.R.R.R.R.R.R.",
"R.R.R.R.R.R.R.R.R.R.R.R.R.R.R.f f X                                       R.R.R.R.R.R.R.R.R.R.R.R.R.",
"R.R.R.R.R.R.R.R.R.R.R.R.R.O.O.f g x x 7 5 .   5 4 o       3 5 j x u y k x { O.R.R.R.R.R.R.R.R.R.R.R.",
"R.R.R.R.R.R.R.R.R.R.R.R.R.f f h h [ [ r 0 o . 0 0 O . . . 7 0 _ ] k f ] | x h R.R.R.R.R.R.R.R.R.R.R.",
"R.R.R.R.R.R.R.R.R.R.R.| | h g 0.X.1 & 8 0 5 5 A C 9 9 7 5 0 0 = * ' ] 0.w.0.0.) f R.R.R.R.R.R.R.R.R.",
"R.R.R.R.R.R.R.R.R.R.R.| | h f e.q.* o 7 0 0 0 A A A A q 0 0 0 O . ' | q.e.e.e.) f R.R.R.R.R.R.R.R.R.",
"R.R.R.R.R.R.R.R.R.| | | | X.0.i.y.p 7 V A Z C A A A A Z Z C C 7 6 g z 6.e.e.e.) f R.R.R.R.R.R.R.R.R.",
"R.R.R.R.R.R.R.R.R.| | | | w.e.B.i.L 9 Z A A A A A A A A A A A 9 r i f X.e.e.e.) f R.R.R.R.R.R.R.R.R.",
"R.R.R.R.R.R.R.| o.y.i.w.q.X. .b x D A A A A A A A A A A A A A A C 0 r l x x x R.R.R.R.R.R.R.R.R.R.R.",
"R.R.R.R.R.R.R.|  .i.i.r.w.o.| f g D A A A A A A A A A A A A A A A q 0 i f f f R.R.R.R.R.R.R.R.R.R.R.",
"R.R.R.R.R.R.R.z ' y.B.i.i.` z @ & 9 A A A A A A A A A A A A A A A q 0 R.R.R.R.R.R.R.R.R.R.R.R.R.R.R.",
"R.R.R.R.R.R.R.f z t.N.i.N.z f   . 9 A A A A A A A A A A A A A A Z q 0 R.R.R.R.R.R.R.R.R.R.R.R.R.R.R.",
"R.R.R.R.R.R.R.R.R.} } } } R.R.R.R.0 V A A A A V V Z A A A A A C V R.R.R.R.R.R.R.R.R.R.R.R.R.R.R.R.R.",
"R.R.R.R.R.R.R.R.R.f f f f R.R.R.R.0 0 A A A A 0 9 Z A A A A A q 0 R.R.R.R.R.R.R.R.R.R.R.R.R.R.R.R.R.",
"R.R.R.R.R.R.R.R.R.R.R.R.R.R.R.d.s.g.g.h.h.h.h.M M p.p.p.p.h.h.g.g.s.d.R.R.R.R.R.R.R.R.R.R.R.R.R.R.R.",
"R.R.R.R.R.R.R.R.R.R.R.R.R.R.R.s.s.z.x.x.x.x.x.s.d.x.x.x.x.x.x.x.x.k.d.R.R.R.R.R.R.R.R.R.R.R.R.R.R.R.",
"R.R.R.R.R.R.R.R.R.R.R.R.R.R.R.s.s.z.x.x.x.x.x.z.l.l.k.z.x.x.x.x.x.d.s.R.R.R.R.R.R.R.R.R.R.R.R.R.R.R.",
"R.R.R.R.R.R.R.R.R.R.R.R.R.R.R.s.s.z.x.x.x.x.x.x.x.d.s.z.x.x.x.x.z.d.s.R.R.R.R.R.R.R.R.R.R.R.R.R.R.R.",
"R.R.R.R.R.R.R.R.R.R.R.R.R.R.R.R.R.H.H.I.U.U.U.b.b.j.s.c.b.I.U.U.I.H.v.R.R.R.R.R.R.R.R.R.R.R.R.R.R.R.",
"R.R.R.R.R.R.R.R.R.R.R.R.R.R.R.R.R.R.K.T.Y.Y.Y.J.A.j.s.v.J.T.Y.Y.Y.L.J.R.R.R.R.R.R.R.R.R.R.R.R.R.R.R.",
"R.R.R.R.R.R.R.R.R.R.R.R.R.R.R.R.R.R.R.B N N N R.R.R.R.8.9.M.Z.G.G.m.n.R.R.R.R.R.R.R.R.R.R.R.R.R.R.R.",
"R.R.R.R.R.R.R.R.R.R.R.R.R.R.R.R.R.R.R.,       R.R.R.R.| | e.r.i.B.r.e.R.R.R.R.R.R.R.R.R.R.R.R.R.R.R.",
"R.R.R.R.R.R.R.R.R.R.R.R.R.R.R.R.R.R.R.R.R.R.R.R.R.R.R.q.0.i.i.B.B.6...R.R.R.R.R.R.R.R.R.R.R.R.R.R.R.",
"R.R.R.R.R.R.R.R.R.R.R.R.R.R.R.R.R.R.R.R.R.R.R.R.R.R.R.e.e.B.B.B.V...| R.R.R.R.R.R.R.R.R.R.R.R.R.R.R.",
"R.R.R.R.R.R.R.R.R.R.R.R.R.R.R.R.R.R.R.R.R.R.R.R.R.R.R.b b m m v v C.D.R.R.R.R.R.R.R.R.R.R.R.R.R.R.R.",
"R.R.R.R.R.R.R.R.R.R.R.R.R.R.R.R.R.R.R.R.R.R.R.R.R.R.R.2 2 2 2 $ > P.R.R.R.R.R.R.R.R.R.R.R.R.R.R.R.R.",
"R.R.R.R.R.R.R.R.R.R.R.R.R.R.R.R.R.R.R.R.R.R.R.R.R.R.R.% % 2 2 # # v.R.R.R.R.R.R.R.R.R.R.R.R.R.R.R.R.",
"R.R.R.R.R.R.R.R.R.R.R.R.R.R.R.R.R.R.R.R.R.R.R.R.R.R.R.    < 2 X   R.R.R.R.R.R.R.R.R.R.R.R.R.R.R.R.R."
};
