/* XPM */
static char *result[] = {
/* columns rows colors chars-per-pixel */
"50 50 190 2 ",
"   c #000203",
".  c #0B0908",
"X  c #150706",
"o  c #160C0A",
"O  c #151104",
"+  c #1B140E",
"@  c #161108",
"#  c #1E1913",
"$  c #171616",
"%  c #201704",
"&  c #2A1E04",
"*  c #261D06",
"=  c #281D15",
"-  c #2A2009",
";  c #2D271E",
":  c #3A2A18",
">  c #332404",
",  c #202223",
"<  c #2E3030",
"1  c #3A3331",
"2  c #3D393D",
"3  c #591410",
"4  c #5C1C15",
"5  c #751A14",
"6  c #7D1A15",
"7  c #781F1A",
"8  c #6E1913",
"9  c #622018",
"0  c #7B2413",
"q  c #75231B",
"w  c #4F3C30",
"e  c #73372A",
"r  c #7A5506",
"t  c #5A4031",
"y  c #51403B",
"u  c #63412E",
"i  c #664531",
"p  c #6D4B35",
"a  c #66483B",
"s  c #744934",
"d  c #775139",
"f  c #78523B",
"g  c #6C3F52",
"h  c #41404A",
"j  c #515056",
"k  c #6C5644",
"l  c #7A5C45",
"z  c #655A55",
"x  c #484C60",
"c  c #615576",
"v  c #644C66",
"b  c #5D607E",
"n  c #821A16",
"m  c #8A1A17",
"M  c #921B17",
"N  c #961A18",
"B  c #872616",
"V  c #962117",
"C  c #992516",
"Z  c #9E2B1A",
"A  c #9A2816",
"S  c #823111",
"D  c #8F3C18",
"F  c #963316",
"G  c #A4351A",
"H  c #902A22",
"J  c #893929",
"K  c #9D382B",
"L  c #863631",
"P  c #A93F32",
"I  c #865D06",
"U  c #98550B",
"Y  c #954319",
"T  c #A35D0B",
"R  c #936606",
"E  c #9D6C06",
"W  c #9B6C0A",
"Q  c #8D630D",
"!  c #A26909",
"~  c #AA6E0C",
"^  c #A7670B",
"/  c #A77306",
"(  c #A87406",
")  c #AB7509",
"_  c #AE790A",
"`  c #A0700B",
"'  c #B47E0D",
"]  c #AD7C16",
"[  c #80573E",
"{  c #82583F",
"}  c #804733",
"|  c #AB4133",
" . c #A47F30",
".. c #C97C20",
"X. c #8F4540",
"o. c #895E43",
"O. c #875F44",
"+. c #9B5854",
"@. c #A45940",
"#. c #9C6A4A",
"$. c #936648",
"%. c #826654",
"&. c #9D7B5E",
"*. c #A6674A",
"=. c #AA7351",
"-. c #A87858",
";. c #BA7E59",
":. c #B37A57",
">. c #8C7465",
",. c #B7810F",
"<. c #B78315",
"1. c #B28425",
"2. c #B78825",
"3. c #B98A27",
"4. c #BF902F",
"5. c #B88D35",
"6. c #BB9137",
"7. c #C5831F",
"8. c #C48E1A",
"9. c #CD941A",
"0. c #D1971C",
"q. c #D49A1E",
"w. c #C58120",
"e. c #CC8120",
"r. c #CB8A20",
"t. c #D38E21",
"y. c #CF9021",
"u. c #D59C20",
"i. c #D89D20",
"p. c #D59222",
"a. c #DEA323",
"s. c #DEA833",
"d. c #E3AF3F",
"f. c #BB835D",
"g. c #B6937D",
"h. c #A88465",
"j. c #C2845E",
"k. c #C0994A",
"l. c #DCAD48",
"z. c #E4B44C",
"x. c #C68B65",
"c. c #D28E65",
"v. c #CB9963",
"b. c #D69166",
"n. c #D99569",
"m. c #DA986C",
"M. c #D6956A",
"N. c #CD9D74",
"B. c #D39E73",
"V. c #DBA578",
"C. c #DFA97C",
"Z. c #D5A377",
"A. c #D6A36E",
"S. c #E5AC7D",
"D. c #E3AD76",
"F. c #5A6997",
"G. c #5A6C9C",
"H. c #5D6383",
"J. c #6E7B9F",
"K. c #5A6FA1",
"L. c #5A73A7",
"P. c #5A78B0",
"I. c #6B7DA7",
"U. c #6E87B3",
"Y. c #969594",
"T. c #BA9E96",
"R. c #B59781",
"E. c #BEB492",
"W. c #9BA3B1",
"Q. c #A4A3A3",
"!. c #B1A1A0",
"~. c #B4B6AE",
"^. c #CCA58A",
"/. c #E5AF80",
"(. c #E7B182",
"). c #EBB585",
"_. c #C3B8B1",
"`. c #BFC2BE",
"'. c #CCC1A9",
"]. c #BFBDC7",
"[. c #BFC0C3",
"{. c #C3C3C1",
"}. c #C5C8C0",
"|. c #CECCCC",
" X c #C1C7D8",
".X c #D4D1CB",
"XX c #E9DCC1",
"oX c gray88",
"OX c white",
"+X c None",
/* pixels */
"+X+X+X+X+X+X+X+X+X+X+X+X+X+X+X+X+X+X+X+X+X1.( a.a.' ( 9.a.a.a.' +X+X+X+X+X+X+X+X+X+X+X+X+X+X+X+X+X+X",
"+X+X+X+X+X+X+X+X+X+X+X+X+X+X+X+X+X+X+X+X+X2._ a.i.,.) q.a.a.i.' +X+X+X+X+X+X+X+X+X+X+X+X+X+X+X+X+X+X",
"+X+X+X+X+X+X+X+X+X+X+X+X+X+X+X+X+X+X+Xk.5.p.q.a.a.q.q.a.a.<.' 2.6.l.z.+X+X+X+X+X+X+X+X+X+X+X+X+X+X+X",
"+X+X+X+X+X+X+X+X+X+X+X+X+X+X+X+X+X+X+X1./ i.a.i.i.a.a.a.a.' _ _ ' q.a.+X+X+X+X+X+X+X+X+X+X+X+X+X+X+X",
"+X+X+X+X+X+X+X+X+X+X+X+X+X+X+X+X+X+.J ` ( i.a._ _ q.a.a.a.i.i.i.i.a.a.3.1.+X+X+X+X+X+X+X+X+X+X+X+X+X",
"+X+X+X+X+X+X+X+X+X+X+X+X+X+X+X+X+XX.0 ! ( i.a./ ) q.a.a.a.a.a.a.a.a.a.' ) +X+X+X+X+X+X+X+X+X+X+X+X+X",
"+X+X+X+X+X+X+X+X+X5._ i.a.2.1.L L 7 6 V C ) _ i.q.,._ q.a.a.a.a.a.' ) 9.a.2.1.+X+X+X+X+X+X+X+X+X+X+X",
"+X+X+X+X+X+X+X+X+X5._ i.a._ / 5 5 5 5 M N ! / a.a.' ( 0.a.a.a.a.a.' ( q.a._ / +X+X+X+X+X+X+X+X+X+X+X",
"+X+X+X+X+X+X+X/ _ 0.a.a.a.a.a.) / A N N N N N a.a.a.a.a.a.a.a.a.a.a.a.a.a.' ` +X+X+X+X+X+X+X+X+X+X+X",
"+X+X+X+X+X+X+X] <.u.i.a.a.a.a.) / F M M N M N i.u.a.a.a.a.a.a.a.a.a.a.a.a.' _ +X+X+X+X+X+X+X+X+X+X+X",
"+X+X+X+X+X+X+X+X+X5.<.i.a.a.a.q.0.~ U B 6 6 6 G G p.a.a.a.a.a.a.a.a.a.a.a.q.q.r.6.+X+X+X+X+X+X+X+X+X",
"+X+X+X+X+X+X+X+X+X1.W 9.a.q.q.a.a.' ~ S 0 5 5 N C ..p.i.i.a.a.a.a.a.a.a.i.a.a.,.] +X+X+X+X+X+X+X+X+X",
"+X+X+X+X+X+X+X+X+X+ & E ) _ _ a.a.i.0.~ ! 0 5 N N Z Z ^ ' i.a.a.a.a.a.,._ q.a.' ] +X+X+X+X+X+X+X+X+X",
"+X+X+X+X+X+X+X+X+X  O R / / / a.a.a.i._ / 0 5 N N N N T / u.a.a.a.a.a.,.) u.a.' ] +X+X+X+X+X+X+X+X+X",
"+X+X+X+X+X+X+X+X+X+X+X< O R / _ ' q.a.i.u.~ E 6 n M N C C Z Z Z G ^ _ 9.q.,._ ' +X+X+X+X+X+X+X+X+X+X",
"+X+X+X+X+X+X+X+X+X+X+X,   R / / ) q.a.a.a._ ~ 5 5 M N N N N N N M ^ / 0.a.' / <.+X+X+X+X+X+X+X+X+X+X",
"+X+X+X+X+X+X+X+X+X+X+X,   * & & > W ' ' ,.9.9.7.7.7...F n N N N N A F D D S S 6 +X+X+X+X+X+X+X+X+X+X",
"+X+X+X+X+X+X+X+X+X+X+X< $     . o Q ) ~ E q.a.i.q.a.a.Y 0 M V N N N N n 5 6 0 6 +X+X+X+X+X+X+X+X+X+X",
"+X+X+X+X+X+X+X+X+X+X+X+X+X$   o.$.v.v.: + ` ' _ ,.q.a.0.r.^ ^ S 6 M N n 5 6 6 6 6 +X+X+X+X+X+X+X+X+X",
"+X+X+X+X+X+X+X+X+X+X+X+X+X,   =.=.C.N.+   R ( / _ q.a.a.a._ / S 5 M N n 5 6 6 n 6 +X+X+X+X+X+X+X+X+X",
"+X+X+X+X+X+X+X+X+X+X+X+X+X+X+XV.C.(.N.#   '.XX( / ' ,.' ' 9.0.e.7.7...7.w.6 6 6 6 +X+X+X+X+X+X+X+X+X",
"+X+X+X+X+X+X+X+X+X+X+X+X+X+X+X).).).N.#   oXOX( / / / ( ( i.a.a.a.a.a.a.a.a.a.,.] +X+X+X+X+X+X+X+X+X",
"+X+X+X+X+X+X+X+X+X+X+X+X+X+X+Xm.m.(.(.Z.N.%.l D.A.: O I / _ _ _ ' q.a.a.a.<.) 9.i.d.d.+X+X+X+X+X+X+X",
"+X+X+X+X+X+X+X+X+X+X+X+X+X+X+Xb.n.S.).).).f p ).C.;   r / / / ( ) q.a.a.a.' ( q.a.a.a.+X+X+X+X+X+X+X",
"+X+X+X+X+X+X+X+X+X+X+X+X+X+X+X{ o.Z.).).).N.N.).(.$.[ : & > & I ) ' ' q.a.q.9.<.' ' <.+X+X+X+X+X+X+X",
"+X+X+X+X+X+X+X+X+X+X+X+X+X+X+Xi p Z.(.(.(.(.(.).(.f.=.; .     r E E E 8.y.u.u.<.] ] ] +X+X+X+X+X+X+X",
"+X+X+X+X+X+X+X+X+X+X+X+X+X+X+X+X+X:.f.b.m.m.m.).).C.C.-.o.o   O % % % * - - - +X+X+X+X+X+X+X+X+X+X+X",
"+X+X+X+X+X+X+X+X+X+X+X+X+X+X+X+X+X=.:.b.b.b.b.).).).).f.=.@                   +X+X+X+X+X+X+X+X+X+X+X",
"+X+X+X+X+X+X+X+X+X+X+X+X+X+X+X+X+X+X+X;.;.o.{ f.f.f.f.{ d 4 3 X           +X+X+X+X+X+X+X+X+X+X+X+X+X",
"+X+X+X+X+X+X+X+X+X+X+X+X+X+X+X+X+X+X+X=.=.p i =.=.=.=.d i 7 5 X           +X+X+X+X+X+X+X+X+X+X+X+X+X",
"+X+X+X+X+X+X+X+X+X+X+X+X+X+X+X+X+X+X+X+X+X+X+XS.V.O.d $.#.p e 9 3 X   +X+X+X+X+X+X+X+X+X+X+X+X+X+X+X",
"+X+X+X+X+X+X+X+X+X+X+X+X+X+X+X+X+X+X+X+X+X+X+X).(.f i $.=.p i q 5 X   +X+X+X+X+X+X+X+X+X+X+X+X+X+X+X",
"+X+X+X+X+X+X+X+X+X+X+X+X+X+X+X+X+X+X+X+X+X5 5 P P H B *.=.;.;.J 7 !.].+X+X+X+X+X+X+X+X+X+X+X+X+X+X+X",
"+X+X+X+X+X+X+X+X+X+X+X+X+X+X+X+X+X+X+X+X+X6 6 N N N N @.*.c.b.J H +X+X+X+X+X+X+X+X+X+X+X+X+X+X+X+X+X",
"+X+X+X+X+X+X+X+X+X+X+X+X+X+X+X+X+X+X+X/ / B m N N N N K K :.;.} e R.^.+X+X+X+X+X+X+X+X+X+X+X+X+X+X+X",
"+X+X+X+X+X+X+X+X+X+X+X+X+X+X+X+X+X+X+X/ / C N N N N N N N *.=.d p #.-.+X+X+X+X+X+X+X+X+X+X+X+X+X+X+X",
"+X+X+X+X+X+X+X+X+X+X+X+X+X+X+X+X+X+X+XS S M N N N N N n n s f =.;.B.V.f.=.+X+X+X+X+X+X+X+X+X+X+X+X+X",
"+X+X+X+X+X+X+X+X+X+X+X+X+X+X+X+X+X+X+X5 5 N N N N N N 6 5 e i ;.n.(.).f.=.+X+X+X+X+X+X+X+X+X+X+X+X+X",
"+X+X+X+X+X+X+X+X+X+X+X+X+X+X+X+X+X+X+XU U V N n n n n g v w i x.S.(.).f.=.+X+X+X+X+X+X+X+X+X+X+X+X+X",
"+X+X+X+X+X+X+X+X+X+X+X+X+X+X+X+X+X+X+X( ( C N 5 5 5 5 c F.k i N.).).).j.=.+X+X+X+X+X+X+X+X+X+X+X+X+X",
"+X+X+X+X+X+X+X+X+X+X+X+X+X+X+X+X+X+X+XE.E.T.T.c c c c K.L.H.H.z k -.f.o.d +X+X+X+X+X+X+X+X+X+X+X+X+X",
"+X+X+X+X+X+X+X+X+X+X+X+X+X+X+X+X+X+X+X+X}.}.}.G.F.F.F.L.P.G.F.h 2 $.=.f i +X+X+X+X+X+X+X+X+X+X+X+X+X",
"+X+X+X+X+X+X+X+X+X+X+X+X+X+X+X+X+X+X+X+X+X+X+XW.W.I.L.K.K.x x w w f [ : = +X+X+X+X+X+X+X+X+X+X+X+X+X",
"+X+X+X+X+X+X+X+X+X+X+X+X+X+X+X+X+X+X+X+X+X+X+X}.].U.P.K.F.2 1 t i p i +   +X+X+X+X+X+X+X+X+X+X+X+X+X",
"+X+X+X+X+X+X+X+X+X+X+X+X+X+X+X+X+Xx.x.z z }..X}.~.U.F.F.F.[.|.%.i = % Y.{.+X+X+X+X+X+X+X+X+X+X+X+X+X",
"+X+X+X+X+X+X+X+X+X+X+X+X+X+X+X+Xp j.j.w 1 ~.}.}.[.I.F.F.F.+X+X>.w o   +X+X+X+X+X+X+X+X+X+X+X+X+X+X+X",
"+X+X+X+X+X+X+X+X+X+X+X+X+X+X+X+X+Xw t &.h.^.^.g.R.]. X X X+X+X.X_.Q.Q.+X+X+X+X+X+X+X+X+X+X+X+X+X+X+X",
"+X+X+X+X+X+X+X+X+X+X+X+X+X+X+X+X+X  # N.).n.b.=.:.+X+X+X+X+X+X+X+X+X+X+X+X+X+X+X+X+X+X+X+X+X+X+X+X+X",
"+X+X+X+X+X+X+X+X+X+X+X+X+X+X+X+X+X+X# k l p p =.:.+X+X+X+X+X+X+X+X+X+X+X+X+X+X+X+X+X+X+X+X+X+X+X+X+X",
"+X+X+X+X+X+X+X+X+X+X+X+X+X+X+X+X+X+X+X        +X+X+X+X+X+X+X+X+X+X+X+X+X+X+X+X+X+X+X+X+X+X+X+X+X+X+X"
};
