/* XPM */
static char *result[] = {
/* columns rows colors chars-per-pixel */
"50 50 175 2 ",
"   c #000203",
".  c #0B0504",
"X  c #0C0A09",
"o  c #090807",
"O  c #140F03",
"+  c #151104",
"@  c #1B140A",
"#  c #1E1A16",
"$  c #201704",
"%  c #2A1E04",
"&  c #241B08",
"*  c #261B14",
"=  c #2B1F17",
"-  c #2B2109",
";  c #362705",
":  c #2F261D",
">  c #202223",
",  c #3B2F24",
"<  c #3A3330",
"1  c #3C393D",
"2  c #4D120E",
"3  c #5C1511",
"4  c #681813",
"5  c #751A14",
"6  c #7C1A15",
"7  c #443006",
"8  c #7B2413",
"9  c #742018",
"0  c #7E241C",
"q  c #523929",
"w  c #583C2B",
"e  c #4E3E36",
"r  c #533F36",
"t  c #693B2A",
"y  c #753E2D",
"u  c #5D4333",
"i  c #68402E",
"p  c #664531",
"a  c #6E4B35",
"s  c #664B38",
"d  c #734C36",
"f  c #744F39",
"g  c #77513A",
"h  c #7B533B",
"j  c #464755",
"k  c #534F4B",
"l  c #755B45",
"z  c #64554C",
"x  c #66635E",
"c  c #5E5E77",
"v  c #654C63",
"b  c #615576",
"n  c #5D607E",
"m  c #821A16",
"M  c #8C1A17",
"N  c #971E17",
"B  c #961A18",
"V  c #981D18",
"C  c #83330F",
"Z  c #832215",
"A  c #87281A",
"S  c #972017",
"D  c #992616",
"F  c #9F2B1A",
"G  c #9A2D15",
"H  c #823011",
"J  c #8F3C18",
"K  c #9B3015",
"L  c #A4381A",
"P  c #862920",
"I  c #992620",
"U  c #9E3C2E",
"Y  c #A53C2F",
"T  c #895F06",
"R  c #9C5D0A",
"E  c #97520C",
"W  c #954B0D",
"Q  c #AF491C",
"!  c #9D6C06",
"~  c #956706",
"^  c #A4640B",
"/  c #A26808",
"(  c #A66E07",
")  c #A77306",
"_  c #A87306",
"`  c #A3720C",
"'  c #AB7609",
"]  c #AE790A",
"[  c #B37D0D",
"{  c #80573E",
"}  c #82583F",
"|  c #A64333",
" . c #835C42",
".. c #8A5E43",
"X. c #946447",
"o. c #99694B",
"O. c #A36E4D",
"+. c #A96E4E",
"@. c #A6704F",
"#. c #AB7351",
"$. c #AF7959",
"%. c #B27452",
"&. c #B47A56",
"*. c #BB7F59",
"=. c #B07F60",
"-. c #B7810F",
";. c #B8820F",
":. c #BB8410",
">. c #C5831F",
",. c #CC931B",
"<. c #D1971C",
"1. c #D49A1E",
"2. c #C58120",
"3. c #CC8120",
"4. c #CB8A20",
"5. c #D18B21",
"6. c #D69C20",
"7. c #D89D20",
"8. c #D59222",
"9. c #DEA323",
"0. c #AF8453",
"q. c #B5805B",
"w. c #BC845E",
"e. c #AB8668",
"r. c #B08865",
"t. c #BE9267",
"y. c #AD907D",
"u. c #B4937B",
"i. c #C4835D",
"p. c #CC8A62",
"a. c #D38F65",
"s. c #CB986F",
"d. c #D69166",
"f. c #DB996D",
"g. c #D9966A",
"h. c #CE9F75",
"j. c #DA9D72",
"k. c #D5A379",
"l. c #DBA679",
"z. c #DFA97C",
"x. c #D6A176",
"c. c #D9A46B",
"v. c #E2AA7C",
"b. c #E3AD76",
"n. c #58638B",
"m. c #5A6997",
"M. c #596C9B",
"N. c #596793",
"B. c #616F9A",
"V. c #5A6FA1",
"C. c #5B76AA",
"Z. c #5A73A6",
"A. c #5A78B0",
"S. c #6173A0",
"D. c #617DB1",
"F. c #A38B8E",
"G. c #B99D96",
"H. c #BDB092",
"J. c #919BAF",
"K. c #9DA5B1",
"L. c #ABB1B6",
"P. c #B1B7BA",
"I. c #B2B9BC",
"U. c #D0A688",
"Y. c #C9A185",
"T. c #E5AF81",
"R. c #E6B182",
"E. c #EBB484",
"W. c #EBBA8D",
"Q. c #EEBF95",
"!. c #D9C292",
"~. c #C5C8C0",
"^. c #E9DCC1",
"/. c white",
"(. c None",
/* pixels */
"(.(.(.(.(.(.(.(.(.(.(.(.(.(.(.(.(.(.(.9.9.9.9._ _ 1.9.-._ (.(.(.(.(.(.(.(.(.(.(.(.(.(.(.(.(.(.(.(.(.",
"(.(.(.(.(.(.(.(.(.(.(.(.(.(.(.(.(.(.(.1.7.9.9.[ [ 1.9.:.' (.(.(.(.(.(.(.(.(.(.(.(.(.(.(.(.(.(.(.(.(.",
"(.(.(.(.(.(.(.(.(.(.(.(.(.(.(.9.7.[ ' [ [ 1.9.1.1.9.9.1.1.] _ (.(.(.(.(.(.(.(.(.(.(.(.(.(.(.(.(.(.(.",
"(.(.(.(.(.(.(.(.(.(.(.(.(.(.(.9.9.-.] ] ] 9.9.9.9.9.1.9.9.] _ (.(.(.(.(.(.(.(.(.(.(.(.(.(.(.(.(.(.(.",
"(.(.(.(.(.(.(.(.(.(.(.(.(._ _ 9.9.1.9.1.7.9.9.9.7.-.] 1.9.] _ C 5 (.(.(.(.(.(.(.(.(.(.(.(.(.(.(.(.(.",
"(.(.(.(.(.(.(.(.(.(.(.(.(._ _ 9.9.9.9.9.9.9.9.9.9.[ ) <.9.] _ H 5 (.(.(.(.(.(.(.(.(.(.(.(.(.(.(.(.(.",
"(.(.(.(.(.(.(.(.(.(.(.) _ 1.9.' [ 1.9.9.9.9.9.] ] ,.7.;.] K D 6 5 5 5 R _ 1.9.;._ (.(.(.(.(.(.(.(.(.",
"(.(.(.(.(.(.(.(.(.(.(.) ) 7.9._ ' 1.9.9.9.9.9._ ] 1.9.-._ D N 6 5 5 5 R _ 1.9.[ _ (.(.(.(.(.(.(.(.(.",
"(.(.(.(.(.(.(.(.(.(.(.) _ 1.9.9.9.9.9.9.9.9.9.9.9.9.9.Y B B B B V ^ ) <.9.9.9.9.9.:.` (.(.(.(.(.(.(.",
"(.(.(.(.(.(.(.(.(.(.(.' ' 7.9.9.9.9.9.9.9.9.9.9.9.7.7.L B B B N D / ' <.9.9.9.9.1.:._ (.(.(.(.(.(.(.",
"(.(.(.(.(.(.(.(.(._ ] ,.1.9.9.9.9.9.9.9.9.9.9.9.7.Q L M 6 5 6 E / ,.<.9.9.9.9.:.[ (.(.(.(.(.(.(.(.(.",
"(.(.(.(.(.(.(.(.(._ ] 7.9.1.9.9.9.9.9.9.9.9.1.1.5.L B 6 5 8 8 ^ [ 1.9.9.1.1.9.' ~ (.(.(.(.(.(.(.(.(.",
"(.(.(.(.(.(.(.(.(._ ] 7.9.[ ] 9.9.9.9.9.9.[ ] F F V N 6 5 R / ,.1.9.9.;.] ] [ ; + (.(.(.(.(.(.(.(.(.",
"(.(.(.(.(.(.(.(.(._ ] 7.9.] _ 9.9.9.9.9.9.] ) B B B B m 5 / ) ,.9.9.9.-.) ) _ %   (.(.(.(.(.(.(.(.(.",
"(.(.(.(.(.(.(.(.(.(.9.] ] 1.1.] ] L F F F D D B B m 5 E / 1.1.9.9.-.] _ ) ; + (.(.(.(.(.(.(.(.(.(.(.",
"(.(.(.(.(.(.(.(.(.(.9._ _ 7.9._ ( F V V B B B B B 5 5 R ) 1.9.9.7.[ ) ) ) @   (.(.(.(.(.(.(.(.(.(.(.",
"(.(.(.(.(.(.(.(.(.(.(.H H J J G G V B B V m 6 3.3.>.2.,.<.;.[ [ ] 7 % % % o   (.(.(.(.(.(.(.(.(.(.(.",
"(.(.(.(.(.(.(.(.(.(.B 6 9 5 5 B B B B V S m 8 9.9.7.7.7.9.` ! ' ` - X         (.(.(.(.(.(.(.(.(.(.(.",
"(.(.(.(.(.(.(.(.(.B B 6 5 8 5 B B m Z R ^ >.,.9.9.:.[ [ [ ; $ 0.c.o...*   (.(.(.(.(.(.(.(.(.(.(.(.(.",
"(.(.(.(.(.(.(.(.(._ B V 6 8 5 B B 6 8 / _ 7.9.9.7.[ _ _ ) +   r.R.&.#.=   (.(.(.(.(.(.(.(.(.(.(.(.(.",
"(.(.(.(.(.(.(.(.(._ ] ,.1.>.>.3.>.>.>.<.<.;.[ [ -.' ) !.^.#   r.E.z.l.(.(.(.(.(.(.(.(.(.(.(.(.(.(.(.",
"(.(.(.(.(.(.(.(.(._ ] 1.9.9.9.9.9.9.9.9.9.] ) ) _ ) ) ^./.>   r.E.E.E.(.(.(.(.(.(.(.(.(.(.(.(.(.(.(.",
"(.(.(.(.(.(.(.9.9.9.1.[ ] 7.9.9.1.;.[ ] ] _ ) + @ t.v.W.Q.k.h.R.E.f.g.(.(.(.(.(.(.(.(.(.(.(.(.(.(.(.",
"(.(.(.(.(.(.(.9.9.9.1.] ' 7.9.9.9.[ ( ) ) ) )   X t.E.E.E.E.E.E.E.f.d.(.(.(.(.(.(.(.(.(.(.(.(.(.(.(.",
"(.(.(.(.(.(.(.[ -.[ ;.,.1.9.9.[ -._ ~ ; % - - h ..l.E.E.E.E.E.E.T.o.} (.(.(.(.(.(.(.(.(.(.(.(.(.(.(.",
"(.(.(.(.(.(.(._ _ _ ] ,.<.<.6.! ! ! T +   o X %.q.z.E.E.E.E.E.E.z. .p (.(.(.(.(.(.(.(.(.(.(.(.(.(.(.",
"(.(.(.(.(.(.(.(.(.(.(.- - - - @ $ $ @ .   g ..z.z.E.E.c.g.g.f.t.q.(.(.(.(.(.(.(.(.(.(.(.(.(.(.(.(.(.",
"(.(.(.(.(.(.(.(.(.(.(.                    X.#.E.E.E.E.f.d.d.d.%.#.(.(.(.(.(.(.(.(.(.(.(.(.(.(.(.(.(.",
"(.(.(.(.(.(.(.(.(.(.(.(.(.          . 2 3 d f w.w.w.r.X. .%.&.(.(.(.(.(.(.(.(.(.(.(.(.(.(.(.(.(.(.(.",
"(.(.(.(.(.(.(.(.(.(.(.(.(.          . 4 5 i i #.#.#.#.g i O.(.(.(.(.(.(.(.(.(.(.(.(.(.(.(.(.(.(.(.(.",
"(.(.(.(.(.(.(.(.(.(.(.(.(.(.(.  . 2 4 t t o.o.f h s.v.(.(.(.(.(.(.(.(.(.(.(.(.(.(.(.(.(.(.(.(.(.(.(.",
"(.(.(.(.(.(.(.(.(.(.(.(.(.(.(.  . 3 9 i p O.#.i d h.E.(.(.(.(.(.(.(.(.(.(.(.(.(.(.(.(.(.(.(.(.(.(.(.",
"(.(.(.(.(.(.(.(.(.(.(.(.(.(.(.(.(.5 0 %.w.#.#.P P Y Y P 5 (.(.(.(.(.(.(.(.(.(.(.(.(.(.(.(.(.(.(.(.(.",
"(.(.(.(.(.(.(.(.(.(.(.(.(.(.(.(.(.5 0 i.a.%.+.B B B B m 5 (.(.(.(.(.(.(.(.(.(.(.(.(.(.(.(.(.(.(.(.(.",
"(.(.(.(.(.(.(.(.(.(.(.(.(.(.(.#.O.y d %.*.| U B B B B B M ^ _ (.(.(.(.(.(.(.(.(.(.(.(.(.(.(.(.(.(.(.",
"(.(.(.(.(.(.(.(.(.(.(.(.(.(.(.#.+.d a O.#.D B B B B B B B / ) (.(.(.(.(.(.(.(.(.(.(.(.(.(.(.(.(.(.(.",
"(.(.(.(.(.(.(.(.(.(.(.(.(.#.#.l.h.i.%.h l 6 6 B B B B B B A H (.(.(.(.(.(.(.(.(.(.(.(.(.(.(.(.(.(.(.",
"(.(.(.(.(.(.(.(.(.(.(.(.(.#.#.E.E.f.p.f p 5 5 B B B B B B 5 5 (.(.(.(.(.(.(.(.(.(.(.(.(.(.(.(.(.(.(.",
"(.(.(.(.(.(.(.(.(.(.(.(.(.#.#.E.E.T.j.g p v v m m m m B B W E (.(.(.(.(.(.(.(.(.(.(.(.(.(.(.(.(.(.(.",
"(.(.(.(.(.(.(.(.(.(.(.(.(.#.#.E.E.E.l.h i n.N.5 6 5 5 M B / _ (.(.(.(.(.(.(.(.(.(.(.(.(.(.(.(.(.(.(.",
"(.(.(.(.(.(.(.(.(.(.(.(.(.g g w.q.l z c n.V.C.c b b b F.G.H.(.(.(.(.(.(.(.(.(.(.(.(.(.(.(.(.(.(.(.(.",
"(.(.(.(.(.(.(.(.(.(.(.(.(.p p #.O.e 1 n.m.C.A.m.m.m.m.L.(.(.(.(.(.(.(.(.(.(.(.(.(.(.(.(.(.(.(.(.(.(.",
"(.(.(.(.(.(.(.(.(.(.(.(.(.* * { h u u j j M.V.Z.C.J.K.I.(.(.(.(.(.(.(.(.(.(.(.(.(.(.(.(.(.(.(.(.(.(.",
"(.(.(.(.(.(.(.(.(.(.(.(.(.    p p p u < < n.m.A.D.I.~.(.(.(.(.(.(.(.(.(.(.(.(.(.(.(.(.(.(.(.(.(.(.(.",
"(.(.(.(.(.(.(.(.(.(.(.(.(.(.(.@ # w i (.(.m.m.M.S.I.~.~.~.x k $.p.h p (.(.(.(.(.(.(.(.(.(.(.(.(.(.(.",
"(.(.(.(.(.(.(.(.(.(.(.(.(.(.(.  o q p (.(.m.m.m.B.I.~.~.~.k < $.a.g p (.(.(.(.(.(.(.(.(.(.(.(.(.(.(.",
"(.(.(.(.(.(.(.(.(.(.(.(.(.(.(.(.(.(.(.(.(.(.(.(.(.y.u.Y.U.e.e.s q (.(.(.(.(.(.(.(.(.(.(.(.(.(.(.(.(.",
"(.(.(.(.(.(.(.(.(.(.(.(.(.(.(.(.(.(.(.(.(.(.(.(.(.#.#.p.a.E.E.,   (.(.(.(.(.(.(.(.(.(.(.(.(.(.(.(.(.",
"(.(.(.(.(.(.(.(.(.(.(.(.(.(.(.(.(.(.(.(.(.(.(.(.(.(.#.g s l l : (.(.(.(.(.(.(.(.(.(.(.(.(.(.(.(.(.(.",
"(.(.(.(.(.(.(.(.(.(.(.(.(.(.(.(.(.(.(.(.(.(.(.(.(.(.(.        (.(.(.(.(.(.(.(.(.(.(.(.(.(.(.(.(.(.(."
};
