/* XPM */
static char *_a1b86866df248ccedc3cec3d9859109XiSkXDak2vGftd1y[] = {
/* columns rows colors chars-per-pixel */
"32 32 3 1 ",
"  c None",
". c black",
"X c #12A758",
/* pixels */
"            ........            ",
"         ....XXXXXX....         ",
"       ...XXXXXXXXXXXX...       ",
"      ..XXXXX......XXXXX..      ",
"     ..XXX............XXX..     ",
"    ..XXX....XXXXXX....XXX..    ",
"   ..XXX...XXXXXXXXXX...XXX..   ",
"  ..XXX...XXX......XXX...XXX..  ",
"  .XXX...XXX ...... XXX...XXX.  ",
" ..XX...XXX XX    XX XXX...XX.. ",
" .XX...XXX XXX.  .XXX XXX...XX. ",
" .XX..XXX XXX..  ..XXX XXX..XX. ",
"..XX..XX XXX  XXXX  XXX XX..XX..",
".XXX..X..XX.  XXXX  .XX..XX..XX.",
".XX..XX.. ..XXXXXXXX.. ..XX..XX.",
".XX..XX..   XXX..XXX   ..XX..XX.",
".XX..XX..   XXX..XXX   ..XX..XX.",
".XX..XX.. ..XXXXXXXX.. ..XX..XX.",
".XXX..X..XX.  XXXX  .XX..XX..XX.",
"..XX..XX XXX  XXXX  XXX XX..XX..",
" .XX..XXX XXX..  ..XXX XXX..XX. ",
" .XX...XXX XXX.  .XXX XXX...XX. ",
" ..XX...XXX XX    XX XXX...XX.. ",
"  .XXX...XXX ...... XXX...XXX.  ",
"  ..XXX...XXX......XXX...XXX..  ",
"   ..XXX...XXXXXXXXXX...XXX..   ",
"    ..XXX....XXXXXX....XXX..    ",
"     ..XXX............XXX..     ",
"      ..XXXXX......XXXXX..      ",
"       ...XXXXXXXXXXXX...       ",
"         ....XXXXXX....         ",
"            ........            "
};
