/* XPM */
static char *_1d67d4133eb44e796ed8e711b95d951d8vYH55vtEfMcfrn[] = {
/* columns rows colors chars-per-pixel */
"50 50 3 1 ",
"  c None",
". c black",
"X c #12A758",
/* pixels */
"                   ............                   ",
"                   ............                   ",
"              ......XXXXXXXXXX......              ",
"           .....XXXXXXXXXXXXXXXXXX.....           ",
"           .....XXXXXXXXXXXXXXXXXX.....           ",
"         ...XXXXXXXX..........XXXXXXX....         ",
"        ...XXXXX..................XXXXX...        ",
"        ...XXXXX..................XXXXX...        ",
"      ...XXXXX......XXXXXXXXXX......XXXXX...      ",
"     ...XXXX.....XXXXXXXXXXXXXXXX....XXXXX...     ",
"     ...XXXX.....XXXXXXXXXXXXXXXX....XXXXX...     ",
"   ...XXXXX.....XXXX..........XXXX.....XXXXX...   ",
"   ...XXXXX.....XXXX..........XXXX.....XXXXX...   ",
"   ..XXXX.....XXXXX .......... XXXXX.....XXXX..   ",
"  ...XXX....XXXXX  XXX      XXX  XXXX.....XXX...  ",
"  ...XXX....XXXXX  XXX      XXX  XXXX.....XXX...  ",
"  .XXX.....XXXXX XXXXX.    .XXXXX XXXXX.....XXX.  ",
"  .XXX...XXXXX  XXXX...    ...XXXX  XXXXX...XXX.  ",
"  .XXX...XXXXX  XXXX...    ...XXXX  XXXXX...XXX.  ",
"...XXX...XXX  XXXXX   XXXXXX   XXXXX XXXX...XXX...",
"..XXXX...XX...XXX..   XXXXXX   ..XXX...XXX...XXX..",
"..XXXX...XX...XXX..   XXXXXX   ..XXX...XXX...XXX..",
"..XXX...XXX...  ...XXXXXXXXXXXX...  ...XXX...XXX..",
"..XXX...XXX...     XXXX....XXXX     ...XXX...XXX..",
"..XXX...XXX...     XXXX....XXXX     ...XXX...XXX..",
"..XXX...XXX...     XXXX....XXXX     ...XXX...XXX..",
"..XXX...XXX...     XXXX....XXXX     ...XXX...XXX..",
"..XXX...XXX...  ...XXXXXXXXXXXX...  ...XXX...XXX..",
"..XXXX...XX...XXX..   XXXXXX   ..XXX...XXX...XXX..",
"..XXXX...XX...XXX..   XXXXXX   ..XXX...XXX...XXX..",
"...XXX...XXX  XXXXX   XXXXXX   XXXXX XXXX...XXX...",
"  .XXX...XXXXX  XXXX...    ...XXXX  XXXXX...XXX.  ",
"  .XXX...XXXXX  XXXX...    ...XXXX  XXXXX...XXX.  ",
"  .XXX.....XXXXX XXXXX.    .XXXXX XXXXX.....XXX.  ",
"  ...XXX....XXXXX  XXX      XXX  XXXX.....XXX...  ",
"  ...XXX....XXXXX  XXX      XXX  XXXX.....XXX...  ",
"   ..XXXX.....XXXXX .......... XXXXX.....XXXX..   ",
"   ..XXXX.....XXXXX .......... XXXXX.....XXXX..   ",
"   ...XXXXX.....XXXX..........XXXX.....XXXXX...   ",
"     ...XXXX.....XXXXXXXXXXXXXXXX....XXXXX...     ",
"     ...XXXX.....XXXXXXXXXXXXXXXX....XXXXX...     ",
"      ...XXXXX......XXXXXXXXXX......XXXXX...      ",
"        ...XXXXX..................XXXXX...        ",
"        ...XXXXX..................XXXXX...        ",
"         ...XXXXXXXX..........XXXXXXX....         ",
"           .....XXXXXXXXXXXXXXXXXX.....           ",
"           .....XXXXXXXXXXXXXXXXXX.....           ",
"              ......XXXXXXXXXX......              ",
"                   ............                   ",
"                   ............                   "
};
