/* XPM */
static char *dbd5de223ac64b05d5a9ef0d1bfc81c4HMDbRUDjSZlTF6dR[] = {
/* columns rows colors chars-per-pixel */
"50 50 37 1 ",
"  c None",
". c black",
"X c #000100",
"o c #000101",
"O c #000201",
"+ c #000302",
"@ c #010804",
"# c #02120A",
"$ c #031A0D",
"% c #031D0F",
"& c #031F10",
"* c #042111",
"= c #042212",
"- c #042313",
"; c #05331B",
": c #073F21",
"> c #084D29",
", c #09512B",
"< c #09542C",
"1 c #0A582F",
"2 c #0A5C30",
"3 c #0A5F32",
"4 c #0B6233",
"5 c #0B6334",
"6 c #0B6435",
"7 c #0B6636",
"8 c #0F8C4A",
"9 c #0F8D4A",
"0 c #0F8E4B",
"q c #10924D",
"w c #109750",
"e c #119B52",
"r c #11A054",
"t c #12A457",
"y c #12A657",
"u c #12A658",
"i c #12A758",
/* pixels */
"                   ............                   ",
"                   ............                   ",
"                   ............                   ",
"                   ............                   ",
"                   ............                   ",
"                   ............                   ",
"                   ............                   ",
"                   ............                   ",
"                   ............                   ",
"                   ............                   ",
"                   ............                   ",
"                   ............                   ",
"                   ............                   ",
"                   ............                   ",
"                   ............                   ",
"                   ............                   ",
"                   ............                   ",
"                   ............                   ",
"                   ............                   ",
"                   ............                   ",
"                   ............                   ",
"                  ..............                  ",
"..................................................",
"..................................................",
"..................................................",
"..................................................",
"......;>>>>>>>>>>>>>>>>>>>>>>>>>>>>>>>>>>>>;......",
".....+6etiiiiiiiiiiiiiiiiiiiiiiiiiiiiiiiiie6+.....",
"......%,tttiiiiiiiiiiiiiiiiiiiiiiiiiiiiiir,%......",
".......*48iiiiiiiiiiiiiiiiiiiiiiiiiiiiii84*.......",
".........3tiiiiiiiiiiiiiiiiiiiiiiiiiiiit3.........",
" ........*,wiiiiiiiiiiiiiiiiiiiiiiiiiiw,*........ ",
"  ........%68iiiiiiiiiiiiiiiiiiiiiiii06$........  ",
"   ........@1iiiiiiiiiiiiiiiiiiiiiiii1@+.......   ",
"    ........-<qiiiiiiiiiiiiiiiiiiiiq<-........    ",
"     ........#7qiiiiiiiiiiiiiiiiiiq7#........     ",
"      .......+#<iiiiiiiiiiiiiiiiii<#+.......      ",
"       ........-18iiiiiiiiiiiitt01-........       ",
"        ........@6eiiiiiiiiiiiie6@........        ",
"         ........$,tiiiiiiiiiit,%........         ",
"          ........*48tiiiiiii84*........          ",
"           .........4ttiiiitt4.........           ",
"            ........%,eiiiie,%........            ",
"             ........%58ii84%........             ",
"              .......++1ii1+........              ",
"               .......+->;-........               ",
"                ..................                ",
"                 ................                 ",
"                  ..............                  ",
"                   ............                   "
};
