/* XPM */
static char *feb2284e2cb54fa2af154b7558b0d897hYtXJE7hoV0SFL9x[] = {
/* columns rows colors chars-per-pixel */
"32 32 3 1 ",
"  c None",
". c black",
"X c #12A758",
/* pixels */
"              ......            ",
"              .......           ",
"              ........          ",
"              .........         ",
"              ...X......        ",
"              ...XX......       ",
"              ...XXX......      ",
"              ...XXXX......     ",
"              ...XXXXX......    ",
"              ...XXXXXX......   ",
"              ...XXXXXXX......  ",
"              ...XXXXXXXX...... ",
".................XXXXXXXXX......",
".................XXXXXXXXXX.....",
".................XXXXXXXXXXX....",
".................XXXXXXXXXXXX...",
".................XXXXXXXXXXXX...",
".................XXXXXXXXXXX....",
".................XXXXXXXXXX.....",
".................XXXXXXXXX......",
"              ...XXXXXXXX...... ",
"              ...XXXXXXX......  ",
"              ...XXXXXX......   ",
"              ...XXXXX......    ",
"              ...XXXX......     ",
"              ...XXX......      ",
"              ...XX......       ",
"              ...X......        ",
"              .........         ",
"              ........          ",
"              .......           ",
"              ......            "
};
