/* XPM */
static char *_0553df7c5d249b5b70903ca4209c10bSoLYWXdg4SBKqwN4[] = {
/* columns rows colors chars-per-pixel */
"32 32 3 1 ",
"  c None",
". c black",
"X c #12A758",
/* pixels */
"            ......              ",
"           .......              ",
"          ........              ",
"         .........              ",
"        ......X...              ",
"       ......XX...              ",
"      ......XXX...              ",
"     ......XXXX...              ",
"    ......XXXXX...              ",
"   ......XXXXXX...              ",
"  ......XXXXXXX...              ",
" ......XXXXXXXX...              ",
"......XXXXXXXXX.................",
".....XXXXXXXXXX.................",
"....XXXXXXXXXXX.................",
"...XXXXXXXXXXXX.................",
"...XXXXXXXXXXXX.................",
"....XXXXXXXXXXX.................",
".....XXXXXXXXXX.................",
"......XXXXXXXXX.................",
" ......XXXXXXXX...              ",
"  ......XXXXXXX...              ",
"   ......XXXXXX...              ",
"    ......XXXXX...              ",
"     ......XXXX...              ",
"      ......XXX...              ",
"       ......XX...              ",
"        ......X...              ",
"         .........              ",
"          ........              ",
"           .......              ",
"            ......              "
};
