/* XPM */
static char *f249be428f3245edffb6b49f204e8033mMMmQYe7KLvx1htv[] = {
/* columns rows colors chars-per-pixel */
"32 32 3 1 ",
"  c None",
". c black",
"X c #12A758",
/* pixels */
"            ........            ",
"           ..........           ",
"          ............          ",
"         ......XX......         ",
"        ......XXXX......        ",
"       ......XXXXXX......       ",
"      ......XXXXXXXX......      ",
"     ......XXXXXXXXXX......     ",
"    ......XXXXXXXXXXXX......    ",
"   ......XXXXXXXXXXXXXX......   ",
"  ......XXXXXXXXXXXXXXXX......  ",
" ......XXXXXXXXXXXXXXXXXX...... ",
"......XXXXXXXXXXXXXXXXXXXX......",
".....XXXXXXXXXXXXXXXXXXXXXX.....",
"....XXXXXXXXXXXXXXXXXXXXXXXX....",
"................................",
"................................",
"................................",
"            ........            ",
"            ........            ",
"            ........            ",
"            ........            ",
"            ........            ",
"            ........            ",
"            ........            ",
"            ........            ",
"            ........            ",
"            ........            ",
"            ........            ",
"            ........            ",
"            ........            ",
"            ........            "
};
