/* XPM */
static char *d3ec45c7cb20411881a6d8b7ee51a984IO6N3WelYlraSQi6[] = {
/* columns rows colors chars-per-pixel */
"32 32 3 1 ",
"  c None",
". c black",
"X c #12A758",
/* pixels */
"            ........            ",
"            ........            ",
"            ........            ",
"            ........            ",
"            ........            ",
"            ........            ",
"            ........            ",
"            ........            ",
"            ........            ",
"            ........            ",
"            ........            ",
"            ........            ",
"            ........            ",
"            ........            ",
"................................",
"................................",
"................................",
"....XXXXXXXXXXXXXXXXXXXXXXXX....",
".....XXXXXXXXXXXXXXXXXXXXXX.....",
"......XXXXXXXXXXXXXXXXXXXX......",
" ......XXXXXXXXXXXXXXXXXX...... ",
"  ......XXXXXXXXXXXXXXXX......  ",
"   ......XXXXXXXXXXXXXX......   ",
"    ......XXXXXXXXXXXX......    ",
"     ......XXXXXXXXXX......     ",
"      ......XXXXXXXX......      ",
"       ......XXXXXX......       ",
"        ......XXXX......        ",
"         ......XX......         ",
"          ............          ",
"           ..........           ",
"            ........            "
};
