/* XPM */
static char *b5b51889f1824d01be699bec4a6cb981kAaEZdYVCniUA2I1[] = {
/* columns rows colors chars-per-pixel */
"50 50 37 1 ",
"  c None",
". c black",
"X c #000100",
"o c #000101",
"O c #000201",
"+ c #000302",
"@ c #010804",
"# c #02120A",
"$ c #031A0D",
"% c #031D0F",
"& c #031F10",
"* c #042111",
"= c #042212",
"- c #042313",
"; c #05331B",
": c #073F21",
"> c #084D29",
", c #09512B",
"< c #09542C",
"1 c #0A582F",
"2 c #0A5C30",
"3 c #0A5F32",
"4 c #0B6233",
"5 c #0B6334",
"6 c #0B6435",
"7 c #0B6636",
"8 c #0F8C4A",
"9 c #0F8D4A",
"0 c #0F8E4B",
"q c #10924D",
"w c #109750",
"e c #119B52",
"r c #11A054",
"t c #12A457",
"y c #12A657",
"u c #12A658",
"i c #12A758",
/* pixels */
"                   .........                      ",
"                  ..........                      ",
"                 ...........                      ",
"                ............                      ",
"               .............                      ",
"              ........+.....                      ",
"             ........&5;....                      ",
"            ........*,e>....                      ",
"           .........4ri>....                      ",
"          ........*58ii>....                      ",
"         ........$,riii>....                      ",
"        ........@7wiiii>....                      ",
"       ........-28iiiii>....                      ",
"      ........#<iiiiiii>....                      ",
"     ........#7qiiiiiii>....                      ",
"    ........-<qiiiiiiii>....                      ",
"   ........@2iiiiiiiiii>....                      ",
"  ........%68iiiiiiiiii>....                      ",
" ........*>wiiiiiiiiiii>.....                     ",
".........3iiiiiiiiiiiii>..........................",
".......*48iiiiiiiiiiiii>..........................",
"......&,riiiiiiiiiiiiii>..........................",
"......4eiiiiiiiiiiiiiii>..........................",
"....*38iiiiiiiiiiiiiiii>..........................",
"....:iiiiiiiiiiiiiiiiii>..........................",
"....:iiiiiiiiiiiiiiiiii>..........................",
"....*38iiiiiiiiiiiiiiii>..........................",
"......7eiiiiiiiiiiiiiii>..........................",
"......%,eiiiiiiiiiiiiii>..........................",
".......&58iiiiiiiiiiiii>..........................",
".........3tiiiiiiiiiiii>..........................",
" ........*,wiiiiiiiiiii>.....                     ",
"  ........%78iiiiiiiiii>....                      ",
"   ........@1yiiiiiiiii>....                      ",
"    ........*<qiiiiiiii>....                      ",
"     ........#7qiiiiiii>....                      ",
"      .......+#<iiiiiii>....                      ",
"       ........-20iiiii>....                      ",
"        ........@7wiiii>....                      ",
"         ........$>yiii>....                      ",
"          ........-48ii>....                      ",
"           .........4ry>....                      ",
"            ........&,e>....                      ",
"             ........%5;....                      ",
"              ........+.....                      ",
"               .............                      ",
"                ............                      ",
"                 ...........                      ",
"                  ..........                      ",
"                   .........                      "
};
