/* XPM */
static char *result[] = {
/* columns rows colors chars-per-pixel */
"50 50 69 1 ",
"  c #503625",
". c #513725",
"X c #513726",
"o c #523726",
"O c #523826",
"+ c #533826",
"@ c #533827",
"# c #533927",
"$ c #543927",
"% c #553A27",
"& c #553A28",
"* c #563A28",
"= c #563B28",
"- c #573B28",
"; c #573C29",
": c #583C29",
"> c #583D29",
", c #593D29",
"< c #593D2A",
"1 c #5A3D2A",
"2 c #5A3E2A",
"3 c #5B3F2B",
"4 c #5C3F2B",
"5 c #5C402B",
"6 c #5D402B",
"7 c #5D402C",
"8 c #5E412C",
"9 c #5F412C",
"0 c #5F412D",
"q c #60422D",
"w c #60432D",
"e c #61432E",
"r c #62442E",
"t c #63452F",
"y c #64452F",
"u c #64462F",
"i c #654630",
"p c #654730",
"a c #664730",
"s c #664831",
"d c #674831",
"f c #684831",
"g c #684931",
"h c #684932",
"j c #694932",
"k c #694A32",
"l c #6A4A32",
"z c #6A4B33",
"x c #6B4B33",
"c c #6C4C33",
"v c #6C4C34",
"b c #6D4C34",
"n c #6D4D34",
"m c #6E4D34",
"M c #6E4E35",
"N c #6F4E35",
"B c #704F35",
"V c #704F36",
"C c #714F36",
"Z c #715036",
"A c #725036",
"S c #725136",
"D c #725137",
"F c #735137",
"G c #735237",
"H c #745237",
"J c #745238",
"K c #745338",
"L c #755338",
/* pixels */
"LLLLLLLLLLLLLLLLLLLLLLLLLLLLLLLLLLLLMr-&enLLLLLLLL",
"LLLLLLLLLLLLLLLLLLLLLLLLLLLLLLLLLLLLMr-&enLLLLLLLL",
"LLLLLLLLLLLLLLLLLLLLLLLLLLLLLLLLLLLLMr-&enLLLLLLLL",
"LLLLLLLLLLLLLLLLLLLLLLLLLLLLLLLLLLLLMr-&enLLLLLLLL",
"LLLLLLLLLLLLLLLLLLLLLLLLLLLLLLLLLLLLMr-&enLLLLLLLL",
"xxxxxxxxxxxnVGHCnxxxcNDLLLLLLLLLLFBbs8&$6pxxxxxxxx",
"qqqqqqqqqqqtzZSxuqqqegNLLLLLLLLLLVkt7:+O;5qqqqqqqq",
"$$$$$$$$$$$2uNVa3$$$*wxLLLLLLLLLLmt>@o. o@$$$$$$$$",
":::::::::::7dBZg8:::2tvLLLLLLLLLLNp5::::::::::::::",
"uuuuuuuuuuudvSFnguuuizBLLLLLLLLLLZcauuuuuuuuuuuuuu",
"BBBBBBBBBBBZDJJFZBBBBAGLLLLLLLLLLHDVBBBBBBBBBBBBBB",
"LLLLLLLLLLLLLLLLLLLLLLLLLLLLLLLLLLLLLLLLLLLLLLLLLL",
"LLLLLLLLLLLLLLLLLLLLLLLLLLLLLLLLLLLLLLLLLLLLLLLLLL",
"LLLLLLLLLLLLLLLLLLLLLLLLLLLLLLLLLLLLLLLLLLLLLLLLLL",
"LLLLLLLLLLLLLLLLLLLLLLLLLLLLLLLLLLLLLLLLLLLLLLLLLL",
"LLLLLLLLLLLLLLLLLLLLLLLLLLLLLLLLLLLLLLLLLLLLLLLLLL",
"LLLLLLLLLLLLLLLLLLLLLLLLLLLLLLLLLLLLLLLLLLLLLLLLLL",
"LLLLLLLLLLLLLLKGSAFHLLLLLLLLLLLLLLLLLLLLLLLLLLLLLL",
"LLLLLLLLLLLLLLFmjdcZLLLLLLLLLLLLLLLLLLLLLLLLLLLLLL",
"LLLLLLLLLLLLLLZhq5pmLLLLLLLLLLLLLLLLLLLLLLLLLLLLLL",
"FFFFFFFFFFFFFFmt:$0lFFFFHJLJHFFFFGHLLLLLLLLLLLJGFF",
"ddddddddddddddy5&O2eddddcVLZvgdddlNFLLLLLLLLLJBxdd",
"333333333333331=OX%:3334ucKni6333ekZLLLLLLLLLGxt33",
"..     ................X7jJl8+...,uBLLLLLLLLLFd4..",
"66<%.#;36666666666666667ibKma8666rlALLLLLLLLLHcu66",
"hhe<X=8ahhhhhhhhhhhhhhhjbZLZnkhhhxNGLLLLLLLLLJVchh",
"JJk8O<iZJJJJJJJJJJJJJJJJKLLLLJJJJKLLLLLLLLLLLLLKJJ",
"LLni6rlDLLLLLLLLLLLLLLLLLLLLLLLLLLLLLLLLLLLLLLLLLL",
"LLZvgxNHLLLLLLLLLLLLLLLLLLLLLLLLLLLLLLLLLLLLLLLLLL",
"LLJHFGJLLLLLLLLLLLLLLLLLLLLLLLLLLLLLLLLLLLLLLLLLLL",
"LLLLLLLLLLLLLLLLLLLLLLLLLLLLLLLLLLLLLLLLLLLLLLLLLL",
"LLLLLLLLLLLLLLLLLLLLLLLLLLLLLLLLLLLLLLLLLLLLLLLLLL",
"LLLLLLLLLLLLLLLLLLLLLLLLLLLLLLLLLLLLLLLLLLLLLLLLLL",
"LLLLLLLLLLLLLLLLLLLLLLLLLLLLLLLLLLLLLLLLLLLLLLLLLL",
"LLLLLLLLLLLLLLLLLLLLLLLLLLLLLLLLLLLLLLLLLLLLLLLLLL",
"LLLLLLLLLLLLLLLLLLLLLLLLLLLLLLLLLLLLLLLLLLLLLLLLLL",
"MMMMMMMMBSJLLLLLLJDBMMMMMMMMMMMMMMMMMMMMMMMMMMMMMM",
"rrrrrrrrdvDLLLLLLFndrrrrrrrrrrrrrrrrrrrrrrrrrrrrrr",
"--------7dZLLLLLLSg9------------------------------",
"&&&&&&&&5aVLLLLLLAf8&&&&&&&&&&&&&&&&$+..O$&&&&&&&&",
"eeeeeeeepcDLLLLLLFbaeeeeeeeeeeeeeeee8,@O:7eeeeeeee",
"nnnnnnnnNZHLLLLLLJANnnnnnnnnnnnnnnnng8&$7dnnnnnnnn",
"LLLLLLLLLLLLLLLLLLLLLLLLLLLLLLLLLLLLNu2>tmLLLLLLLL",
"LLLLLLLLLLLLLLLLLLLLLLLLLLLLLLLLLLLLZzttkVLLLLLLLL",
"LLLLLLLLLLLLLLLLLLLLLLLLLLLLLLLLLLLLGVnbBFLLLLLLLL",
"LLLLLLLLLLLLLLLLLLLLLLLLLLLLLLLLLLLLLLLLLLLLLLLLLL",
"LLLLLLLLLLLLLLLLLLLLLLLLLLLLLLLLLLLLLLLLLLLLLLLLLL",
"LLLLLLLLLLLLLLLLLLLLLLLLLLLLLLLLLLLLLLLLLLLLLLLLLL",
"LLLLLLLLLLLLLLLLLLLLLLLLLLLLLLLLLLLLLLLLLLLLLLLLLL",
"LLLLLLLLLLLLLLLLLLLLLLLLLLLLLLLLLLLLLLLLLLLLLLLLLL"
};
