/* XPM */
static char *d6ef8cb6730c4221b5d31a3efd6be04643xJMYzU84kfwhR7[] = {
/* columns rows colors chars-per-pixel */
"50 50 37 1 ",
"  c None",
". c black",
"X c #000100",
"o c #000101",
"O c #000201",
"+ c #000302",
"@ c #010804",
"# c #02120A",
"$ c #031A0D",
"% c #031D0F",
"& c #031F10",
"* c #042111",
"= c #042212",
"- c #042313",
"; c #05331B",
": c #073F21",
"> c #084D29",
", c #09512B",
"< c #09542C",
"1 c #0A582F",
"2 c #0A5C30",
"3 c #0A5F32",
"4 c #0B6233",
"5 c #0B6334",
"6 c #0B6435",
"7 c #0B6636",
"8 c #0F8C4A",
"9 c #0F8D4A",
"0 c #0F8E4B",
"q c #10924D",
"w c #109750",
"e c #119B52",
"r c #11A054",
"t c #12A457",
"y c #12A657",
"u c #12A658",
"i c #12A758",
/* pixels */
"                   ............                   ",
"                  ..............                  ",
"                 ................                 ",
"                ..................                ",
"               ........-;>-........               ",
"              .........2yi2.........              ",
"             ........&59ii96%........             ",
"            ........*,eiiiie,*........            ",
"           .........6eyiiiiyr4.........           ",
"          ........*29iiiiiiii92*........          ",
"         ........%,yiiiiiiiiiii,$........         ",
"        ........@6wiiiiiiiiiiiiw6@........        ",
"       ........-29iiiiiiiiiiiiii82-........       ",
"      ........#<iiiiiiiiiiiiiiiiii<#@.......      ",
"     ........#7qiiiiiiiiiiiiiiiiiiq6#........     ",
"    ........-<qiiiiiiiiiiiiiiiiiiiiq<-........    ",
"   ........@2iiiiiiiiiiiiiiiiiiiiiiii2@........   ",
"  ........%69iiiiiiiiiiiiiiiiiiiiiiii85%........  ",
" ........*>wiiiiiiiiiiiiiiiiiiiiiiiiiiw>*........ ",
".........2tiiiiiiiiiiiiiiiiiiiiiiiiiiiit5.........",
".......*69iiiiiiiiiiiiiiiiiiiiiiiiiiiiii85&.......",
"......&,riiiiiiiiiiiiiiiiiiiiiiiiiiiiiiiie,&......",
"......5eiiiiiiiiiiiiiiiiiiiiiiiiiiiiiiiiiie5......",
"......;>>>>>>>>>>>>>>>>>>>>>>>>>>>>>>>>>>>>;......",
"..................................................",
"..................................................",
"..................................................",
"..................................................",
"                  ..............                  ",
"                   ............                   ",
"                   ............                   ",
"                   ............                   ",
"                   ............                   ",
"                   ............                   ",
"                   ............                   ",
"                   ............                   ",
"                   ............                   ",
"                   ............                   ",
"                   ............                   ",
"                   ............                   ",
"                   ............                   ",
"                   ............                   ",
"                   ............                   ",
"                   ............                   ",
"                   ............                   ",
"                   ............                   ",
"                   ............                   ",
"                   ............                   ",
"                   ............                   ",
"                   ............                   "
};
