/* XPM */
static char *result[] = {
/* columns rows colors chars-per-pixel */
"50 50 103 2 ",
"   c #1F1416",
".  c #1E1418",
"X  c #21110D",
"o  c #20120C",
"O  c #21120D",
"+  c #22120E",
"@  c #23130E",
"#  c #261510",
"$  c #2B1912",
"%  c #2F1C14",
"&  c #22171A",
"*  c #251A1B",
"=  c #382318",
"-  c #3A251A",
";  c #1B1927",
":  c #1A1A2A",
">  c #171D32",
",  c #181B32",
"<  c #181C32",
"1  c #181D33",
"2  c #3C2B27",
"3  c #3F2E29",
"4  c #422B1E",
"5  c #4B3222",
"6  c #4E3424",
"7  c #4F3524",
"8  c #4F3525",
"9  c #503625",
"0  c #513625",
"q  c #513725",
"w  c #513726",
"e  c #523726",
"r  c #523826",
"t  c #533826",
"y  c #533827",
"u  c #543927",
"i  c #543A27",
"p  c #553A27",
"a  c #553A28",
"s  c #573B28",
"d  c #573C29",
"f  c #583C29",
"g  c #583D29",
"h  c #583D2A",
"j  c #593D2A",
"k  c #5A3E2A",
"l  c #5B3E2B",
"z  c #5B3F2B",
"x  c #5C3F2B",
"c  c #5C402B",
"v  c #5E402C",
"b  c #5E412C",
"n  c #5E412D",
"m  c #61432D",
"M  c #61432E",
"N  c #64462F",
"B  c #664731",
"V  c #674830",
"C  c #674831",
"Z  c #694932",
"A  c #694A32",
"S  c #6A4A32",
"D  c #6B4B33",
"F  c #6C4C33",
"G  c #6D4C33",
"H  c #6A4B34",
"J  c #6C4C34",
"K  c #6D4C34",
"L  c #6D4D34",
"P  c #6E4D34",
"I  c #6E4E35",
"U  c #6F4E35",
"Y  c #6F4F35",
"T  c #6C4D36",
"R  c #6D4E37",
"E  c #6F4F36",
"W  c #704F35",
"Q  c #704F36",
"!  c #714F36",
"~  c #715036",
"^  c #725136",
"/  c #725137",
"(  c #735137",
")  c #735237",
"_  c #745237",
"`  c #725138",
"'  c #745238",
"]  c #745338",
"[  c #755338",
"{  c #765438",
"}  c #76543B",
"|  c #7D5A3E",
" . c #815D41",
".. c #815E42",
"X. c #836148",
"o. c #846149",
"O. c #8C674B",
"+. c #8E694C",
"@. c #906B4E",
"#. c #916C4E",
"$. c #956F51",
"%. c #9C7557",
"&. c #9D7658",
/* pixels */
"[ [ [ [ [ [ [ [ [ [ [ [ [ [ [ [ [ X X X X X X X X X X X X X X X X X X X X v s a b Y [ [ [ [ [ [ [ [ ",
"[ [ [ [ [ [ [ [ [ [ [ [ [ [ [ [ [ X X X X X X X X X X X X X X X X X X X X v s a b Y [ [ [ [ [ [ [ [ ",
"[ [ [ [ [ [ [ [ [ [ [ [ [ [ [ [ [ X X X X X X X X X X X X X X X X X X X X v s a b Y [ [ [ [ [ [ [ [ ",
"[ [ [ [ [ [ [ [ [ [ [ [ [ [ [ [ [ + + + + @ @ @ @ @ @ @ @ @ @ @ @ + + + + v s a b Y [ [ [ [ [ [ [ [ ",
"[ [ [ [ [ [ [ [ [ [ [ [ O O O O = N N N H X.o.o.o.o.o.o.o.o.o.o.o.R N N N O O O O o [ [ [ [ [ [ [ [ ",
"C C C C C C C C C C C A X X X X - [ [ [ | %.&.&.&.&.&.&.&.&.&.&.&. .[ [ [ X X X X X C C C C C C C C ",
"b b b b b b b b b b b M X X X X - [ [ [ | %.&.&.&.&.&.&.&.&.&.&.&. .[ [ [ X X X X X b b b b b b b b ",
"p p p p p p p p p p a k X X X X - [ [ [ | %.&.&.&.&.&.&.&.&.&.&.&. .[ [ [ X X X X X p p p p p p p p ",
"s s s s s s s s s X X X x x x x T #.#.#.+... . . . . . . . . . . .O.#.#.#.x x x x 7 X X X o s s s s ",
"C C C C C C C C X X X X [ [ [ [  .&.&.&.$.{ [ [ [ [ [ [ [ [ [ [ [ #.&.&.&.[ [ [ [ x X X X O C C C C ",
"W W W W W W W W X X X X [ [ [ [  .&.&.&.$.{ [ [ [ [ [ [ [ [ [ [ [ #.&.&.&.[ [ [ [ x X X X O W W W W ",
"_ _ _ _ _ _ _ _ X X X X [ [ [ [  .&.&.&.$.{ [ [ [ [ [ [ [ [ [ [ [ #.&.&.&.[ [ [ [ x X X X O _ _ _ _ ",
"[ [ [ [ [ [ [ [ X X X X [ [ [ [  .&.&.&.$.{ [ [ [ [ [ [ [ [ [ [ [ #.&.&.&.[ [ [ [ x X X X O [ [ [ [ ",
"[ [ [ [ [ [ [ [ X X X X 9 9 9 9 z [ [ [ | %.&.&.&.&.&.&.&.&.&.&.&. .[ [ [ 9 9 9 9 4 X X X O [ [ [ [ ",
"[ [ [ [ [ [ [ [ X X X X 9 9 9 9 z [ [ [ | %.&.&.&.&.&.&.&.&.&.&.&. .[ [ [ 9 9 9 9 4 X X X O [ [ [ [ ",
"[ [ [ [ [ [ [ [ X X X X 9 9 9 9 z [ [ [ | %.&.&.&.&.&.&.&.&.&.&.&. .[ [ [ 9 9 9 9 4 X X X O [ [ [ [ ",
"[ [ [ [ [ [ [ [ [ X X X 4 4 4 4 6 S S S ` @.#.#.#.#.#.#.#.#.#.#.#.} S S S 4 4 4 4 - X X X o [ [ [ [ ",
"[ [ [ [ [ [ [ [ [ [ [ [ X X X X % 9 9 9 d ] [ [ [ [ [ [ [ [ [ [ [ z 9 9 9 X X X X X [ [ [ [ [ [ [ [ ",
"[ [ [ [ [ [ [ [ [ [ [ [ X X X X % 9 9 9 d ] [ [ [ [ [ [ [ [ [ [ [ z 9 9 9 X X X X X [ [ [ [ [ [ [ [ ",
"[ [ [ [ [ [ [ [ [ [ [ [ X X X X % 9 9 9 d ] [ [ [ [ [ [ [ [ [ [ [ z 9 9 9 X X X X X [ [ [ [ [ [ [ [ ",
"! ! ! ! ! ! ! ! ! ! ! ! X X X X % 9 9 9 d ] [ [ ' I L L P ) [ [ [ z 9 9 9 X X X X X [ [ [ ' ( ^ ! ! ",
"C C C C C C C C C C C C X X X X % 9 9 9 d ] [ [ ~ p 0 0 w P [ [ [ z 9 9 9 X X X X X [ [ [ ( W J C C ",
"b b b b b b b b b b b b X X X X % 9 9 9 d ] [ [ ~ u 9 9 0 L [ [ [ z 9 9 9 X X X X X [ [ [ ^ J C b b ",
"p p t e q w t u p p p p X X X X % 9 9 9 d ] [ [ ~ u 9 9 0 L [ [ [ z 9 9 9 X X X X X [ [ [ ~ Z M p p ",
"b b j p r a h c b b b b X X X X % 9 9 9 d ] [ [ ~ f u u i D ~ ~ ~ k 9 9 9 X X X X X [ [ [ ^ G V b b ",
"C C n h y g b N B C C C X X X X % 9 9 9 d ] [ [ [ ~ ~ ~ Q k u u u w 9 9 9 X X X X X [ [ [ ( Q F C C ",
"Q Q N c u x N K U Q Q Q X X X X % 9 9 9 d ] [ [ [ [ [ [ ] d 9 9 9 9 9 9 9 X X X X X [ [ [ ' ) / Q Q ",
"[ [ J B m V F / ' [ [ [ X X X X % 9 9 9 d ] [ [ [ [ [ [ ] d 9 9 9 9 9 9 9 X X X X X [ [ [ [ [ [ [ [ ",
"[ [ Q J A K W _ [ [ [ [ X X X X % 9 9 9 d ] [ [ [ [ [ [ ] d 9 9 9 9 9 9 9 X X X X X [ [ [ [ [ [ [ [ ",
"[ [ ( ^ ~ / ( [ [ [ [ [ X X X X % 9 9 9 d ] [ [ [ [ [ [ ] d 9 9 9 9 9 9 9 X X X X X [ [ [ [ [ [ [ [ ",
"[ [ [ [ [ [ [ [ [ [ [ [ X X X X % 9 9 9 d ] [ [ [ [ [ [ ] d 9 9 9 9 9 9 9 X X X X X [ [ [ [ [ [ [ [ ",
"[ [ [ [ [ [ [ [ [ [ [ [ X X X X % 9 9 9 d ] [ [ [ [ [ [ ] d 9 9 9 9 9 9 9 X X X X X [ [ [ [ [ [ [ [ ",
"[ [ [ [ [ [ [ [ [ [ [ [ X X X X % 9 9 9 d ] [ [ [ [ [ [ ] d 9 9 9 9 9 9 9 X X X X X [ [ [ [ [ [ [ [ ",
"[ [ [ [ > < < < < < < < X X X X % 9 9 9 r l z z b / [ [ [ J S S S f 9 9 9 X X X X   < < < < < < < < ",
"[ [ [ [ < < < < < < < < X X X X % 9 9 9 9 9 9 9 u ~ [ [ [ [ [ [ [ z 9 9 9 X X X X . < < < < < < < < ",
"[ [ [ [ < < < < < < < < X X X X % 9 9 9 9 9 9 9 u ~ [ [ [ [ [ [ [ z 9 9 9 X X X X . < < < < < < < < ",
"E E E E < < < < < < < < X X X X % 9 9 9 9 9 9 9 u ~ [ [ [ [ [ [ [ z 9 9 9 X X X X . < < < < < < < < ",
"C C C C < < < < < < < < X X X X % 9 9 9 9 9 9 9 u ~ [ [ [ [ [ [ [ z 9 9 9 X X X X . < < < < < < < < ",
"< < < < < < < < < < < < < < < < ; X X X X X X X # 5 9 9 8 $ X X X X X X X < < < < < < < < < s s s s ",
"< < < < < < < < < < < < < < < < ; X X X X X X X # 5 9 9 8 $ X X X X X X X < < < < < < < < < a a a a ",
"< < < < < < < < < < < < < < < < ; X X X X X X X # 5 9 9 8 $ X X X X X X X < < < < < < < < < b b b b ",
"< < < < < < < < < < < < < < < < : . . . . . . . & 2 3 3 3 * . . . . . . . < < < < 1 < < < > Y Y Y Y ",
"[ [ [ [ < < < < < < < < < < < < < < < < < < < < < < < < < < < < < < < < < < < < < < [ [ [ [ [ [ [ [ ",
"[ [ [ [ < < < < < < < < < < < < < < < < < < < < < < < < < < < < < < < < < < < < < < [ [ [ [ [ [ [ [ ",
"[ [ [ [ < < < < < < < < < < < < < < < < < < < < < < < < < < < < < < < < < < < < < < [ [ [ [ [ [ [ [ ",
"[ [ [ [ < < < < < < < < < < < < < < < < < , < < < < < < < < < < < < < < < < < < < > [ [ [ [ [ [ [ [ ",
"[ [ [ [ [ [ [ [ [ [ [ [ < < < < < < < < , [ [ [ [ [ [ [ [ [ [ [ [ < < < < [ [ [ [ [ [ [ [ [ [ [ [ [ ",
"[ [ [ [ [ [ [ [ [ [ [ [ < < < < < < < < < [ [ [ [ [ [ [ [ [ [ [ [ < < < < [ [ [ [ [ [ [ [ [ [ [ [ [ ",
"[ [ [ [ [ [ [ [ [ [ [ [ < < < < < < < < < [ [ [ [ [ [ [ [ [ [ [ [ < < < < [ [ [ [ [ [ [ [ [ [ [ [ [ ",
"[ [ [ [ [ [ [ [ [ [ [ [ < < < < < < < < < [ [ [ [ [ [ [ [ [ [ [ [ < < < < [ [ [ [ [ [ [ [ [ [ [ [ [ "
};
