/* XPM */
static char *result[] = {
/* columns rows colors chars-per-pixel */
"50 50 186 2 ",
"   c #010203",
".  c #0B0505",
"X  c #090904",
"o  c #0C0B09",
"O  c #120D0C",
"+  c #140B04",
"@  c #151104",
"#  c #1B1607",
"$  c #1B140D",
"%  c #1C1918",
"&  c #261E09",
"*  c #251A07",
"=  c #2A1D16",
"-  c #231B15",
";  c #3A1E16",
":  c #2A2009",
">  c #382B0B",
",  c #34280B",
"<  c #2C241C",
"1  c #1E2021",
"2  c #242525",
"3  c #3C2E23",
"4  c #39342F",
"5  c #5D1712",
"6  c #671712",
"7  c #751A14",
"8  c #7B1A15",
"9  c #7A1614",
"0  c #7C2314",
"q  c #76221A",
"w  c #402C20",
"e  c #553B2A",
"r  c #413E3E",
"t  c #433125",
"y  c #6A3C2B",
"u  c #772F23",
"i  c #7E5706",
"p  c #6E4C05",
"a  c #5A4534",
"s  c #664531",
"d  c #6D4A34",
"f  c #674835",
"g  c #744A35",
"h  c #77523A",
"j  c #7B533C",
"k  c #444142",
"l  c #7A5D4B",
"z  c #625778",
"x  c #606162",
"c  c #717272",
"v  c #851A16",
"b  c #8E1A17",
"n  c #911B17",
"m  c #961A18",
"M  c #8C231D",
"N  c #822714",
"B  c #992616",
"V  c #9E2B1A",
"C  c #952318",
"Z  c #8D3918",
"A  c #9E301A",
"S  c #A13519",
"D  c #A83D1B",
"F  c #843124",
"G  c #8B3729",
"H  c #883124",
"J  c #885E06",
"K  c #946708",
"L  c #936A12",
"P  c #A56809",
"I  c #A4600A",
"U  c #A77306",
"Y  c #AB7608",
"T  c #AE790A",
"R  c #A87306",
"E  c #B37D0C",
"W  c #B9731E",
"Q  c #AB601C",
"!  c #80573E",
"~  c #82583E",
"^  c #954834",
"/  c #845B41",
"(  c #8A5E43",
")  c #9C6A4B",
"_  c #95694B",
"`  c #876A57",
"'  c #926F52",
"]  c #986F51",
"[  c #A6704F",
"{  c #AA7351",
"}  c #A87B58",
"|  c #B37A56",
" . c #B47D59",
".. c #BA7E59",
"X. c #B07754",
"o. c #8C7465",
"O. c #B4851C",
"+. c #B88313",
"@. c #B8820F",
"#. c #BF902F",
"$. c #B78C32",
"%. c #C28F1F",
"&. c #C4901F",
"*. c #CE951B",
"=. c #D0971C",
"-. c #D49A1E",
";. c #CB8A20",
":. c #C08E23",
">. c #D59222",
",. c #D29A21",
"<. c #D99E20",
"1. c #DEA323",
"2. c #B6805B",
"3. c #BC835D",
"4. c #B28965",
"5. c #BC8A66",
"6. c #B89579",
"7. c #B59176",
"8. c #C2845D",
"9. c #CA865F",
"0. c #CC8A61",
"q. c #D28E64",
"w. c #C2956D",
"e. c #D69166",
"r. c #DB9A6E",
"t. c #D8976B",
"y. c #CE9E74",
"u. c #DEAA7C",
"i. c #D8A378",
"p. c #E4AC7E",
"a. c #E1A67A",
"s. c #5A6997",
"d. c #5A6B9B",
"f. c #5C6794",
"g. c #62618A",
"h. c #69618A",
"j. c #6E698B",
"k. c #6C799F",
"l. c #767B89",
"z. c #5A6FA1",
"x. c #5A72A5",
"c. c #5A76AD",
"v. c #5A78B0",
"b. c #7B838D",
"n. c #8E8F8A",
"m. c #93938D",
"M. c #A1A39D",
"N. c #96A2B3",
"B. c #A9B2B9",
"V. c #B2B3AE",
"C. c #C0A39E",
"Z. c #D7AE91",
"A. c #E3AE80",
"S. c #EBB585",
"D. c #E7B182",
"F. c #EEBE94",
"G. c #D2BDAF",
"H. c #E6BBA0",
"J. c #BFC2BE",
"K. c #DAC290",
"L. c #DDC7BE",
"P. c #C9C1BC",
"I. c #E8CDAC",
"U. c #F0CEB0",
"Y. c #E6D6B6",
"T. c #B2BAC2",
"R. c #C0C0C0",
"E. c #C5C8C0",
"W. c #CACCC8",
"Q. c #DDC6C5",
"!. c #D5D2CC",
"~. c #D4D4D3",
"^. c #E9D9C4",
"/. c #E3DDD9",
"(. c #ECE5DF",
"). c #D2D9E5",
"_. c #D6DDEB",
"`. c #D3D7E3",
"'. c #DFE0E0",
"]. c gray88",
"[. c #EAEBEB",
"{. c #F4EEE0",
"}. c #F3F3F2",
"|. c #FFFFFF",
" X c #FAF7F2",
".X c None",
/* pixels */
".X.X.X.X.X.X.X.X.X.X.X.X.X.X.X.X.X.X.XU R <.1.R Y -.1.1.1.E R .X.X.X.X.X.X.X.X.X.X.X.X.X.X.X.X.X.X.X",
".X.X.X.X.X.X.X.X.X.X.X.X.X.X.X.X.X.X.XT T <.1.T E -.1.1.1.E E .X.X.X.X.X.X.X.X.X.X.X.X.X.X.X.X.X.X.X",
".X.X.X.X.X.X.X.X.X.X.X.X.X.X.X.X.XU T =.-.<.1.-.-.<.1.1.1.-.-.E R .X.X.X.X.X.X.X.X.X.X.X.X.X.X.X.X.X",
".X.X.X.X.X.X.X.X.X.X.X.X.X.X.X.X.XY @.-.<.-.>.>.>.>.>.>.>.1.1.@.T .X.X.X.X.X.X.X.X.X.X.X.X.X.X.X.X.X",
".X.X.X.X.X.X.X.X.X.X.X.X.X.X.XU Y =.-.@.T S V V V V V V V >.1.<.-.E R .X.X.X.X.X.X.X.X.X.X.X.X.X.X.X",
".X.X.X.X.X.X.X.X.X.X.X.X.X.X.XU Y -.-.T U B m m m m m m m >.1.1.<.E R .X.X.X.X.X.X.X.X.X.X.X.X.X.X.X",
".X.X.X.X.X.X.X.X.X.X.X.X.X.X.X0 0 V V B B I P P P P P P P S V V V N 0 L.|..X.X.X.X.X.X.X.X.X.X.X.X.X",
".X.X.X.X.X.X.X.X.X.X.X.X.X.X.X7 7 n n m m P U U R R R R R V m m m 7 7 Q.|..X.X.X.X.X.X.X.X.X.X.X.X.X",
".X.X.X.X.X.X.X.X.X.X.XU R U U 1.,.: # &.1.1.1.1.1.1.1.>   %.1.1.,.&   i U U U ^.|..X.X.X.X.X.X.X.X.X",
".X.X.X.X.X.X.X.X.X.X.XY Y Y U -.&.& # O.,.,.,.-.,.,.,.,   O.,.,.&.&   i U Y T Y. X.X.X.X.X.X.X.X.X.X",
".X.X.X.X.X.X.X.X.XU T *.-.T U : & X   & & : & & & & & o   & & : & X   i U *.-.:.$.I.|..X.X.X.X.X.X.X",
".X.X.X.X.X.X.X.X.XT E -.-.K K                                         p K &.-.@.O.K.{..X.X.X.X.X.X.X",
".X.X.X.X.X.X.XU T *.-.E E & @                                         o @ K T *.,.&.O..X.X.X.X.X.X.X",
".X.X.X.X.X.X.XU T -.-.E R @                                               J U *.1.+.Y .X.X.X.X.X.X.X",
".X.X.X.X.X.X.XU T -.&.: @               . 4.y.      .   .                 J U *.1.1.,..X.X.X.X.X.X.X",
".X.X.X.X.X.X.XU T -.&.#                 . y.S..   .   .   .               J U ,.1.1.1..X.X.X.X.X.X.X",
".X.X.X.X.X.X.X.X.X1.-.J i o           .   y.S.  o ' 4.4.4.$               * : O.1.1..X.X.X.X.X.X.X.X",
".X.X.X.X.X.X.X.X.X1.1.E Y @         . O $ w.u.$ - w.S.A.u.< O o       o o   X L ,..X.X.X.X.X.X.X.X.X",
".X.X.X.X.X.X.X.X.X.X.X-.-.#         % n.M.4 < 6.w.D.S.a < m.M.2   .   ' w.=   # : .X.X.X.X.X.X.X.X.X",
".X.X.X.X.X.X.X.X.X.X.X1.1.#     .   % V.P.%   S.S.S.S.3   V.W.4 .   . 4.S.<       .X.X.X.X.X.X.X.X.X",
".X.X.X.X.X.X.X.X.X.X.X> > } 4.4.4.4.6.(.}.1   S.S.S.S.3   ~.}.4 + ' 4.u.S.<   .X.X.X.X.X.X.X.X.X.X.X",
".X.X.X.X.X.X.X.X.X.X.X    y.S.S.S.S.F. X|.1   S.S.S.S.3   '.|.k @ 6.S.S.S.<   .X.X.X.X.X.X.X.X.X.X.X",
".X.X.X.X.X.X.X.X.X.X.X.X.X.X.X ...p.S.F.F.i.y.S.S.S.S.i.y.` l 7.y.2...t % V.]..X.X.X.X.X.X.X.X.X.X.X",
".X.X.X.X.X.X.X.X.X.X.X.X.X.X.X{ { a.S.S.S.S.S.S.S.S.S.S.p.h s y.A...{ <   ~.|..X.X.X.X.X.X.X.X.X.X.X",
".X.X.X.X.X.X.X.X.X.X.X.X.Xs s h j { 8.t.r.D.S.r.i.r.r.D.S.0.| .. ./ h j ! ` o..X.X.X.X.X.X.X.X.X.X.X",
".X.X.X.X.X.X.X.X.X.X.X.X.Xs s d g ) [ 9.q.a.A.e.e.e.q.i.p.q.q.{ ) h f ) { j d .X.X.X.X.X.X.X.X.X.X.X",
".X.X.X.X.X.X.X.X.X.X.X{ { d s 8...3 = u F G G | | X.| ^ G H H ; = / ) 8.q.0.3.! f .X.X.X.X.X.X.X.X.X",
".X.X.X.X.X.X.X.X.X.X.X{ { g s e.0.= . 6 7 7 7 { { { { Z 7 9 9 + . ( { 0.e.e.e.! s .X.X.X.X.X.X.X.X.X",
".X.X.X.X.X.X.X.X.X{ { { { ....A.i.u 5 v n b b F F F F b b b b 6 5 g h 3.e.e.e.j s .X.X.X.X.X.X.X.X.X",
".X.X.X.X.X.X.X.X.X[ { { { q.e.D.p.G 9 m m m m 7 7 7 7 b m m m 8 7 y f ..e.e.e./ s .X.X.X.X.X.X.X.X.X",
".X.X.X.X.X.X.X{  .i.u.q.0...| / / M n m m m m 7 q W ;.S m m m m n q 7 g j j j G./..X.X.X.X.X.X.X.X.X",
".X.X.X.X.X.X.X{  .a.D.t.e.{ [ s s M m m m m m 7 0 ;.1.D m m m m m 8 7 y s s s !.|..X.X.X.X.X.X.X.X.X",
".X.X.X.X.X.X.Xh / i.S.p.p./ h $ - 9 m m m m m 7 7 Z Z C m m m m m 8 7 C.!..X.X.X.X.X.X.X.X.X.X.X.X.X",
".X.X.X.X.X.X.Xs h y.A.A.D.h s   . 9 m m m m m 7 7 0 0 n m m m m m 8 7 Q.|..X.X.X.X.X.X.X.X.X.X.X.X.X",
".X.X.X.X.X.X.X.X.X_ ] ] ] .X.X.X.X7 v m m m m 7 0 Q W V m m m v v .X.X.X.X|.|.|.|.|..X.X.X.X.X.X.X.X",
".X.X.X.X.X.X.X.X.Xs s s s .X.X.X.X7 7 n m m m 9 0 ;.1.D m m m 8 7 .X.X.X.X|.|.|.|.|.|..X.X.X.X.X.X.X",
".X.X.X.X.X.X.X.X.X.X.X.X.X.X.Xs.s.g.g.h.h.h.h.z z l.b.j.h.h.h.g.g.f.s..X.X.X.X.X.X.X.X.X.X.X.X.X.X.X",
".X.X.X.X.X.X.X.X.X.X.X.X.X.X.Xs.s.c.v.v.v.v.v.s.s.c.v.c.v.v.v.v.v.d.s..X.X.X.X.X.X.X.X.X.X.X.X.X.X.X",
".X.X.X.X.X.X.X.X.X.X.X.X.X.X.Xs.s.c.v.v.v.v.v.c.x.x.z.c.v.v.v.v.c.d.s..X.X.X.X.X.X.X.X.X.X.X.X.X.X.X",
".X.X.X.X.X.X.X.X.X.X.X.X.X.X.Xs.s.c.v.v.v.v.v.v.v.d.s.c.v.v.v.v.v.d.s..X.X.X.X.X.X.X.X.X.X.X.X.X.X.X",
".X.X.X.X.X.X.X.X.X.X.X.X.X|.|.).`.T.T.).'._._.B.B.k.f.N.T.)._._._.T.B.[.|..X.X.X.X.X.X.X.X.X.X.X.X.X",
".X.X.X.X.X.X.X.X.X.X.X.X.X|.|.|.|.!.W. X|.|.|.E.R.k.f.V.J. X|.|.|.W.P.[.|..X.X.X.X.X.X.X.X.X.X.X.X.X",
".X.X.X.X.X.X.X.X.X.X.X.X.X.X.X|.|.[.~.c x x x .X.X.X.Xm.6.H.F.U.U.Z.Z.^..X.X.X.X.X.X.X.X.X.X.X.X.X.X",
".X.X.X.X.X.X.X.X.X.X.X.X.X.X.X|.|.|.].1       .X.X.X.X{ [ 0.e.p.S.t.e..X.X.X.X.X.X.X.X.X.X.X.X.X.X.X",
".X.X.X.X.X.X.X.X.X.X.X.X.X.X.X|.|.|. XW.R.R.R..X.X.X.X0.0.a.p.S.p.3.2..X.X.X.X.X.X.X.X.X.X.X.X.X.X.X",
".X.X.X.X.X.X.X.X.X.X.X.X.X.X.X|.|.|.|.|.|.|.|..X.X.X.Xe.e.S.S.S.D.2.{ .X.X.X.X.X.X.X.X.X.X.X.X.X.X.X",
".X.X.X.X.X.X.X.X.X.X.X.X.X.X.X.X.X|.|.|.|.|.|..X.X.X.X....f a } w.I.L..X.X.X.X.X.X.X.X.X.X.X.X.X.X.X",
".X.X.X.X.X.X.X.X.X.X.X.X.X.X.X.X.X|.|.|.|.|.|..X.X.X.X{ { O   ! X.(.|..X.X.X.X.X.X.X.X.X.X.X.X.X.X.X",
".X.X.X.X.X.X.X.X.X.X.X.X.X.X.X.X.X.X|.|.|.|.|..X.X.X.Xe e o   3 e P.|..X.X.X.X.X.X.X.X.X.X.X.X.X.X.X",
".X.X.X.X.X.X.X.X.X.X.X.X.X.X.X.X.X.X.X.X.X.X.X.X.X.X.X            .X.X.X.X.X.X.X.X.X.X.X.X.X.X.X.X.X"
};
