/* XPM */
static char *result[] = {
/* columns rows colors chars-per-pixel */
"50 50 183 2 ",
"   c #010203",
".  c #0B0505",
"X  c #090904",
"o  c #0C0B09",
"O  c #120D0C",
"+  c #140B04",
"@  c #151104",
"#  c #1B1607",
"$  c #1B140D",
"%  c #1C1918",
"&  c #261E09",
"*  c #251A07",
"=  c #2A1D16",
"-  c #231B15",
";  c #3A1E16",
":  c #2A2009",
">  c #382B0B",
",  c #34280B",
"<  c #2C241C",
"1  c #1E2021",
"2  c #242525",
"3  c #3C2E23",
"4  c #39342F",
"5  c #5D1712",
"6  c #671712",
"7  c #751A14",
"8  c #7B1A15",
"9  c #7A1614",
"0  c #7C2314",
"q  c #76221A",
"w  c #402C20",
"e  c #553B2A",
"r  c #413E3E",
"t  c #433125",
"y  c #6A3C2B",
"u  c #772F23",
"i  c #7E5706",
"p  c #6E4C05",
"a  c #5A4534",
"s  c #664531",
"d  c #6D4A34",
"f  c #674835",
"g  c #744A35",
"h  c #77523A",
"j  c #7B533C",
"k  c #444142",
"l  c #7A5D4B",
"z  c #625778",
"x  c #606162",
"c  c #717272",
"v  c #851A16",
"b  c #8E1A17",
"n  c #911B17",
"m  c #961A18",
"M  c #8C231D",
"N  c #822714",
"B  c #992616",
"V  c #9E2B1A",
"C  c #952318",
"Z  c #8D3918",
"A  c #9E301A",
"S  c #A13519",
"D  c #A83D1B",
"F  c #843124",
"G  c #8B3729",
"H  c #883124",
"J  c #885E06",
"K  c #946708",
"L  c #936A12",
"P  c #A56809",
"I  c #A4600A",
"U  c #A77306",
"Y  c #AB7608",
"T  c #AE790A",
"R  c #A87306",
"E  c #B37D0C",
"W  c #B9731E",
"Q  c #AB601C",
"!  c #80573E",
"~  c #82583E",
"^  c #954834",
"/  c #845B41",
"(  c #8A5E43",
")  c #9C6A4B",
"_  c #95694B",
"`  c #876A57",
"'  c #926F52",
"]  c #986F51",
"[  c #A6704F",
"{  c #AA7351",
"}  c #A87B58",
"|  c #B37A56",
" . c #B47D59",
".. c #BA7E59",
"X. c #B07754",
"o. c #8C7465",
"O. c #B4851C",
"+. c #B88313",
"@. c #B8820F",
"#. c #BF902F",
"$. c #B78C32",
"%. c #C28F1F",
"&. c #C4901F",
"*. c #CE951B",
"=. c #D0971C",
"-. c #D49A1E",
";. c #CB8A20",
":. c #C08E23",
">. c #D59222",
",. c #D29A21",
"<. c #D99E20",
"1. c #DEA323",
"2. c #B6805B",
"3. c #BC825C",
"4. c #B28965",
"5. c #BC8A66",
"6. c #BF946D",
"7. c #AA8E7E",
"8. c #B89579",
"9. c #C2845D",
"0. c #CA865F",
"q. c #CC8A61",
"w. c #D28E64",
"e. c #C2956D",
"r. c #D69166",
"t. c #DB9A6E",
"y. c #D8976B",
"u. c #CE9E74",
"i. c #DEAA7C",
"p. c #D8A378",
"a. c #E4AC7E",
"s. c #E1A67A",
"d. c #5F628B",
"f. c #5A6997",
"g. c #5A6B9B",
"h. c #5C6794",
"j. c #626189",
"k. c #69618A",
"l. c #6E698B",
"z. c #6C799F",
"x. c #767B89",
"c. c #5A6FA1",
"v. c #5A72A5",
"b. c #5A76AD",
"n. c #5A78B0",
"m. c #7B838D",
"M. c #8E8F8A",
"N. c #93938D",
"B. c #A1A39D",
"V. c #96A2B3",
"C. c #ADAFA9",
"Z. c #A9B2B9",
"A. c #ADB0A9",
"S. c #C0A39E",
"D. c #D7AE90",
"F. c #D8AE92",
"G. c #E3AE80",
"H. c #E7B182",
"J. c #EBB585",
"K. c #EEBE94",
"L. c #DABFAD",
"P. c #C9BAB1",
"I. c #E6BBA0",
"U. c #BFC2BE",
"Y. c #DAC290",
"T. c #DFCBBE",
"R. c #EFCBAE",
"E. c #F0CEB0",
"W. c #B2BAC2",
"Q. c #C5C8C0",
"!. c #CCCFC8",
"~. c #D0D3CC",
"^. c #D6D7D5",
"/. c #E8D6C7",
"(. c #E9E4DE",
"). c #D1D8E6",
"_. c #D6DDEB",
"`. c #D3D7E3",
"'. c #E3E4E5",
"]. c #F1F2F0",
"[. c #FEFEFE",
"{. c #FBF7F4",
"}. c None",
/* pixels */
"}.}.}.}.}.}.}.}.}.}.}.}.}.}.}.}.}.}.}.U R <.1.R Y -.1.1.1.T R }.}.}.}.}.}.}.}.}.}.}.}.}.}.}.}.}.}.}.",
"}.}.}.}.}.}.}.}.}.}.}.}.}.}.}.}.}.}.}.T T -.1.T E -.1.1.1.E E }.}.}.}.}.}.}.}.}.}.}.}.}.}.}.}.}.}.}.",
"}.}.}.}.}.}.}.}.}.}.}.}.}.}.}.}.}.U T =.-.1.1.-.-.1.1.1.1.-.-.E U }.}.}.}.}.}.}.}.}.}.}.}.}.}.}.}.}.",
"}.}.}.}.}.}.}.}.}.}.}.}.}.}.}.}.}.Y @.-.<.=.>.>.>.>.>.>.>.1.1.@.T }.}.}.}.}.}.}.}.}.}.}.}.}.}.}.}.}.",
"}.}.}.}.}.}.}.}.}.}.}.}.}.}.}.U Y =.-.E E S V V V V V V V >.1.<.-.E U }.}.}.}.}.}.}.}.}.}.}.}.}.}.}.",
"}.}.}.}.}.}.}.}.}.}.}.}.}.}.}.U Y -.-.E U B m m m m m m m >.1.1.1.E U }.}.}.}.}.}.}.}.}.}.}.}.}.}.}.",
"}.}.}.}.}.}.}.}.}.}.}.}.}.}.}.0 0 V A B B I P P P P P P P S V V V N 0 }.}.}.}.}.}.}.}.}.}.}.}.}.}.}.",
"}.}.}.}.}.}.}.}.}.}.}.}.}.}.}.7 7 n n n m P U U R R R R R V m m n 8 7 }.}.}.}.}.}.}.}.}.}.}.}.}.}.}.",
"}.}.}.}.}.}.}.}.}.}.}.U U U U 1.,.: # %.1.1.1.1.1.1.1.>   %.1.1.,.:   i U U U }.}.}.}.}.}.}.}.}.}.}.",
"}.}.}.}.}.}.}.}.}.}.}.Y Y R U -.%.& # O.,.,.,.-.,.>.,.,   O.,.,.&.&   i U R Y }.}.}.}.}.}.}.}.}.}.}.",
"}.}.}.}.}.}.}.}.}.U T *.-.T U : & X   & & : & & : : : X   & : : : X   i U *.-.#.3.}.}.}.}.}.}.}.}.}.",
"}.}.}.}.}.}.}.}.}.T E -.<.K K                                         p K *.-.@.+.Y.}.}.}.}.}.}.}.}.",
"}.}.}.}.}.}.}.U T *.-.@.T * @                                         @ @ K T *.<.#.O.}.}.}.}.}.}.}.",
"}.}.}.}.}.}.}.U T -.-.E R @                                               J U =.<.@.Y }.}.}.}.}.}.}.",
"}.}.}.}.}.}.}.U T -.&.: @               . 4.u.      .   .                 J U =.1.1.<.}.}.}.}.}.}.}.",
"}.}.}.}.}.}.}.U T -.&.#                 . u.J..   .   .   .               J U =.1.1.1.}.}.}.}.}.}.}.",
"}.}.}.}.}.}.}.}.}.1.-.J i o           . X u.J.  O ' 4.4.4.$               * : O.1.1.}.}.}.}.}.}.}.}.",
"}.}.}.}.}.}.}.}.}.1.1.E Y @         . O O e.G.O - e.J.G.i.< O . .     X o   o L ,.}.}.}.}.}.}.}.}.}.",
"}.}.}.}.}.}.}.}.}.}.}.-.-.#       . % M.B.4 < 6.e.H.J.a < N.C.2 .     ' 6.-   # : }.}.}.}.}.}.}.}.}.",
"}.}.}.}.}.}.}.}.}.}.}.1.1.#         % C.Q.%   J.J.J.J.3   C.Q.4   .   4.J.<       }.}.}.}.}.}.}.}.}.",
"}.}.}.}.}.}.}.}.}.}.}.> > } 4.4.4.4.8.(.].2   J.J.J.J.3   ^.].r + ' 4.i.J.<   }.}.}.}.}.}.}.}.}.}.}.",
"}.}.}.}.}.}.}.}.}.}.}.    u.J.J.J.J.K.{.[.2   J.J.J.J.3   _.[.r O e.J.J.J.<   }.}.}.}.}.}.}.}.}.}.}.",
"}.}.}.}.}.}.}.}.}.}.}.}.}.}.}. ...s.J.K.K.p.u.J.J.J.J.p.u.` l 5.u.2.| t % }.}.}.}.}.}.}.}.}.}.}.}.}.",
"}.}.}.}.}.}.}.}.}.}.}.}.}.}.}.{ X.s.J.J.J.J.J.J.J.J.J.J.J.h s u.H.2.{ <   }.}.}.}.}.}.}.}.}.}.}.}.}.",
"}.}.}.}.}.}.}.}.}.}.}.}.}.s s h j X.9.y.t.H.J.t.t.t.t.a.J.9.2.3. ./ h j ! ` o.}.}.}.}.}.}.}.}.}.}.}.",
"}.}.}.}.}.}.}.}.}.}.}.}.}.s s d g _ [ 0.w.s.G.r.w.r.r.s.a.r.w.{ ) h d ) { j d }.}.}.}.}.}.}.}.}.}.}.",
"}.}.}.}.}.}.}.}.}.}.}.{ { d s 9. .w = u H G G | | | | ^ G H H ; = ~ ) 9.w.9.9.~ s }.}.}.}.}.}.}.}.}.",
"}.}.}.}.}.}.}.}.}.}.}.{ { d s r.q.= . 6 7 7 7 { { { { u 7 7 9 + o ( { q.r.r.r.~ s }.}.}.}.}.}.}.}.}.",
"}.}.}.}.}.}.}.}.}.{ { { { ....H.p.u 5 v b b b F F F F b n b b 6 5 d h ..r.r.r.~ s }.}.}.}.}.}.}.}.}.",
"}.}.}.}.}.}.}.}.}.{ { { { w.r.H.a.G 9 n m m m 7 7 7 7 n m m m 8 q y s ..r.r.r.~ s }.}.}.}.}.}.}.}.}.",
"}.}.}.}.}.}.}.{ | p.p.w.q...X./ / M n m m m m 7 0 W ;.S m m m n b 8 q g j j j P.}.}.}.}.}.}.}.}.}.}.",
"}.}.}.}.}.}.}.{  .s.J.y.w.X.{ s s M m m m m m 7 0 ;.1.D m m m m m 8 7 y s s s }.}.}.}.}.}.}.}.}.}.}.",
"}.}.}.}.}.}.}.h / p.J.a.a./ h $ - 9 m m m m m 7 8 Z Z C m m m m m 8 7 S.}.}.}.}.}.}.}.}.}.}.}.}.}.}.",
"}.}.}.}.}.}.}.s h u.G.H.G.h s   . 9 m m m m m 7 7 0 0 b m m m m m 8 7 }.}.}.}.}.}.}.}.}.}.}.}.}.}.}.",
"}.}.}.}.}.}.}.}.}._ ] ] ] }.}.}.}.7 v m m m m 7 0 Q W V m m m v v }.}.}.}.}.}.}.}.}.}.}.}.}.}.}.}.}.",
"}.}.}.}.}.}.}.}.}.s s s s }.}.}.}.7 7 n m m m 9 0 ;.1.D m m m 8 7 }.}.}.}.}.}.}.}.}.}.}.}.}.}.}.}.}.",
"}.}.}.}.}.}.}.}.}.}.}.}.}.}.}.f.f.j.j.k.k.k.k.z z x.m.l.k.k.k.j.d.h.f.}.}.}.}.}.}.}.}.}.}.}.}.}.}.}.",
"}.}.}.}.}.}.}.}.}.}.}.}.}.}.}.f.f.b.n.n.n.n.n.f.f.b.n.b.n.n.n.n.n.g.f.}.}.}.}.}.}.}.}.}.}.}.}.}.}.}.",
"}.}.}.}.}.}.}.}.}.}.}.}.}.}.}.f.f.b.n.n.n.n.n.b.v.v.c.b.n.n.n.n.b.g.f.}.}.}.}.}.}.}.}.}.}.}.}.}.}.}.",
"}.}.}.}.}.}.}.}.}.}.}.}.}.}.}.f.f.b.n.n.n.n.n.n.n.g.f.b.n.n.n.n.n.g.f.}.}.}.}.}.}.}.}.}.}.}.}.}.}.}.",
"}.}.}.}.}.}.}.}.}.}.}.}.}.}.}.}.`.W.W.)._._._.Z.Z.z.h.V.W.)._._.).W.Z.'.}.}.}.}.}.}.}.}.}.}.}.}.}.}.",
"}.}.}.}.}.}.}.}.}.}.}.}.}.}.}.}.}.~.!.{.[.[.[.Q.Q.z.h.C.Q.{.[.[.[.!.T.].}.}.}.}.}.}.}.}.}.}.}.}.}.}.",
"}.}.}.}.}.}.}.}.}.}.}.}.}.}.}.}.}.}.^.c x x x }.}.}.}.N.8.F.I.R.R.D.D./.}.}.}.}.}.}.}.}.}.}.}.}.}.}.",
"}.}.}.}.}.}.}.}.}.}.}.}.}.}.}.}.}.}.}.2       }.}.}.}.{ } w.r.a.H.u.r.}.}.}.}.}.}.}.}.}.}.}.}.}.}.}.",
"}.}.}.}.}.}.}.}.}.}.}.}.}.}.}.}.}.}.}.}.}.}.}.}.}.}.}.q.q.a.a.H.H.3. .}.}.}.}.}.}.}.}.}.}.}.}.}.}.}.",
"}.}.}.}.}.}.}.}.}.}.}.}.}.}.}.}.}.}.}.}.}.}.}.}.}.}.}.y.r.H.J.J.H. .{ }.}.}.}.}.}.}.}.}.}.}.}.}.}.}.",
"}.}.}.}.}.}.}.}.}.}.}.}.}.}.}.}.}.}.}.}.}.}.}.}.}.}.}...3.f a } q.T.T.}.}.}.}.}.}.}.}.}.}.}.}.}.}.}.",
"}.}.}.}.}.}.}.}.}.}.}.}.}.}.}.}.}.}.}.}.}.}.}.}.}.}.}.{ { O   ! } }.}.}.}.}.}.}.}.}.}.}.}.}.}.}.}.}.",
"}.}.}.}.}.}.}.}.}.}.}.}.}.}.}.}.}.}.}.}.}.}.}.}.}.}.}.e e o   3 a }.}.}.}.}.}.}.}.}.}.}.}.}.}.}.}.}.",
"}.}.}.}.}.}.}.}.}.}.}.}.}.}.}.}.}.}.}.}.}.}.}.}.}.}.}.            }.}.}.}.}.}.}.}.}.}.}.}.}.}.}.}.}."
};
