/* XPM */
static char *result[] = {
/* columns rows colors chars-per-pixel */
"50 50 10 1 ",
"  c #21110D",
". c #342319",
"X c #181C32",
"o c #242A3D",
"O c #503625",
"+ c #755338",
"@ c #414B66",
"# c #677598",
"$ c #B6BEC8",
"% c None",
/* pixels */
"%%%%%%%%%%%%%%%%%%%%%%%%%%%%%%%%%%%%%%%%%%%%%%%%%%",
"%%%%%%%%%%%%%%%%%%%%%%%%%%%%%%%%%%%%%%%%%%%%%%%%%%",
"%%%%%%%%%%%%%%%%%%%%%%%%%%%%%%%%%%%%%%%%%%%%%%%%%%",
"%%%%%%%%%%%%%%%%%%%%%%%%%%%%%%%%%%%%%%%%%%%%%%%%%%",
"%%%%%%%%%%%%%%%%%%%%%%%%%%%%%%%%%%%%%%%%%%%%%%%%%%",
"%%%%%%%%%%%%%%%%%%%%%%%%%%%%%%%%%%%%%%%%%%%%%%%%%%",
"                                                  ",
"                                                  ",
"                                                  ",
"   OOOOOO#######OOOOOOOOOOOOOOOOOO#######OOOOOO   ",
"   OOOOOO#######OOOOOOOOOOOOOOOOOO#######OOOOOO   ",
"   OOOOOO#######OOOOOOOOOOOOOOOOOO#######OOOOOO   ",
"   OOOOOO#######OOOOOOOOOOOOOOOOOO#######OOOOOO   ",
"   ++++++$$$$$$$++++++++++++++++++$$$$$$$++++++   ",
"   ++++++$$$$$$$++++++++++++++++++$$$$$$$++++++   ",
"   ++++++$$$$$$$++++++++++++++++++$$$$$$$++++++   ",
"   ++++++$$$$$$$++++++++++++++++++$$$$$$$++++++   ",
"   ++++++$$$$$$$++++++++++++++++++$$$$$$$++++++   ",
"   ++++++$$$$$$$++++++++++++++++++$$$$$$$++++++   ",
"   OOO+++$$$$$$$++++++++++++++++++$$$$$$$+++OOO   ",
"   OOO+++$$$$$$$++++++++++++++++++$$$$$$$+++OOO   ",
"   OOO+++$$$$$$$++++++++++++++++++$$$$$$$+++OOO   ",
"   OOOOOO#######OOOOOOOOOOOOOOOOOO#######OOOOOO   ",
"   OOOOOO#######OOOOOOOOOOOOOOOOOO#######OOOOOO   ",
"   OOOOOO#######OOOOOOOOOOOOOOOOOO#######OOOOOO   ",
"   @@@#############$$$$$$$$$$$$#############@@@   ",
"   @@@#############$$$$$$$$$$$$#############@@@   ",
"   @@@#############$$$$$$$$$$$$#############@@@   ",
"XXX   ...@@@@@@@...@@@oooooo@@@...@@@@@@@...   XXX",
"XXX   ...@@@@@@@...@@@oooooo@@@...@@@@@@@...   XXX",
"XXX   ...@@@@@@@...@@@oooooo@@@...@@@@@@@...   XXX",
"XXX   ...#######OOO############OOO#######...   XXX",
"XXX   ...#######OOO############OOO#######...   XXX",
"XXX   ...#######OOO############OOO#######...   XXX",
"XXX   ...#######OOOOOOOOOOOOOOOOOO#######...   XXX",
"XXX   ...#######OOOOOOOOOOOOOOOOOO#######...   XXX",
"XXX   ...#######OOOOOOOOOOOOOOOOOO#######...   XXX",
"XXX   ...#######OOOOOOOOOOOOOOOOOO#######...   XXX",
"XXXXXX   #######OOOOOOOOOOOOOOOOOO#######   XXXXXX",
"XXXXXX   #######OOOOOOOOOOOOOOOOOO#######   XXXXXX",
"XXXXXX   #######OOOOOOOOOOOOOOOOOO#######   XXXXXX",
"%%%XXXXXXXXXXXXXXXXXXXXXXXXXXXXXXXXXXXXXXXXXXXX%%%",
"%%%XXXXXXXXXXXXXXXXXXXXXXXXXXXXXXXXXXXXXXXXXXXX%%%",
"%%%XXXXXXXXXXXXXXXXXXXXXXXXXXXXXXXXXXXXXXXXXXXX%%%",
"%%%%%%XXXXXXXXXXXXXXXXXXXXXXXXXXXXXXXXXXXXXX%%%%%%",
"%%%%%%XXXXXXXXXXXXXXXXXXXXXXXXXXXXXXXXXXXXXX%%%%%%",
"%%%%%%XXXXXXXXXXXXXXXXXXXXXXXXXXXXXXXXXXXXXX%%%%%%",
"%%%%%%%%%%%%%%%%%%%%%%%%%%%%%%%%%%%%%%%%%%%%%%%%%%",
"%%%%%%%%%%%%%%%%%%%%%%%%%%%%%%%%%%%%%%%%%%%%%%%%%%",
"%%%%%%%%%%%%%%%%%%%%%%%%%%%%%%%%%%%%%%%%%%%%%%%%%%"
};
