/* XPM */
static char *result[] = {
/* columns rows colors chars-per-pixel */
"50 50 190 2 ",
"   c #010203",
".  c #0B0605",
"X  c #0C0A09",
"o  c #0A0903",
"O  c #130E0C",
"+  c #190B08",
"@  c #151105",
"#  c #1C1607",
"$  c #1F1908",
"%  c #16110D",
"&  c #1B1B1B",
"*  c #171613",
"=  c #240909",
"-  c #2A1C16",
";  c #211713",
":  c #2A2009",
">  c #3C2C08",
",  c #2C241C",
"<  c #32251C",
"1  c #3D301C",
"2  c #202223",
"3  c #3C2F24",
"4  c #322B26",
"5  c #2E3030",
"6  c #363432",
"7  c #3B3A3A",
"8  c #541710",
"9  c #691912",
"0  c #751A14",
"q  c #7A1A15",
"w  c #543C07",
"e  c #4F3705",
"r  c #7C2215",
"t  c #78231A",
"y  c #4B3729",
"u  c #523929",
"i  c #453C36",
"p  c #732628",
"a  c #762527",
"s  c #6C3C2C",
"d  c #603326",
"f  c #6F3039",
"g  c #694905",
"h  c #7E5706",
"j  c #795508",
"k  c #7D5D15",
"l  c #5A4636",
"z  c #63422F",
"x  c #68432F",
"c  c #664531",
"v  c #6B4934",
"b  c #694330",
"n  c #744F38",
"m  c #77523A",
"M  c #7A533B",
"N  c #67513C",
"B  c #424242",
"V  c #554F49",
"C  c #705A4D",
"Z  c #841A16",
"A  c #8D1A17",
"S  c #8E1C1A",
"D  c #901B17",
"F  c #951A18",
"G  c #8A221C",
"H  c #972517",
"J  c #8C3817",
"K  c #9B3214",
"L  c #903D18",
"P  c #A63A1B",
"I  c #8D252A",
"U  c #842E22",
"Y  c #833124",
"T  c #885E06",
"R  c #9C5E0A",
"E  c #9B4C1A",
"W  c #A94A1B",
"Q  c #B14E1D",
"!  c #A35D0B",
"~  c #926C18",
"^  c #9C731A",
"/  c #946708",
"(  c #A6650C",
")  c #A77306",
"_  c #AE790A",
"`  c #A97508",
"'  c #B47E0D",
"]  c #A77B1B",
"[  c #AB7D19",
"{  c #BB7A19",
"}  c #82583E",
"|  c #81573E",
" . c #C3711F",
".. c #C47C1E",
"X. c #C97F1F",
"o. c #8C5E43",
"O. c #875A40",
"+. c #8B6045",
"@. c #9D6B4B",
"#. c #95694B",
"$. c #836858",
"%. c #9B7152",
"&. c #A26C4C",
"*. c #AB7452",
"=. c #A17E5F",
"-. c #B07754",
";. c #B47B57",
":. c #B57D5A",
">. c #BA7E59",
",. c #BE7352",
"<. c #B6704F",
"1. c #927868",
"2. c #C07755",
"3. c #BC8511",
"4. c #BA871A",
"5. c #B9820F",
"6. c #C48C16",
"7. c #C28F1E",
"8. c #CA921A",
"9. c #C89017",
"0. c #D0971C",
"q. c #D49B1E",
"w. c #CB8A20",
"e. c #CC8121",
"r. c #D59C20",
"t. c #D99E21",
"y. c #D59222",
"u. c #DEA323",
"i. c #BA825E",
"p. c #B6805B",
"a. c #B28965",
"s. c #BC8C65",
"d. c #BD926B",
"f. c #B99C7D",
"g. c #CB8A62",
"h. c #CA8D68",
"j. c #D18E64",
"k. c #C4946C",
"l. c #CF9066",
"z. c #D59166",
"x. c #D89469",
"c. c #DB996D",
"v. c #CD9D73",
"b. c #D39C72",
"n. c #DBA578",
"m. c #DEAA7C",
"M. c #D5A277",
"N. c #D1B06C",
"B. c #E6AD7E",
"V. c #625F87",
"C. c #5A6997",
"Z. c #5C6C9C",
"A. c #61628B",
"S. c #626B9C",
"D. c #6E7B9F",
"F. c #5A76AD",
"G. c #707EA3",
"H. c #6E87B3",
"J. c #748BB7",
"K. c #7991BF",
"L. c #6980AC",
"P. c #A28E82",
"I. c #B9BBB5",
"U. c #ABAFAF",
"Y. c #E7B182",
"T. c #EBB585",
"R. c #EEBD93",
"E. c #E3AE80",
"W. c #C6BDB7",
"Q. c #BFC3BF",
"!. c #DCC594",
"~. c #DECBA2",
"^. c #C5C8C1",
"/. c #CBCCC9",
"(. c #C6C9C3",
"). c #D0D3CC",
"_. c #D9D1CC",
"`. c #CFD0D0",
"'. c #D3D3D3",
"]. c #DDC6C5",
"[. c #E9DDC2",
"{. c #F4E6D4",
"}. c #EAE9E8",
"|. c #F4EDE8",
" X c #F4F4F3",
".X c #F5F7FA",
"XX c #FFFFFF",
"oX c #FDF6F0",
"OX c #EEF1F3",
"+X c None",
/* pixels */
"+X+X+X+X+X+X+X+X+X+X+X+X+X+X+X+X+X+X+X) ) q.u.) ` q.u.u.u._ ) +X+X+X+X+X+X+X+X+X+X+X+X+X+X+X+X+X+X+X",
"+X+X+X+X+X+X+X+X+X+X+X+X+X+X+X+X+X+X_ 6.6.u.u.6.9.q.u.u.u.9.6.' +X+X+X+X+X+X+X+X+X+X+X+X+X+X+X+X+X+X",
"+X+X+X+X+X+X+X+X+X+X+X+X+X+X+X+X+X) _ q.u.u.u.u.u.u.u.u.u.u.u.' ) +X+X+X+X+X+X+X+X+X+X+X+X+X+X+X+X+X",
"+X+X+X+X+X+X+X+X+X+X+X+X+X+X+X+X+X3.3.9.9. . . . . . . . .t.u.6.3.+X+X+X+X+X+X+X+X+X+X+X+X+X+X+X+X+X",
"+X+X+X+X+X+X+X+X+X+X+X+X+X+X+X) ` q.q.' ) H F F F F F F F y.u.u.u.' ) +X+X+X+X+X+X+X+X+X+X+X+X+X+X+X",
"+X+X+X+X+X+X+X+X+X+X+X+X+X+X+XR R ....( ! K K K K K K K P  .X.X.X.( R +X+X+X+X+X+X+X+X+X+X+X+X+X+X+X",
"+X+X+X+X+X+X+X+X+X+X+X+X+X+X+X0 q A F F F ( ` ) ) ) ) ) ` H F F F q 0 ].XX+X+X+X+X+X+X+X+X+X+X+X+X+X",
"+X+X+X+X+X+X+X+X+X+X+X+X+X+X+XE E 9 9 W Q ' 6.5.3.3.5.T g W Q Q W 8 8 f.~.+X+X+X+X+X+X+X+X+X+X+X+X+X",
"+X+X+X+X+X+X+X+X+X+X+X) ) ) ) u.r.: # 7.u.u.u.u.u.u.u.>   7.u.u.0.:   h ) ) ) [.XX+X+X+X+X+X+X+X+X+X",
"+X+X+X+X+X+X+X+X+X+X+X' 5.) ) ] ^ $ @ ~ ] ] ] ] ] ] ] :   ~ ] ] ^ $   h ) ' 5.!.[.{.+X+X+X+X+X+X+X+X",
"+X+X+X+X+X+X+X+X+X) _ t.u._ )                                         h ) 0.u.5.[ ~.XX+X+X+X+X+X+X+X",
"+X+X+X+X+X+X+X+X+X3.3.9.9.j g                                         e g 4.9.3.4.N.~.+X+X+X+X+X+X+X",
"+X+X+X+X+X+X+X) _ q.t._ ` @                                               T ) 0.u.3.) +X+X+X+X+X+X+X",
"+X+X+X+X+X+X+X) _ q.r.T h X               < 3                             T ) 0.u.6.' +X+X+X+X+X+X+X",
"+X+X+X+X+X+X+X) _ q.7.#                   b.T..   .   .   .               T ) 0.u.u.u.+X+X+X+X+X+X+X",
"+X+X+X+X+X+X+X) ' q.8.w > o             . v.T.  . y l c l X .             w g 7.u.u.u.+X+X+X+X+X+X+X",
"+X+X+X+X+X+X+X+X+Xu.r.) / @       .   .   b.T.. O a.E.m.E.;     .         o o ] u.+X+X+X+X+X+X+X+X+X",
"+X+X+X+X+X+X+X+X+Xu.r.3.5.@         X 4 6 =.a.3 y v.T.d.a.7 6 %       , 3 X   k ] +X+X+X+X+X+X+X+X+X",
"+X+X+X+X+X+X+X+X+X+X+Xu.u.$     . . & U.^.&   T.T.T.T.3   U.(.6   .   a.T.,       +X+X+X+X+X+X+X+X+X",
"+X+X+X+X+X+X+X+X+X+X+X4.4.1 , < < < i I.).&   T.T.T.T.3   I.).6 . - < d.T.,       +X+X+X+X+X+X+X+X+X",
"+X+X+X+X+X+X+X+X+X+X+X    v.T.T.T.T.R.oXXX2   T.T.T.T.3   }..Xi O k.T.T.T.,   +X+X+X+X+X+X+X+X+X+X+X",
"+X+X+X+X+X+X+X+X+X+X+X    v.T.m.n.Y.R.{.|.l 3 T.T.T.T.N 3 W.'.C y d.n.s.a.V B +X+X+X+X+X+X+X+X+X+X+X",
"+X+X+X+X+X+X+X+X+X+X+X+X+X+X+X*.*.B.T.T.T.T.T.T.T.T.T.T.T.m c v.Y.:.*.,   `.XX+X+X+X+X+X+X+X+X+X+X+X",
"+X+X+X+X+X+X+X+X+X+X+X+X+X+X+X@.&.b.m.B.B.T.T.B.Y.Y.B.T.T.o.m k.n.*.@.< O /.XX+X+X+X+X+X+X+X+X+X+X+X",
"+X+X+X+X+X+X+X+X+X+X+Xc c &.*.v n &.,.j.x.Y.T.z.x.x.x.B.T.z.h.:.*.m v z z +X+X+X+X+X+X+X+X+X+X+X+X+X",
"+X+X+X+X+X+X+X+X+X+X+X| } *.;.m n C O.<.2.h.j.g.g.g.g.h.l.,.2.o.| O.| v c +X+X+X+X+X+X+X+X+X+X+X+X+X",
"+X+X+X+X+X+X+X+X+Xc v g.x.z.z.*.&.; . 9 0 0 0 *.*.&.<.Y 0 0 0 + O *.x.} c @.*.+X+X+X+X+X+X+X+X+X+X+X",
"+X+X+X+X+X+X+X+X+Xv n g.z.x.z.&.@.- + 9 q q q &.&.&.&.G q q Z = + ;.x.o.n &.*.+X+X+X+X+X+X+X+X+X+X+X",
"+X+X+X+X+X+X+XXX}.$.n g.z.z.z.c s t 0 A F F F 0 0 0 0 F F F F q t b.T.c.z.-.*.*.*.+X+X+X+X+X+X+X+X+X",
"+X+X+X+X+X+X+XXX|.P.1.:.>.>.>.c s r Z D F F F q q J L F F F F Z G i.v.g.g.>.;.p.i.:.+X+X+X+X+X+X+X+X",
"+X+X+X+X+X+X+XXXXXXX|.C b c c c b G F F F F F 0 r 7.u.P F F F F F b x #.*.g.z.B.Y.g.*.+X+X+X+X+X+X+X",
"+X+X+X+X+X+X+XXXXXXX|.1.$.$.$.s s S F F F F F q q { 8.P F F F F D d u o.@.z.c.B.E.s.@.+X+X+X+X+X+X+X",
"+X+X+X+X+X+X+XXXXXXXXX X X X X0 0 D F F F F F 0 0 q t D F F F F A + . u v M.Y.T.Y.%.v +X+X+X+X+X+X+X",
"+X+X+X+X+X+X+XXXXXXXXXXXXXXXXX0 0 S S F F F F 0 q J L H F F F D A =   y c s.v.k.k.#.c +X+X+X+X+X+X+X",
"+X+X+X+X+X+X+XXXXXXXXXXXXX+X+X+X+X0 q S F F F 0 t w.u.P F F F Z 0 +X+X+X+Xc c c c +X+X+X+X+X+X+X+X+X",
"+X+X+X+X+X+X+XXXXXXXXXXXXX+X+X+X+Xp a S F F F 0 r ..y.P F F D a p +X+X+X+Xc c c c +X+X+X+X+X+X+X+X+X",
"+X+X+X+X+X+X+X+X+X+X+X+X+X+X+XC.Z.F.Z.p 0 S D 9 q A F F F q 0 A.F.Z.C.+X+X+X+X+X+X+X+X+X+X+X+X+X+X+X",
"+X+X+X+X+X+X+X+X+X+X+X+X+X+X+XC.C.F.Z.f p I I p p I I I I a p A.F.Z.C.+X+X+X+X+X+X+X+X+X+X+X+X+X+X+X",
"+X+X+X+X+X+X+X+X+X+X+X+X+X+X+XC.Z.F.F.Z.Z.S.F.Z.Z.A.A.S.S.Z.S.F.F.Z.C.+X+X+X+X+X+X+X+X+X+X+X+X+X+X+X",
"+X+X+X+X+X+X+X+X+X+X+X+X+X+X+XD.G.K.K.K.K.H.H.F.F.C.C.G.H.K.K.K.K.L.D.+X+X+X+X+X+X+X+X+X+X+X+X+X+X+X",
"+X+X+X+X+X+X+X+X+X+X+X+X+XXXXXQ.^.OX.X.X.X(.~.Z.Z.C.Z.U.~.OX.X.XOX/.Q.OXXX+X+X+X+X+X+X+X+X+X+X+X+X+X",
"+X+X+X+X+X+X+X+X+X+X+X+X+XXXXX^.(. XXXXXXX/.^.C.C.C.Z.U.Q..XXXXX.X`.~. XXX+X+X+X+X+X+X+X+X+X+X+X+X+X",
"+X+X+X+X+X+X+X+X+X+X+X+X+X+X+Xz.x.B.Y.c.z.-.*.+X+X+X+XXX.X2     * `.XX+X+X+X+X+X+X+X+X+X+X+X+X+X+X+X",
"+X+X+X+X+X+X+X+X+X+X+X+X+X+X+Xj.z.B.Y.c.x.:.*.+X+X+X+XXX.XB 2 2 5 '.XX+X+X+X+X+X+X+X+X+X+X+X+X+X+X+X",
"+X+X+X+X+X+X+X+X+X+X+X+X+X+X+X*.*.m.T.T.T.x.x.+X+X+X+XXXXXXXXXXX.XXXXX+X+X+X+X+X+X+X+X+X+X+X+X+X+X+X",
"+X+X+X+X+X+X+X+X+X+X+X+X+X+X+X*.-.n.m.M.v.z.j.+X+X+X+XXXXXXXXXXXXXXXXX+X+X+X+X+X+X+X+X+X+X+X+X+X+X+X",
"+X+X+X+X+X+X+X+X+X+X+X+X+X+X+X+X+X;.&.< & @.*.+X+X+X+X+X+XXXXXXXXXXXXX+X+X+X+X+X+X+X+X+X+X+X+X+X+X+X",
"+X+X+X+X+X+X+X+X+X+X+X+X+X+X+X+X+X+.m O   M o.+X+X+X+X+X+XXXXXXXXXXXXX+X+X+X+X+X+X+X+X+X+X+X+X+X+X+X",
"+X+X+X+X+X+X+X+X+X+X+X+X+X+X+X+X+X% O     O % +X+X+X+X+X+X+X+X+X+X+X+X+X+X+X+X+X+X+X+X+X+X+X+X+X+X+X",
"+X+X+X+X+X+X+X+X+X+X+X+X+X+X+X+X+X            +X+X+X+X+X+X+X+X+X+X+X+X+X+X+X+X+X+X+X+X+X+X+X+X+X+X+X"
};
