/* XPM */
static char *result[] = {
/* columns rows colors chars-per-pixel */
"50 50 178 2 ",
"   c #000203",
".  c #0A0405",
"X  c #070809",
"o  c #0E0B09",
"O  c #180808",
"+  c #151104",
"@  c #1A130F",
"#  c #161617",
"$  c #291E08",
"%  c #2B1B14",
"&  c #201A18",
"*  c #331611",
"=  c #2A2009",
"-  c #392B0B",
";  c #35280A",
":  c #38271D",
">  c #202223",
",  c #312C2B",
"<  c #383230",
"1  c #4D120E",
"2  c #52130F",
"3  c #5C1511",
"4  c #5D1C16",
"5  c #661612",
"6  c #661C16",
"7  c #751A14",
"8  c #7C1A15",
"9  c #7C1615",
"0  c #543F0E",
"q  c #5E2018",
"w  c #7B2413",
"e  c #72241B",
"r  c #7D2618",
"t  c #4D3426",
"y  c #583C2B",
"u  c #762526",
"i  c #6F3D2D",
"p  c #5E4937",
"a  c #62422E",
"s  c #6F4D28",
"d  c #724E29",
"f  c #775127",
"g  c #664531",
"h  c #694531",
"j  c #6D4A34",
"k  c #744F38",
"l  c #774B36",
"z  c #775139",
"x  c #7C543C",
"c  c #755130",
"v  c #765847",
"b  c #77604D",
"n  c #7C6250",
"m  c #6B4F6B",
"M  c #714C68",
"N  c #655576",
"B  c #68577A",
"V  c #715476",
"C  c #606162",
"Z  c #696A6A",
"A  c #717372",
"S  c #841A16",
"D  c #8E1A17",
"F  c #8F1C19",
"G  c #911A17",
"H  c #961A18",
"J  c #822B14",
"K  c #88221A",
"L  c #992616",
"P  c #9F2B1A",
"I  c #8C3C14",
"U  c #9C590B",
"Y  c #A25E0B",
"T  c #9E6309",
"R  c #A36808",
"E  c #A46A09",
"W  c #A77306",
"Q  c #AB7509",
"!  c #AE790A",
"~  c #A37009",
"^  c #B37D0D",
"/  c #B1730F",
"(  c #825922",
")  c #834E39",
"_  c #82583F",
"`  c #95583E",
"'  c #835D43",
"]  c #88644F",
"[  c #966548",
"{  c #9C6A4A",
"}  c #97674A",
"|  c #976E50",
" . c #986F51",
".. c #836858",
"X. c #A26E4D",
"o. c #A5704F",
"O. c #A47453",
"+. c #AB7452",
"@. c #B37A56",
"#. c #B97D59",
"$. c #B07754",
"%. c #B7810F",
"&. c #BB8511",
"*. c #B28017",
"=. c #BF902F",
"-. c #BB933F",
";. c #B28525",
":. c #C4811F",
">. c #CC8A1D",
",. c #CF951B",
"<. c #C7901B",
"1. c #D1971C",
"2. c #D49A1E",
"3. c #CB8220",
"4. c #C68D22",
"5. c #D28F20",
"6. c #D49222",
"7. c #D69C20",
"8. c #D89E20",
"9. c #DEA323",
"0. c #BA957C",
"q. c #B78E75",
"w. c #C1835C",
"e. c #C38B63",
"r. c #CB8A61",
"t. c #CB9069",
"y. c #D69166",
"u. c #D99569",
"i. c #DC9A6E",
"p. c #CD9B72",
"a. c #D39A71",
"s. c #DDA97B",
"d. c #DCA477",
"f. c #E6AC7E",
"g. c #5A6997",
"h. c #5A6B9B",
"j. c #5C6794",
"k. c #61618A",
"l. c #5D6FA1",
"z. c #5A76AD",
"x. c #5A78B0",
"c. c #BB9880",
"v. c #96A2B3",
"b. c #AAB0B6",
"n. c #ABB4BB",
"m. c #B6B6B6",
"M. c #D1A88A",
"N. c #E3AE80",
"B. c #EAB484",
"V. c #E7B182",
"C. c #E7BCA1",
"Z. c #DAC290",
"A. c #E7CCAA",
"S. c #F1CEB1",
"D. c #E7D7B9",
"F. c #B2B9C1",
"G. c #C1C1C1",
"H. c #C5C8C0",
"J. c #CBCCC8",
"K. c #C9CCC4",
"L. c #D0D2CD",
"P. c #D9D1CC",
"I. c #CFD0D0",
"U. c #D8D6D6",
"Y. c #D6CBC5",
"T. c #E9DCC1",
"R. c #E7E1DE",
"E. c #CED5E1",
"W. c #D6DDEB",
"Q. c #D1D8E6",
"!. c #E8E4E1",
"~. c #ECE8E6",
"^. c #E6E7E6",
"/. c #F4EEE0",
"(. c #F3F4F3",
"). c #FFFFFF",
"_. c #FAF6F0",
"`. c None",
/* pixels */
"`.`.`.`.`.`.`.`.`.`.`.`.`.`.`.`.`.`.`.W W 2.9.W Q 2.9.9.9.! W `.`.`.`.`.`.`.`.`.`.`.`.`.`.`.`.`.`.`.",
"`.`.`.`.`.`.`.`.`.`.`.`.`.`.`.`.`.`.`.! Q 9.9.! %.2.9.9.9.%.! `.`.`.`.`.`.`.`.`.`.`.`.`.`.`.`.`.`.`.",
"`.`.`.`.`.`.`.`.`.`.`.`.`.`.`.`.`.W ! 1.2.9.9.2.1.9.9.9.9.2.2.%.W `.`.`.`.`.`.`.`.`.`.`.`.`.`.`.`.`.",
"`.`.`.`.`.`.`.`.`.`.`.`.`.`.`.`.`.! ^ 2.9.9.9.9.9.9.9.9.9.9.9.&.! `.`.`.`.`.`.`.`.`.`.`.`.`.`.`.`.`.",
"`.`.`.`.`.`.`.`.`.`.`.`.`.`.`.W Q ,.1.%.Q 9.9.9.9.9.9.9.9.9.9.9.2.^ W `.`.`.`.`.`.`.`.`.`.`.`.`.`.`.",
"`.`.`.`.`.`.`.`.`.`.`.`.`.`.`.~ Q 2.8.Q W 2.9.9.9.9.9.9.9.9.9.9.2.^ W `.`.`.`.`.`.`.`.`.`.`.`.`.`.`.",
"`.`.`.`.`.`.`.`.`.`.`.`.`.`.`.9.8.9.9.9.2.%.Q 9.9.9.9.9.9.9.9.9.8.^ Q D.).`.`.`.`.`.`.`.`.`.`.`.`.`.",
"`.`.`.`.`.`.`.`.`.`.`.`.`.`.`.9.9.9.9.9.9.! W 9.9.9.9.9.9.9.9.9.9.^ W T.).`.`.`.`.`.`.`.`.`.`.`.`.`.",
"`.`.`.`.`.`.`.`.`.`.`.9.9.J 7 7 7 R ! 8.9.9.9.9.9.9.9.9.9.9.9.%.W w 7 7 7 T W D.).`.`.`.`.`.`.`.`.`.",
"`.`.`.`.`.`.`.`.`.`.`.9.9.J 7 8 7 U Q 8.9.9.9.9.9.9.9.8.9.2.8.^ R J 7 7 7 R W D._.`.`.`.`.`.`.`.`.`.",
"`.`.`.`.`.`.`.`.`.W ! 8.9.J 7 D G J I 2.9.9.9.9.9.9.9.<.^ ^ ^ I r D G 8 7 :.2.=.-.A.).`.`.`.`.`.`.`.",
"`.`.`.`.`.`.`.`.`.! ^ 8.9.I J H H S K 3.6.6.6.1.7.6.6./ R E E J 8 G H S w <.9.&.*.Z./.`.`.`.`.`.`.`.",
"`.`.`.`.`.`.`.W ! 1.9.9.9.6.6.H H G H P P P P P P P P L L L L H H H H Y R 2.9.9.7.=.;.`.`.`.`.`.`.`.",
"`.`.`.`.`.`.`.W ! 2.9.9.9.9.9.H H H H H H H H H H H H H H H H H H H H Y W 2.9.9.9.&.W `.`.`.`.`.`.`.",
"`.`.`.`.`.`.`.W ! 2.9.9.9.^ ! 6.5.Q Y w 8 G H 8 8 8 8 7 8 8 8 U E >.6.7.2.9.9.9.9.9.2.`.`.`.`.`.`.`.",
"`.`.`.`.`.`.`.W ! 2.9.9.9.! W 9.8.^ R w 7 G H 7 7 7 7 7 7 7 7 U Q 2.9.9.9.9.9.9.9.9.9.`.`.`.`.`.`.`.",
"`.`.`.`.`.`.`.`.`.9.9.9.9.1.2.9.9.1.1.3.3.3.3.3.3.;.:.:.:.:.:.1.1.9.9.9.9.:.%.2.9.9.`.`.`.`.`.`.`.`.",
"`.`.`.`.`.`.`.`.`.9.9.9.9.9.9.2.9.9.9.9.9.9.9.9.9.9.9.9.9.9.9.9.9.9.8.8.8.%.W <.1.`.`.`.`.`.`.`.`.`.",
"`.`.`.`.`.`.`.`.`.`.`.9.9.%.^ ^ ^ 8.9.9.9.9.9.9.9.9.9.9.9.9.9.9.8.&.^ ^ ^ ,.2.0 = `.`.`.`.`.`.`.`.`.",
"`.`.`.`.`.`.`.`.`.`.`.9.9.! W W Q 2.9.9.9.9.9.9.9.9.9.9.9.9.9.9.8.^ W W W 2.9.-   `.`.`.`.`.`.`.`.`.",
"`.`.`.`.`.`.`.`.`.`.`.- - s f 1.,.&.^ ^ %.^ %.^ ^ ^ ^ ^ ^ ^ ^ ^ ^ ( f - $ ; - `.`.`.`.`.`.`.`.`.`.`.",
"`.`.`.`.`.`.`.`.`.`.`.    y g 9.9.! W ~ W W W W Q W Q W Q Q W Q ~ d g @       `.`.`.`.`.`.`.`.`.`.`.",
"`.`.`.`.`.`.`.`.`.`.`.`.`.!.~.k s $ + + + + + + + + + + + + + + + o o     m.!.`.`.`.`.`.`.`.`.`.`.`.",
"`.`.`.`.`.`.`.`.`.`.`.`.`.).).g p o                                       L.).`.`.`.`.`.`.`.`.`.`.`.",
"`.`.`.`.`.`.`.`.`.`.`.g g q.p.g h x z 4 3 .   2 2 O       1 3 l v y t t t `.`.`.`.`.`.`.`.`.`.`.`.`.",
"`.`.`.`.`.`.`.`.`.`.`.j j o.+.j j [ [ r 7 O . 8 7 O . . . 5 7 ` { k j h h `.`.`.`.`.`.`.`.`.`.`.`.`.",
"`.`.`.`.`.`.`.`.`.g l #.w.r.r.{ [ : * 5 7 3 3 G D 9 9 5 3 7 7 * % X.w.x h { +.`.`.`.`.`.`.`.`.`.`.`.",
"`.`.`.`.`.`.`.`.`.g k r.y.y.y.+.{ % . 5 7 8 7 H H H H 9 7 7 7 O o $.y.' h { +.`.`.`.`.`.`.`.`.`.`.`.",
"`.`.`.`.`.`.`.).R.n k w.y.y.y.z l 6 3 S H G D H H H H G D D D 5 6 t.N.e.#.+.+.+.+.`.`.`.`.`.`.`.`.`.",
"`.`.`.`.`.`.`.).~...k e.y.y.y.h a e 8 G H H H H H H H H H H H 9 r i.B.i.y.$.+.+.+.`.`.`.`.`.`.`.`.`.",
"`.`.`.`.`.`.`.).).R.Y.] x x x h h K G H H H H H H H H H H H H H K ) ' O.$.r.r.d.d.e.+.`.`.`.`.`.`.`.",
"`.`.`.`.`.`.`.).).).~.v g h h h h K H H H H H H H H H H H H H H H i a { +.r.y.f.V.e.+.`.`.`.`.`.`.`.",
"`.`.`.`.`.`.`.).).).).P.P.P.P.e e G H H H H H H H H H H H H H H D * @ i z a.f.V.V.O.z `.`.`.`.`.`.`.",
"`.`.`.`.`.`.`.).).).).).).).).7 7 D H H H H H H H H H H H H H H D O   t g p.N.N.s.| g `.`.`.`.`.`.`.",
"`.`.`.`.`.`.`.).).).).).).`.`.`.`.S S G H H H H H H H H H H H S 8 `.`.`.`.|  . .| ] `.`.`.`.`.`.`.`.",
"`.`.`.`.`.`.`.).).).).).).`.`.`.`.7 8 G H H H H H H H H H H H 8 7 `.`.`.`.g g g g `.`.`.`.`.`.`.`.`.",
"`.`.`.`.`.`.`.`.`.`.`.`.`.`.`.g.g.k.B u 8 H H 8 S H H H H S S m k.j.g.`.`.`.`.`.`.`.`.`.`.`.`.`.`.`.",
"`.`.`.`.`.`.`.`.`.`.`.`.`.`.`.g.g.z.l.u 7 G H 7 7 G H H H 8 7 k.x.h.g.`.`.`.`.`.`.`.`.`.`.`.`.`.`.`.",
"`.`.`.`.`.`.`.`.`.`.`.`.`.`.`.g.g.z.l.k.N V V N N m M V V N N l.z.h.g.`.`.`.`.`.`.`.`.`.`.`.`.`.`.`.",
"`.`.`.`.`.`.`.`.`.`.`.`.`.`.`.g.g.z.x.x.x.x.x.x.x.h.g.z.x.x.x.x.x.h.g.`.`.`.`.`.`.`.`.`.`.`.`.`.`.`.",
"`.`.`.`.`.`.`.`.`.`.`.`.`.).).b.b.E.W.W.W.F.n.h.l.h.j.v.n.E.W.W.W.n.n.^.).`.`.`.`.`.`.`.`.`.`.`.`.`.",
"`.`.`.`.`.`.`.`.`.`.`.`.`.).).H.H.(.).).).L.H.g.g.j.j.b.H.).).).).L.H.(.).`.`.`.`.`.`.`.`.`.`.`.`.`.",
"`.`.`.`.`.`.`.`.`.`.`.`.`.`.`.M.M.S.S.A.C.c.0.`.`.`.`.Q.~.A C C Z L.~.(.`.`.`.`.`.`.`.`.`.`.`.`.`.`.",
"`.`.`.`.`.`.`.`.`.`.`.`.`.`.`.y.u.f.f.u.y.+.+.`.`.`.`.).).>     # L.).`.`.`.`.`.`.`.`.`.`.`.`.`.`.`.",
"`.`.`.`.`.`.`.`.`.`.`.`.`.`.`.@.#.f.V.f.V.r.r.`.`.`.`.).).J.F.G.G.(.).`.`.`.`.`.`.`.`.`.`.`.`.`.`.`.",
"`.`.`.`.`.`.`.`.`.`.`.`.`.`.`.+.+.f.B.B.B.u.y.`.`.`.`.).).).).).).).).`.`.`.`.`.`.`.`.`.`.`.`.`.`.`.",
"`.`.`.`.`.`.`.`.`.`.`.`.`.`.`.`.`.p p b n v v `.`.`.`.`.`.`.`.`.`.`.`.`.`.`.`.`.`.`.`.`.`.`.`.`.`.`.",
"`.`.`.`.`.`.`.`.`.`.`.`.`.`.`.`.`.  X , < < < `.`.`.`.`.`.`.`.`.`.`.`.`.`.`.`.`.`.`.`.`.`.`.`.`.`.`.",
"`.`.`.`.`.`.`.`.`.`.`.`.`.`.`.`.`.  X , < & # `.`.`.`.`.`.`.`.`.`.`.`.`.`.`.`.`.`.`.`.`.`.`.`.`.`.`.",
"`.`.`.`.`.`.`.`.`.`.`.`.`.`.`.`.`.  X , < X X `.`.`.`.`.`.`.`.`.`.`.`.`.`.`.`.`.`.`.`.`.`.`.`.`.`.`."
};
