/* XPM */
static char *result[] = {
/* columns rows colors chars-per-pixel */
"50 50 183 2 ",
"   c #000203",
".  c #0B0903",
"X  c #0E0C0A",
"o  c #080703",
"O  c #1A0807",
"+  c #19130D",
"@  c #181204",
"#  c #280B09",
"$  c #201704",
"%  c #251C06",
"&  c #201812",
"*  c #2A2009",
"=  c #382907",
"-  c #2C241C",
";  c #53130F",
":  c #5C1511",
">  c #621F18",
",  c #751A14",
"<  c #7D1A15",
"1  c #543B05",
"2  c #5E2018",
"3  c #473A1C",
"4  c #762618",
"5  c #693E2C",
"6  c #7E373E",
"7  c #6A4A05",
"8  c #664705",
"9  c #7D5705",
"0  c #765205",
"q  c #7D591A",
"w  c #67432F",
"e  c #664531",
"r  c #654839",
"t  c #6F4C36",
"y  c #744E37",
"u  c #734632",
"i  c #775139",
"p  c #7B533B",
"a  c #6B3846",
"s  c #765C44",
"d  c #7F5A41",
"f  c #635251",
"g  c #755D55",
"h  c #754346",
"j  c #5D607E",
"k  c #606162",
"l  c #7A7168",
"z  c #841A16",
"x  c #8C1A17",
"c  c #8D1E1A",
"v  c #911B17",
"b  c #961A18",
"n  c #883C0F",
"m  c #892818",
"M  c #9B261C",
"N  c #992915",
"B  c #833211",
"V  c #893415",
"C  c #8F3C18",
"Z  c #923511",
"A  c #913D18",
"S  c #9E3D1A",
"D  c #9C3813",
"F  c #A83D1B",
"G  c #A6381B",
"H  c #8C2720",
"J  c #883628",
"K  c #953529",
"L  c #912D2E",
"P  c #A53C2F",
"I  c #8E470D",
"U  c #964A0D",
"Y  c #885E06",
"T  c #9B5D0A",
"R  c #95520C",
"E  c #9C4913",
"W  c #9C5518",
"Q  c #A1520D",
"!  c #A35D0B",
"~  c #A74B15",
"^  c #B14E1D",
"/  c #B95D1E",
"(  c #8B6007",
")  c #9D6C06",
"_  c #9E6F12",
"`  c #A86B0E",
"'  c #A77306",
"]  c #AB7608",
"[  c #AF7A0A",
"{  c #A5750F",
"}  c #B37D0D",
"|  c #A96B11",
" . c #B26D13",
".. c #BD6A1C",
"X. c #B47916",
"o. c #AC7919",
"O. c #854230",
"+. c #934131",
"@. c #82583F",
"#. c #80573E",
"$. c #A74535",
"%. c #A3523C",
"&. c #C3701F",
"*. c #8A5E43",
"=. c #916245",
"-. c #9C6A4A",
";. c #956A4C",
":. c #83695B",
">. c #8C6C50",
",. c #A16D4D",
"<. c #A96E4E",
"1. c #A6704F",
"2. c #AB7452",
"3. c #AF7A57",
"4. c #A27251",
"5. c #B47B57",
"6. c #B37C58",
"7. c #BB7F59",
"8. c #B8810F",
"9. c #BC8511",
"0. c #B4801E",
"q. c #B78314",
"w. c #B88D35",
"e. c #C38B15",
"r. c #C6831D",
"t. c #CB9219",
"y. c #C7901B",
"u. c #D1971C",
"i. c #D49A1E",
"p. c #D29A21",
"a. c #DA9E22",
"s. c #DEA323",
"d. c #B6805B",
"f. c #BC845E",
"g. c #BD9645",
"h. c #B98B66",
"j. c #BF936C",
"k. c #BE9266",
"l. c #C0825C",
"z. c #CB8B62",
"x. c #C68D66",
"c. c #CB946B",
"v. c #C7976F",
"b. c #D69166",
"n. c #D89368",
"m. c #DA986C",
"M. c #CA9970",
"N. c #D99E72",
"B. c #DBA276",
"V. c #DFA97B",
"C. c #D2A075",
"Z. c #C8A864",
"A. c #E4AB7D",
"S. c #E7B17D",
"D. c #5C6386",
"F. c #5A6997",
"G. c #5B6E9B",
"H. c #67779F",
"J. c #5A78B0",
"K. c #7281A5",
"L. c #7B8AAC",
"P. c #6E87B3",
"I. c #7A92BF",
"U. c #D0AB95",
"Y. c #E3AE80",
"T. c #E5B182",
"R. c #EBB585",
"E. c #ECB98B",
"W. c #D0BAA9",
"Q. c #D3C4B4",
"!. c #E9D5B6",
"~. c #C5C8C0",
"^. c #D0CEC6",
"/. c #D0D3CC",
"(. c #D4D6D0",
"). c #E9DCC1",
"_. c #EBDDD5",
"`. c #F7EADD",
"'. c #FAEDE1",
"]. c #F2E9E3",
"[. c #FBF1E8",
"{. c #FFFFFF",
"}. c None",
/* pixels */
"}.}.}.}.}.}.}.}.}.}.}.}.}.}.}.}.}.}.}.s.s.s.s.' ] i.s.8.' }.}.}.}.}.}.}.}.}.}.}.}.}.}.}.}.}.}.}.}.}.",
"}.}.}.}.}.}.}.}.}.}.}.}.}.}.}.}.}.}.}.s.s.s.s.' [ i.s.8.' }.}.}.}.}.}.}.}.}.}.}.}.}.}.}.}.}.}.}.}.}.",
"}.}.}.}.}.}.}.}.}.}.}.}.}.}.}.s.t.' ] } 8.s.s.i.i.s.s.i.i.9.' }.}.}.}.}.}.}.}.}.}.}.}.}.}.}.}.}.}.}.",
"}.}.}.}.}.}.}.}.}.}.}.}.}.}.s.s.t.' ' ' } s.s.s.s.s.s.s.s.9.' ' }.}.}.}.}.}.}.}.}.}.}.}.}.}.}.}.}.}.",
"}.}.}.}.}.}.}.}.}.}.}.}.}.' e.s.i.u.i.u.i.s.s.s.i.e.} i.s.9.' R , }.}.}.}.}.}.}.}.}.}.}.}.}.}.}.}.}.",
"}.}.}.}.}.}.}.}.}.}.}.}.' ' e.s.s.s.s.s.s.s.s.s.s.} ' u.s.9.' I , , }.}.}.}.}.}.}.}.}.}.}.}.}.}.}.}.",
"}.}.}.}.}.}.}.}.}.}.' ' e.i.e.} e.s.s.s.s.s.s.} } u.i.8.} ~ N m , , , B ' } a.s.' ' }.}.}.}.}.}.}.}.",
"}.}.}.}.}.}.}.}.}.}.' ' t.s.e.' 9.s.s.s.s.s.s.' ] i.s.} ' D b z , , , B ' } s.s.' ' }.}.}.}.}.}.}.}.",
"}.}.}.}.}.}.}.}.}.}.' ' t.s.i.u.a.s.s.s.s.s.s.u.u.a.s.~ N N b b x Z T ` u.i.s.s.u.t.} ' }.}.}.}.}.}.",
"}.}.}.}.}.}.}.}.}.}.' ' t.s.s.s.s.s.s.s.s.s.s.s.s.s.s.F b b b b b D ' 8.s.s.s.s.s.a.} ' }.}.}.}.}.}.",
"}.}.}.}.}.}.}.}.' ' e.t.a.s.s.s.s.s.s.s.s.s.s.s.a./ ^ m z z z Z Q  .t.t.s.s.s.s.9.9.}.}.}.}.}.}.}.}.",
"}.}.}.}.}.}.}.}.' ' u.s.s.s.s.s.s.s.s.s.s.s.s.s.a.G b z , , , I ' 9.s.s.s.s.s.s.' ' }.}.}.}.}.}.}.}.",
"}.}.}.}.}.}.}.}.' ' u.s.t.e.t.s.s.s.s.s.a.e.e./ / N b < , B I ` e.t.s.a.e.e.e.e.1 1 }.}.}.}.}.}.}.}.",
"}.}.}.}.}.}.}.}.' ' u.s.9.' e.s.s.s.s.s.i.] ' b b b b < , R ' e.s.s.s.i.' ' ' ]     }.}.}.}.}.}.}.}.",
"}.}.}.}.}.}.}.}.' ' e.t.e.9.e.t.y.&.&.&...Q Q b b x x V n | 9.t.s.p.t.9.' ) 7 7     }.}.}.}.}.}.}.}.",
"}.}.}.}.}.}.}.}.}.}.' ' t.s.e.' Q b b b b b b b b < , T ' t.s.s.s.t.' ' ' Y .   }.}.}.}.}.}.}.}.}.}.",
"}.}.}.}.}.}.}.}.}.}.T ` X.r. .! ~ b b b b x x F F A A | 8.e.u.u.t.q.9 9 9 8 o   }.}.}.}.}.}.}.}.}.}.",
"}.}.}.}.}.}.}.}.}.}., , , , x b b b b b v , , s.s.s.s.s.s.9.' ' ] 7             }.}.}.}.}.}.}.}.}.}.",
"}.}.}.}.}.}.}.}.}.}.B 4 , , z b v v b N N V V s.s.i.i.i.t._ Y _ o.q & +         }.}.}.}.}.}.}.}.}.}.",
"}.}.}.}.}.}.}.}.' ' ' ' n , z b x , B ' } s.s.s.s.} ' ' ' 1   s R.N.2.@.    }.}.}.}.}.}.}.}.}.}.}.}.",
"}.}.}.}.}.}.}.}.' ' } } W A S F S C E 8.9.t.u.u.t.[ ' w.g.3   s R.B.f.;.    }.}.}.}.}.}.}.}.}.}.}.}.",
"}.}.}.}.}.}.}.}.' ' u.s.s.s.s.s.s.a.s.s.i.[ ' ' ' ' ' ).{.k   s R.R.R.R.}.}.    }.}.}.}.}.}.}.}.}.}.",
"}.}.}.}.}.}.}.}.} } t.i.s.s.s.s.a.i.i.i.t.] ' Y ( o.0.!.[.l - >.R.R.T.A.}.}.    }.}.}.}.}.}.}.}.}.}.",
"}.}.}.}.}.}.s.s.s.s.8.] t.s.s.s.t.] ] ] ' ' ' . + k.S.E.E.T.V.T.R.A.n.n.}.}.}.}.}.}.}.}.}.}.}.}.}.}.",
"}.}.}.}.}.}.s.s.s.s.8.' t.s.s.s.y.' ' ' ' ' '   X j.R.R.R.R.R.R.R.A.b.b.}.}.}.}.}.}.}.}.}.}.}.}.}.}.",
"}.}.}.}.}.}.' ' ' ' u.s.s.s.e.' ' ' 9         2.3.V.R.R.R.R.R.R.R.h.e e }.}.}.}.}.}.}.}.}.}.}.}.}.}.",
"}.}.}.}.}.}.' ' ' ' y.p.p.p.q.) ) ) 0     . . 3.6.V.R.R.R.T.R.R.T.h.e e }.}.}.}.}.}.}.}.}.}.}.}.}.}.",
"}.}.}.}.}.}.}.}.}.}.* * * * % $ $ $ @   + *.*.V.V.R.R.B.m.m.m.z.d.3.}.}.}.}.}.}.}.}.}.}.}.}.}.}.}.}.",
"}.}.}.}.}.}.}.}.}.}.                    & ,.2.R.R.R.R.m.b.b.b.l.2.2.}.}.}.}.}.}.}.}.}.}.}.}.}.}.}.}.",
"}.}.}.}.}.}.}.}.}.}.}.}.            O : : y i h.f.f.f.=.@.,.5.U._._.}.}.}.}.}.}.}.}.}.}.}.}.}.}.}.}.",
"}.}.}.}.}.}.}.}.}.}.}.}.            O , 4 e e 2.2.2.2.i w =.2.W.{.{.}.}.}.}.}.}.}.}.}.}.}.}.}.}.}.}.",
"}.}.}.}.}.}.}.}.}.}.}.}.}.}.    # : > 5 u -.-.y p M.A.}.}.}.}.].{.{.}.}.}.}.}.}.}.}.}.}.}.}.}.}.}.}.",
"}.}.}.}.}.}.}.}.}.}.}.}.}.}.    # , 4 e i 1.2.w t N.R.}.}.}.}.{.{.{.}.}.}.}.}.}.}.}.}.}.}.}.}.}.}.}.",
"}.}.}.}.}.}.}.}.}.}.}.}.}.}.}.}.; , J M.M.z.z.m H P P H , }.}.{.{.{.}.}.}.}.}.}.}.}.}.}.}.}.}.}.}.}.",
"}.}.}.}.}.}.}.}.}.}.}.}.}.}.}.}.}., +.R.T.n.b.b b b b < , }.}.{.{.{.}.}.}.}.}.}.}.}.}.}.}.}.}.}.}.}.",
"}.}.}.}.}.}.}.}.}.}.}.}.}.}.}.}.}.x $.R.A.f.7.%.%.M b c x E ' Z.}.}.{.}.}.}.}.}.}.}.}.}.}.}.}.}.}.}.",
"}.}.}.}.}.}.}.}.}.}.}.}.}.}.}.}.}.b $.R.A.2.2.2.<.M b b b Q ' ' }.}.{.{.}.}.}.}.}.}.}.}.}.}.}.}.}.}.",
"}.}.}.}.}.}.}.}.}.}.}.}.}.}.}.}.}.z K c.c.c.c.c.x.L z b b Z I I }.}.{.{.{.}.}.}.}.}.}.}.}.}.}.}.}.}.",
"}.}.}.}.}.}.}.}.}.}.}.}.}.}.}.}.}., J 2.d.T.R.R.Y.J , x b z , , }.}.{.{.{.{.}.}.}.}.}.}.}.}.}.}.}.}.",
"}.}.}.}.}.}.}.}.}.}.}.}.}.}.}.}.}.a a =.4.S.R.A.B.O.4 H b V n n }.}.{.{.{.{.}.}.}.}.}.}.}.}.}.}.}.}.",
"}.}.}.}.}.}.}.}.}.}.}.}.}.}.}.}.}.F.j e *.V.R.b.z.p u H b Q ' ] }.}.}.}.{.{.}.}.}.}.}.}.}.}.}.}.}.}.",
"}.}.}.}.}.}.}.}.}.}.}.}.}.}.}.}.}.G.D.f g v.v.7.5.g f a L W ' }.}.}.}.}.{.{.}.}.}.}.}.}.}.}.}.}.}.}.",
"}.}.}.}.}.}.}.}.}.}.}.}.}.}.}.}.}.G.G.J.G.r e e r G.J.G.G.}.}.}.}.}.}.}.}.}.{.{.}.}.}.}.}.}.}.}.}.}.",
"}.}.}.}.}.}.}.}.}.}.}.}.}.}.}.}.}.H.K.I.L.:.:.:.:.H.P.G.G.}.}.}.}.}.}.}.}.}.{.{.}.}.}.}.}.}.}.}.}.}.",
"}.}.}.}.}.}.}.}.}.}.}.}.}.}.}.}.}.~.(.{.{.{.{.{.{.(.~.}.}.}.}.}.}.}.}.}.}.}.}.}.}.}.}.}.}.}.}.}.}.}.",
"}.}.}.}.}.}.}.}.}.}.}.}.}.}.}.}.}.~.^._._.'.'.'.`.Q.W.}.}.}.}.}.}.}.}.}.}.}.}.}.}.}.}.}.}.}.}.}.}.}.",
"}.}.}.}.}.}.}.}.}.}.}.}.}.}.}.}.}.}.}.1.d.T.T.R.T.m.b.*.e }.}.}.}.}.}.}.}.}.}.}.}.}.}.}.}.}.}.}.}.}.",
"}.}.}.}.}.}.}.}.}.}.}.}.}.}.}.}.}.}.}.2.3.v.j.v.j.3.3.i w }.}.}.}.}.}.}.}.}.}.}.}.}.}.}.}.}.}.}.}.}.",
"}.}.}.}.}.}.}.}.}.}.}.}.}.}.}.}.}.}.}.}.}.X X X X X X }.}.}.}.}.}.}.}.}.}.}.}.}.}.}.}.}.}.}.}.}.}.}.",
"}.}.}.}.}.}.}.}.}.}.}.}.}.}.}.}.}.}.}.}.}.            }.}.}.}.}.}.}.}.}.}.}.}.}.}.}.}.}.}.}.}.}.}.}."
};
