/* XPM */
static char *result[] = {
/* columns rows colors chars-per-pixel */
"50 50 176 2 ",
"   c #000203",
".  c #0A0405",
"X  c #0D0C0A",
"o  c #140606",
"O  c #1A0A09",
"+  c #151104",
"@  c #1A130F",
"#  c #0B1317",
"$  c #0E191F",
"%  c #1C1A1A",
"&  c #261A0A",
"*  c #291B14",
"=  c #351812",
"-  c #2A2009",
";  c #392B0B",
":  c #35280A",
">  c #102028",
",  c #202223",
"<  c #372D28",
"1  c #383230",
"2  c #4D120E",
"3  c #52130F",
"4  c #5C1511",
"5  c #5C1A15",
"6  c #661612",
"7  c #6A1A14",
"8  c #7B1614",
"9  c #751A14",
"0  c #7B1A15",
"q  c #543F0E",
"w  c #7B2413",
"e  c #79231A",
"r  c #792716",
"t  c #583C2B",
"y  c #4D3426",
"u  c #6A3C2B",
"i  c #733125",
"p  c #6A492A",
"a  c #724E29",
"s  c #775127",
"d  c #664531",
"f  c #694531",
"g  c #6D4A34",
"h  c #744632",
"j  c #744F38",
"k  c #774B36",
"l  c #77523A",
"z  c #7B533C",
"x  c #755130",
"c  c #615547",
"v  c #745645",
"b  c #7A624F",
"n  c #7B6350",
"m  c #625678",
"M  c #606162",
"N  c #717272",
"B  c #841A16",
"V  c #8E1B17",
"C  c #911A17",
"Z  c #961A18",
"A  c #822B14",
"S  c #89231B",
"D  c #992616",
"F  c #9F2B1A",
"G  c #8B3D12",
"H  c #8E3B18",
"J  c #8B3729",
"K  c #9C590B",
"L  c #A25E0B",
"P  c #9E6309",
"I  c #A36808",
"U  c #A46A09",
"Y  c #A77306",
"T  c #AB7509",
"R  c #AE790A",
"E  c #A37009",
"W  c #B37D0D",
"Q  c #B1730F",
"!  c #825922",
"~  c #80573E",
"^  c #82583E",
"/  c #95583E",
"(  c #845C42",
")  c #8A5E43",
"_  c #9C6A4B",
"`  c #976749",
"'  c #8A6E5D",
"]  c #986F51",
"[  c #AA7351",
"{  c #B47B57",
"}  c #B57C58",
"|  c #B97E59",
" . c #B07754",
".. c #8C7465",
"X. c #B7810F",
"o. c #BB8511",
"O. c #B28017",
"+. c #BF902F",
"@. c #BB933F",
"#. c #B28525",
"$. c #C4811F",
"%. c #CC8A1D",
"&. c #CF951B",
"*. c #C7901B",
"=. c #D1971C",
"-. c #D49A1E",
";. c #CB8220",
":. c #C68D22",
">. c #D28F20",
",. c #D49222",
"<. c #D69C20",
"1. c #D89E20",
"2. c #DEA323",
"3. c #BF845D",
"4. c #B6805B",
"5. c #AA8E7E",
"6. c #B5937B",
"7. c #C2835D",
"8. c #CC8A61",
"9. c #D18E65",
"0. c #D69166",
"q. c #DA976B",
"w. c #CD9B72",
"e. c #D6A176",
"r. c #DEA679",
"t. c #E5AC7D",
"y. c #685F86",
"u. c #5A6997",
"i. c #5A6B9B",
"p. c #5C6794",
"a. c #62618A",
"s. c #69618A",
"d. c #6C799F",
"f. c #5A6FA1",
"g. c #5A72A5",
"h. c #5A76AD",
"j. c #5A78B0",
"k. c #96A2B3",
"l. c #ACB1B5",
"z. c #A8B3BB",
"x. c #B6B6B6",
"c. c #D0A688",
"v. c #C0A39E",
"b. c #D7AE90",
"n. c #DFB69B",
"m. c #E3AE80",
"M. c #EAB383",
"N. c #E7B182",
"B. c #C8B7AC",
"V. c #E6BBA0",
"C. c #BFC2BE",
"Z. c #DAC290",
"A. c #DFCBBE",
"S. c #E8CDAC",
"D. c #F0CEB0",
"F. c #E7D7B9",
"G. c #B2BAC2",
"H. c #C0C0C0",
"J. c #C5C8C0",
"K. c #CACCC8",
"L. c #D5D2CC",
"P. c #CFD3D4",
"I. c #D4D5D4",
"U. c #DDC6C5",
"Y. c #E9DAC3",
"T. c #E3DDD9",
"R. c #D2D9E5",
"E. c #D6DDEB",
"W. c #D3D7E3",
"Q. c #DFE0E0",
"!. c #E8E7E6",
"~. c #F4EEE0",
"^. c #F4F5F4",
"/. c #FFFFFF",
"(. c #F9F7F4",
"). c None",
/* pixels */
").).).).).).).).).).).).).).).).).).).Y Y 1.2.Y T -.2.2.2.R Y ).).).).).).).).).).).).).).).).).).).",
").).).).).).).).).).).).).).).).).).).R R 1.2.R W -.2.2.2.X.R ).).).).).).).).).).).).).).).).).).).",
").).).).).).).).).).).).).).).).).Y R =.-.2.2.-.-.2.2.2.2.-.-.X.Y ).).).).).).).).).).).).).).).).).",
").).).).).).).).).).).).).).).).).R W -.1.2.2.2.2.2.2.2.2.2.2.X.R ).).).).).).).).).).).).).).).).).",
").).).).).).).).).).).).).).).Y T =.-.W R -.2.2.2.2.2.2.2.2.2.2.-.R Y ).).).).).).).).).).).).).).).",
").).).).).).).).).).).).).).).E Y -.1.R Y 2.2.2.2.2.2.2.2.2.2.2.2.W Y ).).).).).).).).).).).).).).).",
").).).).).).).).).).).).).).).2.2.2.2.-.-.X.R 2.2.2.2.2.2.2.2.2.2.R Y F./.).).).).).).).).).).).).).",
").).).).).).).).).).).).).).).2.2.2.2.2.2.R Y 2.2.2.2.2.2.2.2.2.2.W Y Y./.).).).).).).).).).).).).).",
").).).).).).).).).).).2.2.A 9 9 w P W 1.2.2.2.2.2.2.2.2.2.2.2.W Y w 9 9 9 P Y Y./.).).).).).).).).).",
").).).).).).).).).).).2.2.A 9 0 0 K T -.2.2.2.2.2.2.2.1.1.2.1.W I w 9 9 9 I T F.(.).).).).).).).).).",
").).).).).).).).).Y R 1.2.A 9 V V A H ,.2.2.2.2.2.2.2.*.W W W G A V V 8 9 $.-.:.@.S./.).).).).).).).",
").).).).).).).).).R W 1.2.H A Z Z 8 A ;.,.,.,.-.<.,.,.Q I U U A 0 C Z S w *.2.o.O.Z.~.).).).).).).).",
").).).).).).).Y R =.2.2.2.,.,.Z Z C Z F F F F F F F F D D D D Z Z Z Z K I -.2.1.-.:.#.).).).).).).).",
").).).).).).).Y R -.2.2.2.2.2.Z Z Z Z Z Z Z Z Z Z Z Z Z Z Z Z Z Z Z Z L Y -.2.2.1.o.Y ).).).).).).).",
").).).).).).).Y R -.2.2.2.W R ,.%.Q I w 0 Z Z 0 0 0 0 0 0 8 8 K U %.,.<.1.2.2.2.2.2.2.).).).).).).).",
").).).).).).).Y R -.2.2.2.R Y 2.1.W I w 9 C Z 9 9 9 9 9 9 9 9 K T -.2.2.2.2.2.2.2.2.2.).).).).).).).",
").).).).).).).).).2.2.2.2.-.&.2.2.-.=.$.$.;.;.$.;.$.;.;.O.;.;.:.=.2.2.2.2.o.W -.2.2.).).).).).).).).",
").).).).).).).).).2.2.2.2.-.2.2.1.2.2.2.2.2.2.2.2.2.2.2.2.2.2.2.2.2.1.1.2.W T *.<.).).).).).).).).).",
").).).).).).).).).).).2.2.X.W R W 1.2.2.2.2.2.2.2.2.2.2.2.2.2.2.1.o.W W W &.-.q - ).).).).).).).).).",
").).).).).).).).).).).2.2.W Y Y T -.2.2.2.2.2.2.2.2.2.2.2.2.2.2.1.W Y Y Y -.2.;   ).).).).).).).).).",
").).).).).).).).).).).; ; a s &.=.o.X.W W X.X.X.X.W X.W X.X.X.X.W ! s ; & : ; ).).).).).).).).).).).",
").).).).).).).).).).).    t d 2.1.W Y Y Y E Y Y Y Y Y Y T Y Y Y Y a d @       ).).).).).).).).).).).",
").).).).).).).).).).).).).!.!.x a & + + + + + + + + + + + + + + + X X     x.!.).).).).).).).).).).).",
").).).).).).).).).).).).)././.d d X                                       L./.).).).).).).).).).).).",
").).).).).).).).).).).).).....d f z z 6 4 .   4 3 o       2 4 h z t y j ~ ' ..).).).).).).).).).).).",
").).).).).).).).).).).).).d d g g ` ` e 9 o . 0 9 O . . . 6 9 / _ j g _ [ z g ).).).).).).).).).).).",
").).).).).).).).).).).[ [ g f 7.| < & 7 9 4 4 C V 8 8 6 4 9 9 = * ( _ 7.8.7.7.~ d ).).).).).).).).).",
").).).).).).).).).).).[ [ g d 0.7.* o 6 9 9 9 Z Z Z Z 8 9 9 9 O X ) [ 8.0.0.0.^ d ).).).).).).).).).",
").).).).).).).).).[ [ [ [ | | t.t.i 4 V Z C V Z Z Z Z C V V V 6 5 g l | 0.0.0.^ d ).).).).).).).).).",
").).).).).).).).).[ [ [ [ 9.0.M.t.J 8 C Z Z Z Z Z Z Z Z Z Z Z 8 9 u d | 0.0.0.( d ).).).).).).).).).",
").).).).).).).[ } e.r.0.8.| { ( ^ S C Z Z Z Z Z Z Z Z Z Z Z Z Z V e 9 k z z z B.T.).).).).).).).).).",
").).).).).).).[ } r.N.q.0.[ [ d f V Z Z Z Z Z Z Z Z Z Z Z Z Z Z Z 0 9 u d d f L./.).).).).).).).).).",
").).).).).).).l ( e.t.t.t.) l @ & 8 Z Z Z Z Z Z Z Z Z Z Z Z Z Z Z 0 9 v.L.).).).).).).).).).).).).).",
").).).).).).).d z w.b.t.t.z p   . 8 Z Z Z Z Z Z Z Z Z Z Z Z Z Z C 0 9 U./.).).).).).).).).).).).).).",
").).).).).).).).).] ] ] ] ).).).).9 B Z Z Z Z B B C Z Z Z Z Z V B ).).).)././././././.).).).).).).).",
").).).).).).).).).d d d d ).).).).9 0 C Z Z Z 9 8 C Z Z Z Z Z 0 9 ).).).)././././././.).).).).).).).",
").).).).).).).).).).).).).).).i.u.a.a.s.s.s.s.m m y.y.y.s.s.s.a.a.u.i.).).).).).)././.).).).).).).).",
").).).).).).).).).).).).).).).i.i.h.j.j.j.j.j.i.i.j.j.j.j.j.j.j.j.f.i.).).).).).)././.).).).).).).).",
").).).).).).).).).).).).).).).u.i.g.j.j.j.j.j.g.g.f.f.h.j.j.j.j.h.i.u.).).).).).).).).).).).).).).).",
").).).).).).).).).).).).).).).u.i.h.j.j.j.j.j.j.j.i.u.h.j.j.j.j.j.i.u.).).).).).).).).).).).).).).).",
").).).).).).).).).).).).)././.R.W.G.G.R.Q.E.E.z.z.d.a.k.z.R.E.E.E.x.l.!./.).).).).).).).).).).).).).",
").).).).).).).).).).).).)././././.L.K.(./././.J.C.d.u.k.J.(./././.P.H.^./.).).).).).).).).).).).).).",
").).).).).).).).).).).).).).)././.!.I.N M M M ).).).).v.6.n.V.D.D.b.c.Y.).).).).).).).).).).).).).).",
").).).).).).).).).).).).).).)./././.!.>       ).).).).[ [ 9.0.t.N.q.0.).).).).).).).).).).).).).).).",
").).).).).).).).).).).).).).)./././.(.K.H.H.H.).).).).8.8.t.t.M.N.3.} ).).).).).).).).).).).).).).).",
").).).).).).).).).).).).).).)././././././././.).).).).0.0.N.M.M.N.4.[ ).).).).).).).).).).).).).).).",
").).).).).).).).).).).).).).).).)././././././.).).).).v v n n c c B.U.).).).).).).).).).).).).).).).",
").).).).).).).).).).).).).).).).)././././././.).).).).1 1 1 1 $ > P./.).).).).).).).).).).).).).).).",
").).).).).).).).).).).).).).).).).)./././././.).).).).% % 1 1 # # l./.).).).).).).).).).).).).).).).",
").).).).).).).).).).).).).).).).).).).).).).).).).).).    < 1 X   ).).).).).).).).).).).).).).).).)."
};
