/* XPM */
static char *result[] = {
/* columns rows colors chars-per-pixel */
"50 50 198 2 ",
"   c #000203",
".  c #0E0C0A",
"X  c #0B0903",
"o  c #100D07",
"O  c #121415",
"+  c #3C0E0C",
"@  c #201704",
"#  c #231C0A",
"$  c #261C15",
"%  c #2C0B0A",
"&  c #2A2009",
"*  c #2C241C",
"=  c #34261B",
"-  c #3F2D04",
";  c #303232",
":  c #5C1511",
">  c #49110E",
",  c #751A14",
"<  c #7D1B15",
"1  c #4F3705",
"2  c #543B05",
"3  c #583F17",
"4  c #7F2B12",
"5  c #75261B",
"6  c #642A1E",
"7  c #4B3426",
"8  c #6C3728",
"9  c #6E2F23",
"0  c #694905",
"q  c #7D5705",
"w  c #664F1E",
"e  c #4F463F",
"r  c #664531",
"t  c #6D4A35",
"y  c #784E38",
"u  c #75513B",
"i  c #6B3846",
"p  c #404242",
"a  c #7B5842",
"s  c #655351",
"d  c #714E47",
"f  c #7D6350",
"g  c #5F5D74",
"h  c #605764",
"j  c #616263",
"k  c #707171",
"l  c #7F6E69",
"z  c #831A16",
"x  c #8C1A17",
"c  c #931B17",
"v  c #961A18",
"b  c #981E18",
"n  c #883D0F",
"m  c #903E0F",
"M  c #8A241D",
"N  c #962117",
"B  c #9A2C15",
"V  c #972519",
"C  c #893614",
"Z  c #903D18",
"A  c #9B3814",
"S  c #A63D1B",
"D  c #873333",
"F  c #8C2C2D",
"G  c #A93F32",
"H  c #8D460D",
"J  c #98440F",
"K  c #855C06",
"L  c #9C5D0A",
"P  c #9B4713",
"I  c #9F501A",
"U  c #A1520D",
"Y  c #A35D0B",
"T  c #B6571D",
"R  c #AA5618",
"E  c #9D6C06",
"W  c #97670A",
"Q  c #A56909",
"!  c #A77306",
"~  c #AB7608",
"^  c #AC7709",
"/  c #B37D0D",
"(  c #B0770D",
")  c #A66511",
"_  c #AD7C16",
"`  c #A87715",
"'  c #B67A16",
"]  c #B76518",
"[  c #81583E",
"{  c #965238",
"}  c #A64534",
"|  c #A3523C",
" . c #A3693B",
".. c #C3701F",
"X. c #C57C1D",
"o. c #885D42",
"O. c #9C5749",
"+. c #904F4B",
"@. c #A85741",
"#. c #9C6A4A",
"$. c #926346",
"%. c #836858",
"&. c #8A6D5D",
"*. c #986F51",
"=. c #B6684E",
"-. c #AA7452",
";. c #A87553",
":. c #BC7E5A",
">. c #B77754",
",. c #A66347",
"<. c #936F78",
"1. c #A9706C",
"2. c #B8706E",
"3. c #C46E51",
"4. c #B8820F",
"5. c #B7810E",
"6. c #BC8511",
"7. c #B5811C",
"8. c #BF8813",
"9. c #B88D35",
"0. c #BD9031",
"q. c #B58520",
"w. c #C38B15",
"e. c #C3811B",
"r. c #CA9119",
"t. c #D1971C",
"y. c #D49A1E",
"u. c #C99628",
"i. c #D19A21",
"p. c #D89A21",
"a. c #CD9330",
"s. c #DEA323",
"d. c #DBA42D",
"f. c #E0A931",
"g. c #BD9644",
"h. c #B5815C",
"j. c #BB845E",
"k. c #B18D41",
"l. c #B18965",
"z. c #BC8E68",
"x. c #BE936D",
"c. c #C1835C",
"v. c #E6B753",
"b. c #C58C64",
"n. c #CC946B",
"m. c #C6926A",
"M. c #D69166",
"N. c #DA986C",
"B. c #D89368",
"V. c #C99970",
"C. c #D79C71",
"Z. c #CAAB6A",
"A. c #C8A864",
"S. c #DAA375",
"D. c #DEAA7C",
"F. c #D2A075",
"G. c #E5AB7D",
"H. c #E7B17D",
"J. c #EBC779",
"K. c #5A6997",
"L. c #5F6581",
"P. c #6E7B9F",
"I. c #5B73A6",
"U. c #5A78B0",
"Y. c #7D8298",
"T. c #7286AE",
"R. c #748DB9",
"E. c #A6A6A7",
"W. c #E7B182",
"Q. c #EBB585",
"!. c #E3AE80",
"~. c #CCBDAC",
"^. c #CFAEAC",
"/. c #DCC699",
"(. c #EFD191",
"). c #EACB88",
"_. c #DECBA2",
"`. c #EBC9B4",
"'. c #F0D8B8",
"]. c #BFC0C0",
"[. c #C5C8C0",
"{. c #C5C6C2",
"}. c #D9D2CC",
"|. c #CFD0D0",
" X c #EADDC3",
".X c #E7DCD7",
"XX c #F5DAC2",
"oX c #EFE5D1",
"OX c #F0E5D5",
"+X c #F5E8D8",
"@X c #E9E9E6",
"#X c #FAEDE1",
"$X c #F5EFE2",
"%X c #FAF6F0",
"&X c #FDFAF4",
"*X c white",
"=X c #F5F6F5",
"-X c None",
/* pixels */
"-X-X-X-X-X-X-X-X-X-X-X-X-X-X-X-X-X-X-X*XoX_ ! s.s./ ! t.s.s.s.(.*X*X*X*X*X*X*X*X-X-X-X-X-X-X-X-X-X-X",
"-X-X-X-X-X-X-X-X-X-X-X-X-X-X-X-X-X-X-X%X X_ ~ s.p./ ~ y.s.s.s.).=X=X&X&X*X*X*X*X-X-X-X-X-X-X-X-X-X-X",
"-X-X-X-X-X-X-X-X-X-X-X-X-X-X-X-X-X*X X9.0.y.i.s.s.y.y.s.s.8./ 7.9.a.v.J.*X*X*X*X*X*X-X-X-X-X-X-X-X-X",
"-X-X-X-X-X-X-X-X-X-X-X-X-X-X-X-X-X*X X! / s.s.s.s.s.s.s.s.6.! ! ! 6.s.v.*X*X*X*X*X*X-X-X-X-X-X-X-X-X",
"-X-X-X-X-X-X-X-X-X-X-X-X-X*X*X*X^.O.{ ! / s.s./ 4.y.s.s.s.p.y.t.y.p.s.d.g.A.&X*X*X*X-X-X-X-X-X-X-X-X",
"-X-X-X-X-X-X-X-X-X-X-X-X*X*X*X&X^., C ! ( s.s.! ^ y.s.s.s.s.s.s.s.s.s.t.! 9.%X*X*X*X-X-X-X-X-X-X-X-X",
"-X-X-X-X-X-X*X%X9.! i.s.u.9. .+.D , < B A ^ / i.y.4./ t.s.s.s.s.s.r./ 6.y.i.9.9.*X*X-X-X-X-X-X-X-X-X",
"-X-X-X-X-X-X*X%X9.~ r.s.6.! H , , , < v B ! ! s.s./ ! y.s.s.s.s.s.r.! / s.y.^ ! *X*X-X-X-X-X-X-X-X-X",
"-X-X-X-X-X-Xg.g.i.r.s.s.y.t./ L J x x v b B B s.s.t.i.p.s.s.s.s.s.s.t.y.s.y.^ ! *X*X-X-X-X-X-X-X-X-X",
"-X-X-X-X-X-X! ~ y.s.s.s.s.s.w.! U v v v v v b p.s.s.s.s.s.s.s.s.s.s.s.s.s.y.^ ! *X*X-X-X-X-X-X-X-X-X",
"-X-X-X-X-X-X_./.u.6.p.s.s.s.y.r.' U J z z z z T T p.s.s.s.s.s.s.s.s.s.s.s.s.r.r.A.Z.OX*X-X-X-X-X-X-X",
"-X-X-X-X-X-X*X%X9.! y.s.s.s.s.s.r.! L , , , , v N r.s.s.s.s.s.s.s.s.s.s.s.s.s.s.! _ oX*X-X-X-X-X-X-X",
"-X-X-X-X-X-X*X@Xw 1 ` w.w.w.t.s.y.w.' H n , , v b T T X.w.p.s.s.s.s.s.y.w.r.s.s.! _ oX*X-X-X-X-X-X-X",
"-X-X-X-X-X-X-X-X    q ! ! ! w.s.s.s.t.! L 4 , v v b b Y ~ r.s.s.s.s.s.t.! / p.s.! _ oX*X-X-X-X-X-X-X",
"-X-X-X-X-X-X-X-Xj j w 0 K ~ 5.r.t.s.y.w.( n n x x v v P U ] ......X.r.w.6.8.r.r.A.Z.$X*X-X-X-X-X-X-X",
"-X-X-X-X-X-X-X-X*X*Xp   0 ~ ! ! 4.s.s.s.y.~ Q , , c v v v v v v b A ~ / s.y.~ ! *X*X*X*X-X-X-X-X-X-X",
"-X-X-X-X-X-X-X-X*X*Xp   1 q q q ! r.y.t.r.5.5.Z Z A S V x c v v v B Y ) e.' W L *X*X*X*X-X-X-X-X-X-X",
"-X-X-X-X-X-X-X-X*X*Xp           - ! ! ! / s.s.s.s.s.s.Z , x v v v v c c , , , , *X*X*X*X-X-X-X-X-X-X",
"-X-X-X-X-X-X-X-X*X*Xj ; O   o $ 3 7.` K W t.y.t.i.s.s.I C B B N c v v c , 5 4 4 oXOX&X*X-X-X-X-X-X-X",
"-X-X-X-X-X-X-X-X*X*X*X*Xj   7 -.b.Q.l.  @ E ! ! ^ y.s.s.s.6.! H , < v c , M Q ! ! _ oX*X-X-X-X-X-X-X",
"-X-X-X-X-X-X-X-X*X*X|.{.k p f j.n.Q.l.  $ 9.g.! ~ r.y.r.t.8.5.) J Z S S Z P / 5.! _ oX*X-X-X-X-X-X-X",
"-X-X-X-X-X-X-X-X*X*Xp   E.*XXXW.Q.Q.l.  ; =X*X! ! ! ! ! ! r.s.s.s.s.s.s.s.s.s.s.! _ oX*X-X-X-X-X-X-X",
"-X-X-X-X-X-X-X-X*X*Xp   E.*XXXG.Q.Q.z.* p }..X7._ W K ! ! w.i.i.i.p.s.s.s.s.y.y./ 7.'.+X-X-X-X-X-X-X",
"-X-X-X-X-X-X-X-X-X-X-X-X=X*X`.B.G.W.W.D.V.a d G.D.* X q ! ! ~ ~ ^ 8.s.s.s.i.^ ~ p.s.s.f.-X-X-X-X-X-X",
"-X-X-X-X-X-X-X-X-X-X-X-X*X*X`.M.G.Q.Q.Q.F.t r Q.D.*   q ! ! ! ! ! 6.s.s.s.y.~ ! s.s.s.s.-X-X-X-X-X-X",
"-X-X-X-X-X-X-X-X-X-X-X-X-X-Xr r *.Q.Q.Q.Q.Q.Q.Q.W.:.-.$       2 ! ! ! 5.s.s.s.s.! ! ! ! -X-X-X-X-X-X",
"-X-X-X-X-X-X-X-X-X-X-X-X-X-X-Xr #.W.Q.W.Q.Q.Q.Q.W.l.-.= X     1 E E E ( i.i.i.i._ _ _ _ -X-X-X-X-X-X",
"-X-X-X-X-X-X-X-X-X-X-X-X-X-X-X-X-X:.c.N.N.N.N.Q.W.D.G.;.o.=   o @ @ @ @ & & # & oXoXoXoX-X-X-X-X-X-X",
"-X-X-X-X-X-X-X-X-X-X-X-X-X-X-X-X-X-.>.M.B.M.M.Q.Q.Q.Q.j.-.7                     *X*X*X*X-X-X-X-X-X-X",
"-X-X-X-X-X-X-X-X-X-X-X-X-X-X-X-X-X-X-X:.-.[ [ j.j.j.j.o.y 6 : %             -X-X-X-X-X-X-X-X-X-X-X-X",
"-X-X-X-X-X-X-X-X-X-X-X-X-X-X-X-X-X-X-X-.#.t r -.-.-.-.u r 9 , +             -X-X-X-X-X-X-X-X-X-X-X-X",
"-X-X-X-X-X-X-X-X-X-X-X-X-X-X-X-X-X-X-X-X-X-X-XD.S.o.u $.#.y 8 6 : +     -X-X-X-X-X-X-X-X-X-X-X-X-X-X",
"-X-X-X-X-X-X-X-X-X-X-X-X-X-X-X-X-X-X-X-X-X-X-XQ.!.a r #.-.[ r 9 , >     -X-X-X-X-X-X-X-X-X-X-X-X-X-X",
"-X-X-X-X-X-X-X-X-X-X-X-X-X-X-X-X-X-X-X-X-X, , } G V M >.b.m.V.@., +.].].-X-X-X-X-X-X-X-X-X-X-X-X-X-X",
"-X-X-X-X-X-X-X-X-X-X-X-X-X-X-X-X-X-X-X-X-X, , v v b v 3.N.G.W.=., 1.*X*X-X-X-X-X-X-X-X-X-X-X-X-X-X-X",
"-X-X-X-X-X-X-X-X-X-X-X-X-X-X-X-X-X-X-X! L x x v b } | >.3.C.Q.=.x 2.*X*X-X-X-X-X-X-X-X-X-X-X-X-X-X-X",
"-X-X-X-X-X-X-X-X-X-X-X-X-X-X-X-X-X-X-X~ ) b v v V ,.-.-.-.C.Q.3.v 2.*X*X-X-X-X-X-X-X-X-X-X-X-X-X-X-X",
"-X-X-X-X-X-X-X-X-X-X-X-X-X-X-X-X-X-X-XH n v v z M 2.n.n.n.n.n.| z 2.*X*X-X-X-X-X-X-X-X-X-X-X-X-X-X-X",
"-X-X-X-X-X-X-X-X-X-X-X-X-X-X-X-X-X-X-X, < v v , 4 C.Q.Q.Q.b.;.{ , 1.*X*X-X-X-X-X-X-X-X-X-X-X-X-X-X-X",
"-X-X-X-X-X-X-X-X-X-X-X-X-X-X-X-X-X-X-Xn C v v 9 9 M.G.W.Q.h.$.d i <.*X-X-X-X-X-X-X-X-X-X-X-X-X-X-X-X",
"-X-X-X-X-X-X-X-X-X-X-X-X-X-X-X-X-X-X-X! ) b v r t c.M.!.Q.*.r h K.K.-X-X-X-X-X-X-X-X-X-X-X-X-X-X-X-X",
"-X-X-X-X-X-X-X-X-X-X-X-X-X-X-X-X-X-X-X! ) D D s s ;.:.m.V.&.s g K.K.-X-X-X-X-X-X-X-X-X-X-X-X-X-X-X-X",
"-X-X-X-X-X-X-X-X-X-X-X-X-X-X-X-X-X-X-X-X-XK.K.U.I.s r r r L.U.U.K.K.-X-X-X-X-X-X-X-X-X-X-X-X-X-X-X-X",
"-X-X-X-X-X-X-X-X-X-X-X-X-X-X-X-X-X-X-X-X-XK.K.T.T.&.%.%.%.Y.R.T.P.P.-X-X-X-X-X-X-X-X-X-X-X-X-X-X-X-X",
"-X-X-X-X-X-X-X-X-X-X-X-X-X-X-X-X-X-X-X-X-X-X-X{.{.=X*X*X*X*X*XOX[.[.-X-X-X-X-X-X-X-X-X-X-X-X-X-X-X-X",
"-X-X-X-X-X-X-X-X-X-X-X-X-X-X-X-X-X-X-X-X-X-X-X~._..X$X$X#XOX.X}.[.-X-X-X-X-X-X-X-X-X-X-X-X-X-X-X-X-X",
"-X-X-X-X-X-X-X-X-X-X-X-X-X-X-X-X-X-X-X-X-Xr r M.B.!.Q.Q.Q.b.-.-.-X-X-X-X-X-X-X-X-X-X-X-X-X-X-X-X-X-X",
"-X-X-X-X-X-X-X-X-X-X-X-X-X-X-X-X-X-X-X-X-Xr r -.>.z.x.x.x.h.-.-X-X-X-X-X-X-X-X-X-X-X-X-X-X-X-X-X-X-X",
"-X-X-X-X-X-X-X-X-X-X-X-X-X-X-X-X-X-X-X-X-X-X-X. . . . . . -X-X-X-X-X-X-X-X-X-X-X-X-X-X-X-X-X-X-X-X-X",
"-X-X-X-X-X-X-X-X-X-X-X-X-X-X-X-X-X-X-X-X-X-X-X            -X-X-X-X-X-X-X-X-X-X-X-X-X-X-X-X-X-X-X-X-X"
};
