/* XPM */
static char *result[] = {
/* columns rows colors chars-per-pixel */
"50 50 191 2 ",
"   c #010203",
".  c #0C0605",
"X  c #0A0A04",
"o  c #0E0C0B",
"O  c #120D0D",
"+  c #1B1506",
"@  c #1B130F",
"#  c #1A1506",
"$  c #1E1913",
"%  c #1D1511",
"&  c #201704",
"*  c #2A1F04",
"=  c #271D04",
"-  c #221913",
";  c #281B15",
":  c #3B0E0C",
">  c #2C2107",
",  c #3B2B06",
"<  c #2C231C",
"1  c #33251B",
"2  c #3F300C",
"3  c #3F2F24",
"4  c #303232",
"5  c #2B2D2D",
"6  c #5C1311",
"7  c #4B0E0E",
"8  c #661612",
"9  c #751A14",
"0  c #7B1A15",
"q  c #49370E",
"w  c #443106",
"e  c #543F0F",
"r  c #543B05",
"t  c #402E05",
"y  c #7B2215",
"u  c #7D251C",
"i  c #6F2C13",
"p  c #493527",
"a  c #563A2A",
"s  c #433D37",
"d  c #6F323C",
"f  c #6C3225",
"g  c #5D4410",
"h  c #7D5808",
"j  c #684C0D",
"k  c #584534",
"l  c #5A4533",
"z  c #664531",
"x  c #6E4B35",
"c  c #684A36",
"v  c #724D37",
"b  c #744F38",
"n  c #7C563D",
"m  c #60412E",
"M  c #6C3E4F",
"N  c #6C3947",
"B  c #763C4C",
"V  c #7C3E51",
"C  c #7B5C46",
"Z  c #674C67",
"A  c #7B7B77",
"S  c #8C1A17",
"D  c #8A1A18",
"F  c #901A17",
"G  c #951A18",
"H  c #883C0F",
"J  c #87261A",
"K  c #9B2718",
"L  c #943715",
"P  c #862821",
"I  c #9A471A",
"U  c #A1520D",
"Y  c #A84818",
"T  c #B14E1C",
"R  c #AB5A1B",
"E  c #BA5F1E",
"W  c #A04E0E",
"Q  c #9D6C06",
"!  c #8E6814",
"~  c #A77306",
"^  c #AD790B",
"/  c #AB7608",
"(  c #B57F0D",
")  c #BA6C1D",
"_  c #AB7C17",
"`  c #AE6914",
"'  c #80573E",
"]  c #99563B",
"[  c #9C4D39",
"{  c #C57420",
"}  c #803E51",
"|  c #803949",
" . c #895D42",
".. c #9C5A47",
"X. c #8E6649",
"o. c #9A694A",
"O. c #936447",
"+. c #966F51",
"@. c #977557",
"#. c #846550",
"$. c #A46A4B",
"%. c #A7714F",
"&. c #AA7351",
"*. c #A57453",
"=. c #B37A56",
"-. c #B47C58",
";. c #BB7D59",
":. c #BC8511",
">. c #B58113",
",. c #C38B15",
"<. c #C28F1F",
"1. c #C58917",
"2. c #CB9219",
"3. c #D1971C",
"4. c #D59B1E",
"5. c #CA8820",
"6. c #C9972B",
"7. c #D99D21",
"8. c #D39622",
"9. c #DEA323",
"0. c #BD9644",
"q. c #B6805B",
"w. c #BB815C",
"e. c #B28865",
"r. c #B98B66",
"t. c #B88965",
"y. c #BF946D",
"u. c #C2845D",
"i. c #CA835C",
"p. c #CB8A61",
"a. c #C88962",
"s. c #D18E64",
"d. c #C2956E",
"f. c #CC986F",
"g. c #D69166",
"h. c #D4956B",
"j. c #D9966A",
"k. c #DB9A6E",
"l. c #CE9F75",
"z. c #D29C72",
"x. c #DA9D72",
"c. c #C8A864",
"v. c #D3A175",
"b. c #DEA176",
"n. c #D4A479",
"m. c #DDAA7D",
"M. c #CEB276",
"N. c #E3AC7E",
"B. c #E1A477",
"V. c #5A6997",
"C. c #5A6B9A",
"Z. c #67739A",
"A. c #7C7F97",
"S. c #5A72A6",
"D. c #5A77AD",
"F. c #5A78B0",
"G. c #677CA9",
"H. c #7581A1",
"J. c #93938D",
"K. c #A1A29C",
"L. c #BBA897",
"P. c #B3A397",
"I. c #9099AC",
"U. c #8999B4",
"Y. c #92A2BA",
"T. c #9FA7B8",
"R. c #B6B9B6",
"E. c #D5BC89",
"W. c #E4AE80",
"Q. c #E6B182",
"!. c #EBB585",
"~. c #EEBE93",
"^. c #C6B4A5",
"/. c #D5CABF",
"(. c #E1CEBC",
"). c #ADBCD8",
"_. c #A9B8D3",
"`. c #ACB5C7",
"'. c #C5C8C0",
"]. c #CCCFC8",
"[. c #D8D9D7",
"{. c #D0D3CC",
"}. c #F1D8C8",
"|. c #E9D1C0",
" X c #F8E4D2",
".X c #EDE2D7",
"XX c #E7E8E6",
"oX c #FFFFFF",
"OX c #F8F8F7",
"+X c #FAEDE1",
"@X c None",
/* pixels */
"@X@X@X@X@X@X@X@X@X@X@X@X@X@X@X@X@X@X@X@X@X@X@X@X@X@X@X@X@X@X@X@X@X@X@X@X@X@X@X@X@X@X@X@X@X@X@X@X@X@X",
"@X@X@X@X@X@X@X@X@X@X@X@X@X@X@X@X@X@X@X@X@X@X@X@X@X@X@X@X@X@X@X@X@X@X@X@X@X@X@X@X@X@X@X@X@X@X@X@X@X@X",
"@X@X@X@X@X@X@X@X@X@X@X@X@X@X@X@X@X@X@X~ ~ 3.9.( / 4.9.9.9.^ ~ @X@X@X@X@X@X@X@X@X@X@X@X@X@X@X@X@X@X@X",
"@X@X@X@X@X@X@X@X@X@X@X@X@X@X@X@X@X@X@X:.,.4.9.2.,.4.9.9.9.,.:.@X@X@X@X@X@X@X@X@X@X@X@X@X@X@X@X@X@X@X",
"@X@X@X@X@X@X@X@X@X@X@X@X@X@X@X@X@X~ ~ 3.9.9.9.9.9.9.9.9.9.9.9.~ ~ @X@X@X@X@X@X@X@X@X@X@X@X@X@X@X@X@X",
"@X@X@X@X@X@X@X@X@X@X@X@X@X@X@X@X~ :.,.,.,.) E E E E E E E 7.9.1.:.~ @X@X@X@X@X@X@X@X@X@X@X@X@X@X@X@X",
"@X@X@X@X@X@X@X@X@X@X@X@X@X@X@X~ ~ 2.9.:.~ K G G G G G G G 8.9.9.4.~ ~ @X@X@X@X@X@X@X@X@X@X@X@X@X@X@X",
"@X@X@X@X@X@X@X@X@X@X@X@X@X@X@XH H Y T L L U U U U U U U U T T T Y I ] oXoX@X@X@X@X@X@X@X@X@X@X@X@X@X",
"@X@X@X@X@X@X@X@X@X@X@X@X@X@X@X9 9 D G G F ` ~ ~ ~ ~ ~ ~ ~ K G G F 9 ..oXoX@X@X@X@X@X@X@X@X@X@X@X@X@X",
"@X@X@X@X@X@X@X@X@X@X@X@X~ ~ ~ ` R i 7 I E :.,.:.1.1.( j r R E E R : a E.M._ 0.oX@X@X@X@X@X@X@X@X@X@X",
"@X@X@X@X@X@X@X@X@X@X@X~ ~ ~ ~ ,.9.g   _ 9.9.9.9.9.9.<.+   <.9.9.,.  * ~ ~ ~ 0.oXoX@X@X@X@X@X@X@X@X@X",
"@X@X@X@X@X@X@X@X@X@X~ :.2.( ~ h g +   2 e e e g e e q X   q e e q   * ~ / 2.6.c.E.oX@X@X@X@X@X@X@X@X",
"@X@X@X@X@X@X@X@X@X@X~ ,.9.:.~ r                                     > ~ ( 7.3.~ c.oX@X@X@X@X@X@X@X@X",
"@X@X@X@X@X@X@X@X~ :.3.,.( g = #                                     X * w ^ :.3.6.0.@X@X@X@X@X@X@X@X",
"@X@X@X@X@X@X@X@X~ :.9.,.~ ,                                             + Q >.9.2.~ @X@X@X@X@X@X@X@X",
"@X@X@X@X@X@X@X@X~ :.9.! t #               C +.;                         & Q ( 9.7.2.@X@X@X@X@X@X@X@X",
"@X@X@X@X@X@X@X@X~ :.9.j                 . y.!.3   .         .           & Q ^ 9.9.9.@X@X@X@X@X@X@X@X",
"@X@X@X@X@X@X@X@X@X4.9._ h >         .     y.!.3 o +.e.e.e.@ .           . = g 9.9.@X@X@X@X@X@X@X@X@X",
"@X@X@X@X@X@X@X@X@X@X9.,.^ 2           O @ r.W.p - d.!.W.W.< O         o o   , 6.8.@X@X@X@X@X@X@X@X@X",
"@X@X@X@X@X@X@X@X@X@X@X4.3.e       .   A K.4 < @.d.W.n.p ; J.K.  .   1 y.@.o X > > @X@X@X@X@X@X@X@X@X",
"@X@X@X@X@X@X@X@X@X@X@X<.<.g $ $ ; ; - K.].5   e.!.!.l.$   R.].  . - k !.y.O       @X@X@X@X@X@X@X@X@X",
"@X@X@X@X@X@X@X@X@X@X@X+ + X.l.l.l.l.z..XOX4   e.!.!.l.$   [.OX. $ l.v.!.y.O   @X@X@X@X@X@X@X@X@X@X@X",
"@X@X@X@X@X@X@X@X@X@X@X    @.!.!.!.!.!.+XoX4   e.!.!.l.$   XXoX  - !.!.!.y.O   @X@X@X@X@X@X@X@X@X@X@X",
"@X@X@X@X@X@X@X@X@X@X@X@X@X@X@Xw.=.z.!.~.~.n.l.W.!.!.Q.l.l.#.C z.l.q.X.- 4 [.[.@X@X@X@X@X@X@X@X@X@X@X",
"@X@X@X@X@X@X@X@X@X@X@X@X@X@X@X&.&.z.!.!.!.!.!.!.!.!.!.!.!.C f !.N.&.n   4 OXoX@X@X@X@X@X@X@X@X@X@X@X",
"@X@X@X@X@X@X@X@X@X@X@X@X@Xz z z z  .%.p.g.W.!.k.g.h.j.!.!.j.h.*.$.z z z z @X@X@X@X@X@X@X@X@X@X@X@X@X",
"@X@X@X@X@X@X@X@X@X@X@X@X@Xx z x b  .o.;.i.x.x.h.s.s.s.x.b.p.i.o.O.b v z z @X@X@X@X@X@X@X@X@X@X@X@X@X",
"@X@X@X@X@X@X@X@X@X@X@X&.&.' z o.g.a   6 9 9 9 ..&.&.$.u 9 9 9   @ g.w.z v %.&.@X@X@X@X@X@X@X@X@X@X@X",
"@X@X@X@X@X@X@X@X@X@X@X&.&. .b *.j.a . 8 0 0 0 ] $.$...u 0 0 0 . ; j.u.b n %.&.@X@X@X@X@X@X@X@X@X@X@X",
"@X@X@X@X@X@X@X@X@X@X&.&.&.w.i.x.!.[ 8 D F G F J u u P F F F F 8 u !.B.u.u.&.&.&.&.@X@X@X@X@X@X@X@X@X",
"@X@X@X@X@X@X@X@X@X@Xq.=.=.u.p.h.n.[ 0 S G G G 0 9 J L G G G G 0 P v.z.p.i.q.-.q.q.@X@X@X@X@X@X@X@X@X",
"@X@X@X@X@X@X@X@X*.a.Q.b.g.w.&.X.x P G G G G G 0 y <.5.K G G G G J v n &.=.g.k.N.v.&.@X@X@X@X@X@X@X@X",
"@X@X@X@X@X@X@X@Xo.t.!.N.k.-.o.b p u G G G G G 0 0 ) ) K G G G G G p m o.%.j.b.!.f.o.@X@X@X@X@X@X@X@X",
"@X@X@X@X@X@X@X@Xz +.!.!.!.+.z 1   6 G G G G G 0 9 9 9 G G G G G D   @ z C W.!.!.r.z @X@X@X@X@X@X@X@X",
"@X@X@X@X@X@X@X@Xz X.r.r.r.X.z 1   8 D F G G G 0 9 I I K G G G S 0   @ z n t.r.r.*.z @X@X@X@X@X@X@X@X",
"@X@X@X@X@X@X@X@X@X@Xz z z @X@X@X@X9 9 F G G G D y 5.8.K G G G 9 9 @X@X@X@Xz z z z @X@X@X@X@X@X@X@X@X",
"@X@X@X@X@X@X@X@X@X@Xz z z @X@X@X@XN d P S G G 0 y ) { K G F S d d @X@X@X@Xz z z @X@X@X@X@X@X@X@X@X@X",
"@X@X@X@X@X@X@X@X@X@X@X@X@X@X@XV.V.S.F.d 9 F G D 9 G G G G 0 0 F.D.V.V.@X@X@X@X@X@X@X@X@X@X@X@X@X@X@X",
"@X@X@X@X@X@X@X@X@X@X@X@X@X@X@XV.V.S.F.Z N V Z B Z | | } } M M F.D.V.V.@X@X@X@X@X@X@X@X@X@X@X@X@X@X@X",
"@X@X@X@X@X@X@X@X@X@X@X@X@X@X@XV.V.S.F.D.D.D.F.F.S.V.V.D.D.D.F.F.D.V.V.@X@X@X@X@X@X@X@X@X@X@X@X@X@X@X",
"@X@X@X@X@X@X@X@X@X@X@X@X@X@XoX`.I.`.).).).Y.U.G.S.C.Z.U.Y._.).)._.I.T.oX@X@X@X@X@X@X@X@X@X@X@X@X@X@X",
"@X@X@X@X@X@X@X@X@X@X@X@X@XoXoXXX'.XXoXoXoX{./.H.V.C.Z.R./.OXoXoXOX/.[.oXoX@X@X@X@X@X@X@X@X@X@X@X@X@X",
"@X@X@X@X@X@X@X@X@X@X@X@X@X@XoX/.L.(. X}.}.^.L.A.V.V.Z.P.P.|.}. X}.P.^.oXoX@X@X@X@X@X@X@X@X@X@X@X@X@X",
"@X@X@X@X@X@X@X@X@X@X@X@X@X@X@X&.&.z.!.k.g.=.&.@X@X@X@X&.*.s.g.!.N.*.&.@X@X@X@X@X@X@X@X@X@X@X@X@X@X@X",
"@X@X@X@X@X@X@X@X@X@X@X@X@X@X@X&.&.z.!.N.B.-.&.@X@X@X@X&.&.x.B.!.N.&.&.@X@X@X@X@X@X@X@X@X@X@X@X@X@X@X",
"@X@X@X@X@X@X@X@X@X@X@X@X@X@X@X&.&.z.!.!.!.q.&.@X@X@X@X&.&.W.!.!.N.*.&.@X@X@X@X@X@X@X@X@X@X@X@X@X@X@X",
"@X@X@X@X@X@X@X@X@X@X@X@X@X@X@X@X@Xc k k l @X@X@X@X@X@X@X@Xl k k l @X@X@X@X@X@X@X@X@X@X@X@X@X@X@X@X@X",
"@X@X@X@X@X@X@X@X@X@X@X@X@X@X@X@X@X        @X@X@X@X@X@X@X@X        @X@X@X@X@X@X@X@X@X@X@X@X@X@X@X@X@X",
"@X@X@X@X@X@X@X@X@X@X@X@X@X@X@X@X@X@X@X@X@X@X@X@X@X@X@X@X@X@X@X@X@X@X@X@X@X@X@X@X@X@X@X@X@X@X@X@X@X@X",
"@X@X@X@X@X@X@X@X@X@X@X@X@X@X@X@X@X@X@X@X@X@X@X@X@X@X@X@X@X@X@X@X@X@X@X@X@X@X@X@X@X@X@X@X@X@X@X@X@X@X"
};
