/* XPM */
static char *_f0b0cbc55bf48e1c722ff5035b3af79s8Uvlx6r98FWCB0B[] = {
/* columns rows colors chars-per-pixel */
"50 50 227 2 ",
"   c None",
".  c #040001",
"X  c #0B0403",
"o  c #07050A",
"O  c #120402",
"+  c #1D0300",
"@  c #190C08",
"#  c #050819",
"$  c #1C1414",
"%  c #171010",
"&  c #0A101F",
"*  c #220200",
"=  c #2A0501",
"-  c #250B08",
";  c #350400",
":  c #390603",
">  c #2E1B00",
",  c #271308",
"<  c #331D00",
"1  c #391A0A",
"2  c #231B1C",
"3  c #2A1916",
"4  c #381815",
"5  c #3A2404",
"6  c #3D2517",
"7  c #2D211C",
"8  c #111E33",
"9  c #0C172D",
"0  c #2A2323",
"q  c #272020",
"w  c #312B2A",
"e  c #362724",
"r  c #363130",
"t  c #393434",
"y  c #3E3938",
"u  c #280920",
"i  c #420000",
"p  c #430A00",
"a  c #4B0C00",
"s  c #490403",
"d  c #570702",
"f  c #471804",
"g  c #5C1200",
"h  c #561707",
"j  c #461814",
"k  c #561619",
"l  c #660601",
"z  c #7B0200",
"x  c #750403",
"c  c #611300",
"v  c #6A1802",
"b  c #751900",
"n  c #7A1701",
"m  c #661313",
"M  c #442B00",
"N  c #512D0F",
"B  c #622406",
"V  c #712C0B",
"C  c #592926",
"Z  c #533329",
"A  c #413C3C",
"S  c #453836",
"D  c #583D34",
"F  c #442923",
"G  c #69312E",
"H  c #5D4500",
"J  c #684800",
"K  c #724C00",
"L  c #795500",
"P  c #534238",
"I  c #494034",
"U  c #764D35",
"Y  c #172B4C",
"T  c #072A57",
"R  c #0A2B57",
"E  c #132F52",
"W  c #213453",
"Q  c #0A3266",
"!  c #143C6C",
"~  c #243F61",
"^  c #481A46",
"/  c #5D2657",
"(  c #563154",
")  c #7A377B",
"_  c #682E64",
"`  c #23456E",
"'  c #454141",
"]  c #4B4545",
"[  c #4F4A4B",
"{  c #524E4E",
"}  c #594A45",
"|  c #545151",
" . c #5B5656",
".. c #5D5B5B",
"X. c #645954",
"o. c #6F4D44",
"O. c #756150",
"+. c #4D5366",
"@. c #6C6A6A",
"#. c #686463",
"$. c #716D6D",
"%. c #72706F",
"&. c #757373",
"*. c #797676",
"=. c #7A7979",
"-. c #656870",
";. c #8C0200",
":. c #970902",
">. c #861C02",
",. c #831818",
"<. c #991E18",
"1. c #A51601",
"2. c #8E2000",
"3. c #982600",
"4. c #8E320A",
"5. c #A02600",
"6. c #A52901",
"7. c #AE2A00",
"8. c #B12B00",
"9. c #B92500",
"0. c #A93602",
"q. c #B13405",
"w. c #B42F17",
"e. c #8B3030",
"r. c #AD3628",
"t. c #C73802",
"y. c #D63600",
"u. c #C43E18",
"i. c #825A00",
"p. c #AD441A",
"a. c #B54619",
"s. c #AE4402",
"d. c #946A00",
"f. c #977600",
"g. c #A77800",
"h. c #935433",
"j. c #AE5A39",
"k. c #AD4D2D",
"l. c #9D6439",
"z. c #B76A3A",
"x. c #CA5902",
"c. c #D35C02",
"v. c #D7511D",
"b. c #E84500",
"n. c #D36707",
"m. c #D6741B",
"M. c #D67B2B",
"N. c #DC762F",
"B. c #D46730",
"V. c #90574F",
"C. c #B55D5D",
"Z. c #8D6B4F",
"A. c #AD684E",
"S. c #B77846",
"D. c #AA6C54",
"F. c #B36E49",
"G. c #817F7F",
"H. c #867874",
"J. c #907067",
"K. c #AC7367",
"L. c #CC734C",
"P. c #C07F79",
"I. c #BD8A00",
"U. c #AF8A00",
"Y. c #CB9C00",
"T. c #D3A300",
"R. c #E2AE00",
"E. c #D8873F",
"W. c #B78757",
"Q. c #AA8474",
"!. c #B58B6E",
"~. c #CD8C51",
"^. c #D68A59",
"/. c #D8985B",
"(. c #DA9C67",
"). c #CC8F6D",
"_. c #DBA369",
"`. c #D8A877",
"'. c #E0A46E",
"]. c #EAB578",
"[. c #E18649",
"{. c #7F3783",
"}. c #0E4382",
"|. c #1A4F8D",
" X c #26558D",
".X c #235EA0",
"XX c #1F61AC",
"oX c #2965A9",
"OX c #286BB6",
"+X c #1858A4",
"@X c #5E7A9E",
"#X c #833987",
"$X c #92629B",
"%X c #768494",
"&X c #598AC0",
"*X c #848383",
"=X c #8B8989",
"-X c #888787",
";X c #998C8B",
":X c #949292",
">X c #9D9C9C",
",X c #AA958A",
"<X c #A59B97",
"1X c #AF9283",
"2X c #A4A3A3",
"3X c #AAA6A4",
"4X c #AAAAAA",
"5X c #B1AEAE",
"6X c #B4B4B4",
"7X c #BCBABA",
"8X c #C8A887",
"9X c #CEAA94",
"0X c #E6B797",
"qX c #E5BDA3",
"wX c #E8CDB5",
"eX c #C4C4C4",
"rX c #CCCBCB",
"tX c #C8C7C7",
"yX c #D4D4D4",
"uX c #DBDBDB",
"iX c #E4DDD9",
"pX c #E3CCC3",
"aX c #E5E5E4",
"sX c #EBEBEB",
"dX c #EEE7E2",
"fX c gray94",
"gX c #EDE4DC",
/* pixels */
"                                  $ 0 t r q                                                         ",
"                                  o.Q.8X8XQ. .$ . . .                                               ",
"                                q Q.~./.E.).9XX.w w 2 . . . $ 0 & 9                                 ",
"                                P Q.5XrX!.m.c.'.qXqX!.| y ' O.K.+.oX~                               ",
"                              N J.k.;XeX!.N.c.c.n.n.B.).D.D.p.6.p oXoX.                             ",
"                          O ] D.j.a.`.qXN.n.m.c.c.x.s.7.0.8.5.g O }.oX! o                           ",
"                          X w V.0.p.F.L.[.'.].N.c.S.j.1.8.8.3.= . T +X Xo                           ",
"                            . a 2.N Z 1.r.C.C.V c A C <.j.8.v *   # |. Xo                           ",
"                            . R % 5 l.~._.$X!.W.!.|.W 1 Z v       # }.! o                           ",
"                            . Q # j z./.`.%X,XZ.`.&X&XO.Y 4         8 Q o                           ",
"                            . Q # ; <.z.H o 3X9X].8X%XW.y  ..         .                             ",
"                              o . 3 C n @ U (.^.r.`.%XZ. .>X{                                       ",
"                                  D ).t.a h.^.C.w.`.Z.A >X6X2Xw > M                                 ",
"                                  s 9.y.l C C.9XN.(.U ( &.tXuXI d.T.f.J                             ",
"                                > B s d a e.C.L.[.o.) ) I eXuXy M T.R.I.K                           ",
"                                5 i.- S j ,.r.B.l./ / ^ y eXyXS M L L L H O                         ",
"                                O 5 w *Xr 1 N Z _ #X: : ( eXyXI i.M J 5 J X                         ",
"                                  w &.#.O s * / $X#X: l y eXgXh.h 5 U.H U.@                         ",
"                                  A :X| X X.e _ ^ #X^ ;X#.-XsXpXF.= @ O M g                         ",
"                                  [ =.j l j - / u k ;.r.m $.sXdX~.4.2.b 2.3.a                       ",
"                                0 G.X.f :.i b C e a.v.v.m  .yXdX'.x.0.c 3.8.g                       ",
"                                ] @.5 W.k.z + &.5X4X4X<X=.A 2XfXsXE.x.b ; 5.v *                     ",
"                              2 =.X.O.W.l.B + 8 ~ ` Y 9 ~ 8 :XsXfX_.n.s.B >.6.p                     ",
"                      A       % X.Z./.~.U v ; Q oXoX` Y .X` -.tXsXwXm.x.4.g 7.c                     ",
"                  .  .7X#.2 A 3 O.]._.S.B g I W T T T 8 E OX! +.7XgX'.x.q.c >.8.;                   ",
"              w *...0 &.-Xr @.#.Z./.W.V 2.f *.=.*.$X .. & E E I O.uXiXz.q.n c 8.; .                 ",
"              0 &.t w ..-Xt { *XF h.6 : B #.2X5X6X7X%.3X=.] Q.[ % 7XeXQ.p.6.g b f J <               ",
"              $ w w @.{ =.{ y %.7 I r @ U 5XyX6X:XG.| eXrX4X4X#.$ 6X6X,XA.q.g ; V f.<               ",
"                I 6X=.% | t ' w % #...I tXsXfX7XG.] 4XuXfXfXrX| @ 6X6X4X,Xq.2.; f.I.<               ",
"                  0 ..] 0 %.A $ &.| I tXfXfXaX5Xy :XtXaXfXfXaX>Xr 6X6X4X1Xp.7.p d.I.<               ",
"                  q %.' ] &.t 2 =.{ @.aXfXfXeX>X' @.=.yXfXfXaX4XA :X6X3X3XK.7.c L g.<               ",
"                    . . . .   t %.| aXfXfXdX7X%X%.0 >XaXfXsX7X=X' w 7X4X3XQ.8.9.a K <               ",
"                            . *X=.%XgXfXsXeX2X%X%.% { >XaXeX*X] *.] 7X4X4XQ.7.8.8.p                 ",
"                            . @.| aXfXfXaX7X=X&.{ t 2X@.%.@.$.:X2X] 7X3X3X,Xp.8.8.p                 ",
"                            . @.I 7X4X5X5X:XQ.P h S uXyX=X=XtX6X@.r 7X4X4X4XA.8.8.p                 ",
"                            . @.t =X=.%X:X%X-.w b S uXsXfXfXsX5Xy 0 7X4X3X4XA.8.8.p                 ",
"                            . @.r *.*.=.=.*.*.e n I rXrXrXrXaX4XA h =.eX4X3XA.8.7.b *               ",
"                            . G.%.' &.=.*.=.$.F 2.F >X4X4X4X6X2XA v Z yX4X4XD.q.8.6.=               ",
"                            . -X=Xw #.=.=.%.w h 3.v | 4X4X4X4X>XA b Z uX5X4X<Xk.8.3.=               ",
"                            . -X>X] 0 @.&.w . o . . t 4X3X3X4X>XA b Z uX5X4X2Xj.8.5.=               ",
"                              t -X%.| $ - d x =     X A =X=X$Xt   + 0 eX6X4X3Xj.8.5.=               ",
"                              2 @...] . : ,.V.F       X w [ y O     X $.rX5X3XD.q.2.=               ",
"                                . . .     [ J.e.Z       P ].P.4        .yX4X3X4Xh.;                 ",
"                                            i e.;XX . . - j.).6       ..rX6XG. .2                   ",
"                                .           : o.#.; * + : U K.C +     [ =X&.] %                     ",
"                                O ; O X X ( V.m d ;.d a t.v d e.4                                   ",
"                                * ;.l d l ,.e.:.;.z = a b.t.3.Z h *                                 ",
"                                  i x z z x z i * *   p t.y.y.9.:.*                                 ",
"                                  * ; ; ; ; ; *         n :.:.1.;.*                                 ",
"                                                        + * * * *                                   "
};
