/* XPM */
static char *result[] = {
/* columns rows colors chars-per-pixel */
"50 50 208 2 ",
"   c #0D0903",
".  c #0C050B",
"X  c #0C0C0C",
"o  c #080604",
"O  c #110B0B",
"+  c #110610",
"@  c #120F17",
"#  c #151415",
"$  c #1B1B1B",
"%  c #191717",
"&  c #0F0D11",
"*  c #301F0D",
"=  c #261F17",
"-  c #3C1D1A",
";  c #361C14",
":  c #2F1E0F",
">  c #35220C",
",  c #39240B",
"<  c #25211B",
"1  c #28231C",
"2  c #362514",
"3  c #392614",
"4  c #33241B",
"5  c #39261B",
"6  c #3D291D",
"7  c #3C2913",
"8  c #1A1920",
"9  c #261B25",
"0  c #232323",
"q  c #2B2225",
"w  c #2A2829",
"e  c #2C232C",
"r  c #322424",
"t  c #3D2B23",
"y  c #31262D",
"u  c #2C2636",
"i  c #312730",
"p  c #332A32",
"a  c #312E3C",
"s  c #3A3339",
"d  c #36323C",
"f  c #401F1B",
"g  c #49260D",
"h  c #4B2C0B",
"j  c #472A0B",
"k  c #4E310A",
"l  c #533205",
"z  c #5A3505",
"x  c #5E3906",
"c  c #55350A",
"v  c #5D3A0C",
"b  c #59370B",
"n  c #452313",
"m  c #462A13",
"M  c #4C3216",
"N  c #533613",
"B  c #5B3C13",
"V  c #5B3E1B",
"C  c #543919",
"Z  c #512E08",
"A  c #643D05",
"S  c #623E0B",
"D  c #603F15",
"F  c #412E24",
"G  c #46342A",
"H  c #4F3D2F",
"J  c #5E411F",
"K  c #664006",
"L  c #694206",
"P  c #65410C",
"I  c #6B460B",
"U  c #6F490D",
"Y  c #704A0E",
"T  c #644314",
"R  c #6B4711",
"E  c #6C4915",
"W  c #63431B",
"Q  c #6D4B1B",
"!  c #6A4718",
"~  c #734E14",
"^  c #714E1C",
"/  c #765016",
"(  c #765219",
")  c #79541C",
"_  c #5F4427",
"`  c #634624",
"'  c #6C4C23",
"]  c #6C4D2D",
"[  c #654928",
"{  c #745323",
"}  c #7A5723",
"|  c #7E5923",
" . c #73532C",
".. c #7D5A2A",
"X. c #795729",
"o. c #6A4E33",
"O. c #664D31",
"+. c #6D5236",
"@. c #745432",
"#. c #7C5B34",
"$. c #755639",
"%. c #7B5C3C",
"&. c #704F2F",
"*. c #363442",
"=. c #3D3B45",
"-. c #3E3C4A",
";. c #393742",
":. c #423D43",
">. c #423D4B",
",. c #403548",
"<. c #3F4047",
"1. c #44434B",
"2. c #4A454B",
"3. c #49494D",
"4. c #454348",
"5. c #4D4D53",
"6. c #4D4955",
"7. c #524E54",
"8. c #524C59",
"9. c #4E5155",
"0. c #525254",
"q. c #545559",
"w. c #5C5C5D",
"e. c #56585B",
"r. c #50494E",
"t. c #745A44",
"y. c #765C49",
"u. c #695A4E",
"i. c #5B615E",
"p. c #7E6040",
"a. c #5B5D62",
"s. c #615D65",
"d. c #5D6264",
"f. c #5E6966",
"g. c #636564",
"h. c #636B67",
"j. c #63636A",
"k. c #646B6A",
"l. c #6A6B6C",
"z. c #6C6769",
"x. c #65736C",
"c. c #6A736E",
"v. c #6D6D72",
"b. c #6B6571",
"n. c #6C7571",
"m. c #6D7B73",
"M. c #727474",
"N. c #727C76",
"B. c #757C79",
"V. c #7B7B7C",
"C. c #797677",
"Z. c #805C27",
"A. c #825E2B",
"S. c #805F33",
"D. c #84612E",
"F. c #856233",
"G. c #896635",
"H. c #8B6837",
"J. c #84643B",
"K. c #8A6739",
"L. c #8D6A3B",
"P. c #906D3E",
"I. c #8C6A43",
"U. c #896742",
"Y. c #926E42",
"T. c #947045",
"R. c #977249",
"E. c #807E7B",
"W. c #6F8076",
"Q. c #708177",
"!. c #74827A",
"~. c #7A847E",
"^. c #89847D",
"/. c #7C7C81",
"(. c #7D7781",
"). c #807E84",
"_. c #7D8680",
"`. c #7F8882",
"'. c #838384",
"]. c #838A85",
"[. c #868D89",
"{. c #8A8C8B",
"}. c #888687",
"|. c #8B918D",
" X c #93918E",
".X c #9B968E",
"XX c #8F8E91",
"oX c #8E9391",
"OX c #939493",
"+X c #949996",
"@X c #9B9B9B",
"#X c #989797",
"$X c #938E89",
"%X c #A19E9B",
"&X c #A19C93",
"*X c #A5A29E",
"=X c #9F9FA0",
"-X c #9FA2A0",
";X c #A4A4A4",
":X c #ACA9A5",
">X c #ABABAB",
",X c #A7A7A9",
"<X c #B1ACA4",
"1X c #B4AFA8",
"2X c #B8B3AC",
"3X c #B2B2B2",
"4X c #BDB8B1",
"5X c None",
/* pixels */
"5X5X5X5X5X5X5X5X5X5X5X5X5X5X5Xb.>.2.w.;X3X>X>X'.l.w.@X3X>X3X;XXXb.5X5X5X5X5X5X5X5X5X5X5X5X5X5X5X5X5X",
"5X5X5X5X5X5X5X5X5X5X5X5X3X>X,X,Xb.w.}.,X@X+XOX[.v.z.*X@X@XOX{.C.q.C.=X;X>X5X5X5X5X5X5X5X5X5X5X5X5X5X",
"5X5X5X5X5X5X5X5X5X5XOX>X@X X|.OX^.w.'.@XoX|.|.{.B.M.@X@X@X+XOXC.a.'.OXoX@X>XOXg.5X5X5X5X5X5X5X5X5X5X",
"5X5X5X5X5X5X5X5Xw.'.OX@X{.].{.{.n.w.V.@X|.].~.~.C.M..X+X@XOX{.M.q.N.{.oXOXOX,XC.s.5X5X5X5X5X5X5X5X5X",
"5X5X5X5X5X5X5X@XC.l.V.@X].Q.~.~.x.7.B.}._.m.W.Q.v.M.[._.~._._.e.9.x.Q.|.OX@XOXj.l.}.,X5X5X5X5X5X5X5X",
"5X5X5X5X5X5X,X>X;X}.l. X[.W.W.N.j.>.l.n.n.x.x.h.0.d.n.n.N.m.k.,.<.f.W.`.OX{.g.v.#X>X3X3X5X5X5X5X5X5X",
"5X5X5X5X5X;X@X@X@X%X{.v.B.h.i.q.3.u >.9.q.5.1.=.a ;.8.5.5.4.;.u u 3.i.x.M.g.j.OX@X@X@X>X,X5X5X5X5X5X",
"5X5X5X5X|.OXOX{.].|.OXB.3.4.d y r 5 6 m t 6 6 4 9 4 m 5 5 9 2 3 4 e d 1.2.q.OX+XOX XOX%X@X|.5X5X5X5X",
"5X5X5XM.Q.!.].^.Q.N.n.w.u 4 3 j g A S S B A A A 9 C R R T M ! R T M C m u 1.M._.~.].{.]._.V.5X5X5X5X",
"5X5X5Xg.g.n.!.!.Q.x.9.w 4 j l c V ) A.Z.[ G.G.A.u O.G.G.#._ F.A.X.' } ~ T t ;.f.!.~.~.N.k.w.5X5X5X5X",
"5X5X,Xv.0.e.h.m.x.9.p 4 j z K T ` K.L.S.&.R.P.H.i t.Y.L.J.O.L.K.G.@.H.D.} J G H i.c.h.i.q.w.OX5X5X5X",
"5X5X,X*XM.9.3.i.i.p 3 m c I )  .o.L.K.S.&.R.L.G.i t.Y.G.L.$.I.G.F.@.H.L.K.' } H H 0.0.0.g. X,X,X5X5X",
"5X,X,X;X,XoX8.-.p 2 l N N ) F.%.$.T.H.S.&.T.H.S.p t.Y.G.U.$.I.J.F.@.G.L.P.o.A.) G =.3.M.-X,X>X3X5X5X",
"5X,X,X+XOX;X{.>.w k A B  .D.L.J.t.R.P.A.&.Y.L.A.i t.Y.F.K.$.L.H.K.@.G.L.P.] S.Z._ ;./.;XOX|.=X3X5X5X",
"5X>X+XoX[.{.{.-.2 x Y B L.G.L.J.J.T.P.S.&.T.H.G.p t.L.F.K.$.I.K.K.@.G.G.P.] F.F.{ 4.{.oX`.~.[.>X5X5X",
"5X#X{.`.`.`.M.*.m K ( ' U.G.L.J.J.Y.P.S.&.R.H.H.i t.U.D.G.%.I.G.H. .G.F.P.o.F.H.Z.G s._.~.].].OX5X5X",
"5Xa.M.~.~.~.j.u k I / ' I.L.P.J.t.P.L.S.&.R.K.L.i t.K.S.S.J.U.S.H.@.H.F.H.O.G.G..._ 9.!.~.'.~.l.5X5X",
"5X5.3.5.d.h.0.t l I ) ' I.L.L.J.t.P.P.A.&.Y.K.L.i t.L.A.S.S.K.S.H.@.H...G.] G.G.D._ 4.k.f.e.4.d 5X5X",
"5X{.l.6.<.<.;.t b I ) @.I.L.L.#.S.L.P.S.&.L.L.P.i y.U.S.S.$.K.A.G.@.G.D.D.] G.F.D.[ p <.-.=.1.5.5X5X",
"5X3X,XXXn.9.*.t z I ) #.U.H.P.#.S.H.L.S.&.Y.L.Y.i J.Y.S.S.S.U.A.G.#.H.D.D.] H.F.D.[ d <.q.v.{.=X5X5X",
"5X3X@XOX@X{.q.G z U ) #.U.H.L.#.t.K.L.S.&.Y.Y.P.i t.Y.K.S.$.S.S.#.#.P.D.D.] L.D.D.O.:.n.oX=X@X>X5X5X",
"5X3X|.[.{.{.d.t z I ) #.I.H.L.#.S.L.L.S.] Y.Y.P.i t.Y.S.S.&.G.S.J.#.P.D.G.] K.G.D.] 1.OX{.{.OX@X5X5X",
"5X>X{._.~.].d.t z K ) #.L.L.P.#.&.Y.L.S.] Y.Y.Y.i +.R.L.S.&.K.K.L.#.P.G.L.] L.L.F._ 2.oX_._.[.OX5X5X",
"5X,X_.!.!.!.d.4.w.E.^. X*X<X<X:X>X2X1X1X:X1X<X&X*.s..X&X&X&X<X<X1X1X4X4X4X4X4X2X:X^.a.|.!.!.!.|.5X5X",
"5X+X!.!.!.W.a.8 # % $ $ $ 0 0 0 0 0 0 0 0 < 0 0 + $ 9 0 0 0 w w w 0 w w w w w w 0 8 <.[.Q.!.!.!.5X5X",
"5X|.!.!.!.!.a.@ o o X # & & X # # # % % % $ $ $ 8 = $ $ % % $ % % % % % # # O X X o -.[.Q.!.!.!.5X5X",
"5X].~.B.B.!.d.0 * > * 2 * * > 2 2 > 2 2 4 7 7 4 9 9 5 3 4 7 2 7 4 2 7 7 2 4 > , > : :.V.B.m.!.V.5X5X",
"5Xk.l.c.c.k.5.t b ~ ) ' } ....{ ' X...{ _ } | ..9 _ Z.Z.` } ....' ' | | { ` ......C 4.c.c.x.v.j.5X5X",
"5X,.2.2.2.2.:.F x / F.#.G.H.L.#.@.H.P.F. .L.L.P.w +.L.G.+.L.P.T.@.F.L.L.F.#.T.P.K._ s 2.3.1.4.a 5X5X",
"5X(.(.V.'.'.j.G x / ..X.F.G.H.F.@.H.H...&.K.K.H.y O.G.D.] H.H.G. .#.L.H.#.#.P.L.H.` r.C.}./.(.M.5X5X",
"5X>XOX|.|.|.v.G x ~ | { F.D.D.#.@.G.G.} ] G.D.G.y [ D.| ' G.D.D.' #.G.G...#.H.D.D.` q.@X+X+X+X=X5X5X",
"5X,X{.~.~.~.l.F x E } { #...| X. .D...} ] D.| ..r [ | ) W D.D.) ' ..| A.X.#.A.| A.` 0. X_._.}.OX5X5X",
"5X;X].~.Q.!.h.F z R ( Q X.) | }  .D.| } ' D.) | r _ ) ) W G.} | ^ X.| | { @.| ) | ` 0.|.!.~.~.[.5X5X",
"5X@X!.!.m.Q.h.t z I ~ T Q / ( ( ' ) ) E ] | ) / r _ ) ) W ../ ) W { / ) (  ./ / ) J r.[.Q.!.!.~.5X5X",
"5X|.Q.N.N.Q.d.t z P I P I U U E T E / P ` / / U 1 J ( / W / / / ! E Y / E Q / / ( _ 4.!.m.m.W.!.5X5X",
"5XM.n.m.N.n.q.t z K K v P I I P P I I P T Y U L 1 J ~ Y P U U Y T T U Y I T U Y ~ V 2.C.m.N.c.c.5X5X",
"5X2.6.6.0.0.4.5 z A A x x L K v v L L P B L K K 9 N L K x U I P b S K K x v K K K C s 0.7.2.4.*.5X5X",
"5X8.s.s.w.w.>.t N P T T W ! ! ! ` ) { { +.{ ) { q C Q E [ Q ( ^ [ W ( Q ' ' { { ( ` s q.w.w.s.6.5X5X",
"5X,X@X#XOX+Xv.=.3.w.g.l.C.V.~.^.].$X X+X+X*X*X:Xs w.^.].{. X X X{.OX*X%X@X@X,X2X3X>Xb.@X@X@X#X%X5X5X",
"5X;X_._.~.'.n.8 X X X X X X X X X X X & X # # O X X X & O % % % $ $ $ < < 0 0 0 0 w 5.OX].~.].{.5X5X",
"5X[.c.c.m.n.j.%       o                 O   O O O # % % % < = = < < < < 9 = 1 1 1 0 5.].n.x.n.m.5X5X",
"5X_.x.x.x.k.e.r Z l l k k l l k h Z l c j c l c 0 j l c M c c b M k c b c k b b b M 2.V.j.f.f.k.5X5X",
"5XM.d.f.f.n.a.F x I Y ! T / / R D ~ ~ E V ~ ~ ( q C / ~ B / ~ ~ T ! ( / ! W ~ ~ ~ B 2.B.f.d.d.k.5X5X",
"5Xa.d.a.d.d.e.F x L / E E ( ) E T ~ ) ^ W ( ) ) q V ( ( J ( ) ) T ^ ) ( R ! ( ( ~ V 4.l.d.d.d.a.5X5X",
"5X-.>.1.1.>.-.t A U / ! U / / I D / / ^ D ~ ~ / q N ~ Y V I Y Y T ! E U A T Y Y I N d 2.<.-.;.*.5X5X",
"5Xa =.-.=.*.a 5 x L ~ v P U U P S I Y I S I I I 9 N L L b A A A c P K L z S A A A N i *.-.-.*.u 5X5X",
"5X(./.}.}.}.j.t l z x k z x x v v S A S b A A Z 9 g z z N b b z c z x z Z Z z l c m >.).).}././.5X5X",
"5X#X`.).).).s.9 - n n - n g g n n n g n f f n f 9 - g n f m g n f g j g n ; g g g ; -.}././._.[.5X5X",
"5X(.v.v.v.v.e.@ . . . & + + & + + + & + + & + + + + + + + + & + + + + O + + . . . . ;.j.a.s.a.j.5X5X",
"5Xb.8.8.6.6.-.8 @ @ # # % @ # % % @ # % @ # # # % # # % % @ % % % # # # % # # % # # a 1.-.>.-.1.5X5X"
};
