/* XPM */
static char *_71267e0178b4a8a8e5459b6900e7ab5g2Tubl1OzljZ66QS[] = {
/* columns rows colors chars-per-pixel */
"40 40 174 2 ",
"   c None",
".  c #724611",
"X  c #734611",
"o  c #734612",
"O  c #744612",
"+  c #7A4913",
"@  c #7B4B13",
"#  c #794D1B",
"$  c #7E5012",
"%  c #824F14",
"&  c #805412",
"*  c #845412",
"=  c #845512",
"-  c #8A5714",
";  c #895911",
":  c #895912",
">  c #895D12",
",  c #8B5E12",
"<  c #8F5E12",
"1  c #8F5A14",
"2  c #8D5D1F",
"3  c #905F12",
"4  c #905915",
"5  c #995D18",
"6  c #9A5E18",
"7  c #9B5F18",
"8  c #8E6212",
"9  c #906411",
"0  c #996717",
"q  c #9A6913",
"w  c #9D6B13",
"e  c #9A6D11",
"r  c #976618",
"t  c #94641B",
"y  c #93621C",
"u  c #9C7111",
"i  c #A36F13",
"p  c #A16915",
"a  c #A96D17",
"s  c #A16518",
"d  c #A36718",
"f  c #A76C1C",
"g  c #A57213",
"h  c #A87513",
"j  c #AB7713",
"k  c #AD7117",
"l  c #AD7517",
"z  c #AE7A13",
"x  c #A97F11",
"c  c #AA7F12",
"v  c #AE7A17",
"b  c #B17A1A",
"n  c #8F5F20",
"m  c #81582A",
"M  c #8F6B41",
"N  c #AD7D46",
"B  c #BB8314",
"V  c #BE8514",
"C  c #BF8813",
"Z  c #B28719",
"A  c #B28818",
"S  c #BF9411",
"D  c #C78F13",
"F  c #C09611",
"G  c #C59B11",
"H  c #D89E13",
"J  c #DA9C15",
"K  c #D89F1E",
"L  c #D0A71B",
"P  c #D7A51C",
"I  c #D8A71F",
"U  c #DEAC1E",
"Y  c #DFB918",
"T  c #E6A914",
"R  c #EBAC15",
"E  c #E8AA19",
"W  c #E0B811",
"Q  c #F1B414",
"!  c #FABC19",
"~  c #CF9C32",
"^  c #C6913A",
"/  c #C89439",
"(  c #D49E39",
")  c #DDA634",
"_  c #D9A239",
"`  c #D8A638",
"'  c #CFB63C",
"]  c #DDB930",
"[  c #D9BC30",
"{  c #D8BC33",
"}  c #ECB126",
"|  c #ECBC24",
" . c #E2BA2C",
".. c #F1B522",
"X. c #F5BF23",
"o. c #F1B52D",
"O. c #E2A930",
"+. c #E2AA30",
"@. c #EBA03F",
"#. c #E9B639",
"$. c #F0B031",
"%. c #F3C70D",
"&. c #EEC611",
"*. c #FFC014",
"=. c #F3C814",
"-. c #F7CE16",
";. c #F4CA1B",
":. c #F3CE1A",
">. c #F4CB1F",
",. c #F0CD1F",
"<. c #FCD411",
"1. c #EAC822",
"2. c #F4CD25",
"3. c #F4CE2A",
"4. c #F5CD2D",
"5. c #F5CE2D",
"6. c #FCD623",
"7. c #F5CE31",
"8. c #F5D23D",
"9. c #A0815E",
"0. c #CF9B42",
"q. c #D7BD44",
"w. c #D4BB49",
"e. c #DEC34A",
"r. c #EEC14B",
"t. c #ECCA49",
"y. c #FFCC43",
"u. c #FFCE4B",
"i. c #F7D247",
"p. c #FCDB49",
"a. c #F3CD5C",
"s. c #FFD155",
"d. c #F8D555",
"f. c #FDDD57",
"g. c #FFD159",
"h. c #F9D05C",
"j. c #F9D85D",
"k. c #FDE077",
"l. c #FDE17B",
"z. c #F7CD8D",
"x. c #F7CD8E",
"c. c #ECD58C",
"v. c #ECD68D",
"b. c #F2D787",
"n. c #F9D388",
"m. c #F2DD9C",
"M. c #F9E281",
"N. c #FDE193",
"B. c #FDE393",
"V. c #FDE49E",
"C. c #FEE69F",
"Z. c #FAE99E",
"A. c #F5E0A7",
"S. c #FBE9A2",
"D. c #F5E4B1",
"F. c #FEE7B0",
"G. c #FBEDB1",
"H. c #FEEABB",
"J. c #FCEBBD",
"K. c #E3DAD0",
"L. c #FFEBC2",
"P. c #FFEDC8",
"I. c #FFEFCE",
"U. c #FDF4CF",
"Y. c #FFF1D3",
"T. c #F5F0D8",
"R. c #FFF5D9",
"E. c #FFF5DA",
"W. c #FFF9EA",
"Q. c #FFFBF3",
"!. c #FFFCF5",
"~. c #FFFDF9",
"^. c #FFFEFA",
"/. c white",
/* pixels */
"                          o o o o o o o . o o o o o o o o o                     ",
"                          e u u u u u u u 9 o o o o o o o o                     ",
"                    c c A t.f.f.f.f.f.f.X.I x Z , o 9.# o o o o X X             ",
"              o o o <.<.6.V.L.L.L.L.L.L.@.$.<.<.x o K.m o o o o X X             ",
"            , F G G l.l.k.j.d.d.d.d.d.d.z.n.h.o.P G K.m = D D D D D X           ",
"            8 &.<.<.L.L.F.7.%.%.%.%.%.%.L.L.z.@.X.<.K.m < *.*.*.*.! X X         ",
"        , 8 p.B.V.V.%.%.%.%.%.%.%.%.%.%.%.%.i.V.H.I.R.s.#.< o : < < < = o       ",
"      o F &.B.5.>.>.%.%.%.%.%.%.%.%.%.%.%.%.=.>.S.^.^.W.J.Q o H Q Q Q C o       ",
"      o G <.V.>.%.%.%.%.%.%.%.%.%.%.%.%.8.8.8.8.G./././.R.y.M K R R R V @ @     ",
"      o G <.V.>.%.%.%.%.%.%.%.%.%.%.%.%./././././././././././.N 5 5 5 5 5 %     ",
"    c <.l.L.%.%.%.%.%.%.%.%.%.%.%.%.%.%.%.%.%.%.Z./././.T.' <.l d R *.*.*.j     ",
"    c <.l.L.%.%.%.%.%.%.%.%.%.%.%.%.%.%.%.%.%.%.3.8.!.Y.D.' <.l 5 a k a k -     ",
"    c <.l.L.%.%.%.%.%.%.%.%.%.%.%.%.%.%.%.%.%.%.%.%.Q.P.A.' <.l 5 d d d d 1     ",
"    c <.l.L.%.%.%.%.%.%.%.%.%.%.%.%.%.%.%.%.%.%.%.%.Q.P.A.' <.l s J R R R T q o ",
"o u f.L.d.%.%.%.%.%.%.%.%.%.%.%.%.%.%.%.%.%.%.%.%.%.U.2.7.L.' :.-.` 0.0.0.0.n o ",
"o u f.L.d.%.%.%.%.%.%.%.%.%.%.%.%.%.%.%.%.%.%.%.%.%.M.;.7.L.' :.-.` +.+.+.+.t o ",
"o u f.L.d.%.%.%.%.%.%.%.%.%.%.%.%.%.%.%.%.%.%.%.%.%.%.%.7.L.' :.-.` *.*.*.*.w o ",
"o u f.L.d.%.%.%.%.%.%.%.%.%.%.%.%.%.%.%.%.%.%.%.%.%.%.%.7.L.' :.-.` +.+.+.+.t o ",
"o u f.L.d.%.%.%.%.%.%.%.%.%.%.%.%.%.%.%.%.%.%.%.%.%.%.%.7.L.' :.-.` ........0 o ",
"o u f.L.d.%.%.%.%.%.%.%.%.%.%.%.%.%.%.%.%.%.%.%.%.%.%.%.7.L.' :.-.` *.*.*.*.w o ",
"o u f.L.d.%.%.%.%.%.%.%.%.%.%.%.%.%.%.%.%.%.%.%.%.%.%.%.7.L.' :.-.` 0.0.0.0.n o ",
"o u f.L.d.%.%.%.%.%.%.%.%.%.%.%.%.%.%.%.%.%.%.%.%.%.%.%.7.L.' :.-.` ) ) ) ) y o ",
"o u f.L.d.%.%.%.%.%.%.%.%.%.%.%.%.%.%.%.%.%.%.%.%.%.%.%.7.L.' :.-.` } } } } 0 o ",
"o u f.L.d.%.%.%.%.%.%.%.%.%.%.%.%.%.%.%.%.%.%.%.%.%.%.%.7.L.' :.-.` 0.0.0.0.2 o ",
"o u f.L.d.%.%.%.%.%.%.%.%.%.%.%.%.%.%.%.%.%.%.%.%.%.%.%.7.L.' :.-.` } } } } r o ",
"o u f.L.d.%.%.%.%.%.%.%.%.%.%.%.%.%.%.%.%.%.%.%.%.%.%.%.7.L.' :.-.` *.*.*.*.w o ",
"    c <.l.L.%.%.%.%.%.%.%.%.%.%.%.%.%.%.%.%.%.%.%.%.7.F.A.' <.~ ^ ( _ _ _ / 2 o ",
"    c <.l.L.%.%.%.%.%.%.%.%.%.%.%.%.%.%.%.%.%.%.%.%.7.F.A.' <.b f E ! ! ! v     ",
"    c <.l.L.%.%.%.%.%.%.%.%.%.%.%.%.%.%.%.%.%.%.%.%.7.F.A.' <.l s J R R R i     ",
"    c <.l.L.%.%.%.%.%.%.%.%.%.%.%.%.%.%.%.%.%.%.%.%.7.F.A.' <.l 5 5 5 5 5 %     ",
"      o G <.V.>.%.%.%.%.%.%.%.%.%.%.%.%.%.%.%.%.%.%.A.w.{ <.5 R *.*.*.*.*.j     ",
"      o G <.V.>.%.%.%.%.%.%.%.%.%.%.%.%.%.%.%.%.%.%.A.w.{ <.5 a k k k p < :     ",
"      o F &.B.4.>.>.%.%.%.%.%.%.%.%.%.%.%.%.=.2.>.>.m.q.[ &.d d d d d 4 o       ",
"        , 8 u.B.V.V.%.%.%.%.%.%.%.%.%.%.%.%.i.V.V.V.e.,.Y 8 R R R R R B o       ",
"            8 &.<.<.L.L.F.7.%.%.%.%.%.%.L.L.c.' ,.<.W & o o o o o o o O         ",
"            , F G G l.l.k.j.d.d.d.d.d.d.c.b.a. .L G S z j j j j g $ O           ",
"              o o o <.<.6.V.L.L.L.L.L.L.' ] *.*.j . 9 Q ! *.*.*.Q <             ",
"                    c c Z r.g.g.g.g.g.g.| I j j = . @ g j z j j j :             ",
"                          q w w w w w w w 3 o o O o o o . o                     ",
"                          o o o o o o o o o o o o o o o o o                     "
};
