/* XPM */
static char *_761832368d04dbefd5b3103c365428evcvheMGg4K0IOP1p[] = {
/* columns rows colors chars-per-pixel */
"50 50 90 1 ",
"  c None",
". c #6D663D",
"X c #6F6A3F",
"o c #6D6344",
"O c #726140",
"+ c #736C43",
"@ c #777341",
"# c #7C7343",
"$ c #806E43",
"% c #837D41",
"& c #8C8242",
"* c #928841",
"= c #9D8A47",
"- c #9E864B",
"; c #9C8D48",
": c #9F9248",
"> c #A28A47",
", c #A49447",
"< c #A99346",
"1 c #A59845",
"2 c #AD9C4A",
"3 c #B19D47",
"4 c #B49E4C",
"5 c #A48C51",
"6 c #B59C55",
"7 c #B6A24D",
"8 c #BAA54D",
"9 c #BDA94D",
"0 c #B5A155",
"q c #B8A254",
"w c #AA9867",
"e c #B29E6B",
"r c #B4A166",
"t c #723FA3",
"y c #664291",
"u c #6A4697",
"i c #6E4A9C",
"p c #724C9F",
"a c #754EA4",
"s c #7A47AC",
"d c #784FA9",
"f c #7650A6",
"g c #7750AA",
"h c #7B52AD",
"j c #7E54B2",
"k c #7E59B6",
"l c #7F5CBA",
"z c #7962BB",
"x c #7B6ABE",
"c c #7D6FC4",
"v c #7E70C8",
"b c #8056B6",
"n c #8158B7",
"m c #8257B9",
"M c #855ABD",
"N c #885BBF",
"B c #875CC1",
"V c #885EC4",
"C c #8364C4",
"Z c #8766CA",
"A c #8B64CB",
"S c #846CCD",
"D c #8172CC",
"F c #8D6ED5",
"G c #8576D2",
"H c #8B72D6",
"J c #8779D6",
"K c #887AD7",
"L c #8F74DA",
"P c #8B7CDC",
"I c #9170D9",
"U c #917CDF",
"Y c #8E7FE1",
"T c #9377E0",
"R c #937AE3",
"E c #967EE9",
"W c #AE9B80",
"Q c #9F8EAF",
"! c #9889B2",
"~ c #8F80E3",
"^ c #9182E5",
"/ c #9485EB",
"( c #9982EE",
") c #9788EE",
"_ c #9888EE",
"` c #9787F0",
"' c #9A86F2",
"] c #9788F0",
"[ c #9A8AF4",
"{ c #9E8EFB",
/* pixels */
"                                                  ",
"                                 2-= 78           ",
"                               2=#     9          ",
"                            7q,+   6   9          ",
"             <-          778;$    q    8          ",
"            <3,        899;O           8          ",
"            >2*37478q83112        0   7           ",
"              o++.@#@+o %5                        ",
"                        &5                        ",
"                        0r                        ",
"                     {{[eW{{                      ",
"                 {_{~{^^wr]{{[{{{{Ra              ",
"               {{[_)/^{{!!){){{{{['jMs            ",
"              ~P{~[)_//{{^)^^_)[{^{HjMd           ",
"             P[~^~/^D^_P^PJK'[[^~/`{lMM           ",
"            Y[{KG{{{{_J^//Y{{{{{[/~[[mbd          ",
"           [~{~K{[//[{]){)]{]~//{~[~[RBjy         ",
"          [^//K[{~[[~{{^{~{{P{{~{/[{YYMhaj        ",
"         [/^{{~{/{[{~{{^{Y{{^{]^{^{`YYkMbhj       ",
"        {Y{^~)/{^[)/[{/){/]{P{]~Y`Y`{{ThMhh       ",
"        //{{{P~~{~[{{/^{{{~[[~PP`Y[[^^KMhjh       ",
"       {~~~~{[cK){~~~[[^PYPJ){{{^[{P{{'hbjau      ",
"       ^P[{^]{YGP/{{[~/{{{{{]JY~[{[/{`HjMjmy      ",
"       P^[{/[[/{~K~~/[^///){{]/{{{)`{^`nmjhi      ",
"       D[~{^{~[[{{{{[^{{{{//{{^{{{[/{/Ejmdbn      ",
"       D{~{~{P[J[{{{Y{{`Y[{~{{^{{{{P{^LdNaMh      ",
"      SK{/~{)/)Dv~{{Y{{^{{{/{{^{{{{~{{ZBMabh      ",
"      P~{{[{J^]{[Y/``{{^{{[~{{^_^//)~'VMjdjM      ",
"      `K[{{~){{{{{`~^{{///~[{^K/[{[^JZnjbjjM      ",
"      []J~~~{{{][{{~Y{{{{{{{^K{{{[{{(nMNNjbM      ",
"      [`^{)[{{~]/`{[~^^{{{[~J[{{P[^[EjNMMjbm      ",
"      [`/{^{[{^{{^{{P{]////)[{{^[{_[FjNBbdmb      ",
"      )[^{^{{[){`/{[/{{{{{{E{{{/{{~[MbmbbMb       ",
"      Y)vPG)_{^{[{{Y{{`/`{{^{{{/[{{FMbdMMMN       ",
"       K[{[J~{~[{[Y`/^[{{/^P{{{{~^FjbdabbdM       ",
"       Y{[/KP^[/(/[)`{{{{{{Y/{{{{FMnmamMMbM       ",
"       ^{^{YPKJ[{{~P{{{{{{{{c/{{LBBmdbMMBhN       ",
"       _{^{^[GY~Y^Y[{{/~/Y{{YjCBmjdbdMbbbbm       ",
"        [/[)[P{{{{P{{{^{{`]{HMBnmMMBhMbbhM        ",
"         {P{{P{{{{K{{[/{{]]`jmMBBBBMbMbbMm        ",
"          [~~][)/_P{{{/{{[EBhMNmjjjhhBMBM         ",
"          z[{~/{{'K^{{~['FMhMNhbMNNMjnBM          ",
"           MVH^^^[{D^RLljjjMjhhjjjMBNdh           ",
"           njnhBAlCAppfahmbhbdMMMMdBMd            ",
"             hhMnBnbmjbjhbMMhMMbBBbMb             ",
"              aMjjMdBdMNMBNhMBjMMbjM              ",
"                MbbmBjMBBBMjBMjjjbb               ",
"                   nn  nnmndmMMMb                 ",
"                                                  ",
"                                                  "
};
