/* XPM */
static char *result[] = {
/* columns rows colors chars-per-pixel */
"50 50 211 2 ",
"   c #010000",
".  c #0B0604",
"X  c #0D0805",
"o  c #0A070B",
"O  c #0C0B0C",
"+  c #130B04",
"@  c #190E04",
"#  c #120B0C",
"$  c #160B0B",
"%  c #1C1105",
"&  c #15110E",
"*  c #1C1209",
"=  c #0C0A11",
"-  c #140A13",
";  c #141414",
":  c #191614",
">  c #1B1A1A",
",  c #181519",
"<  c #0F100F",
"1  c #220F0E",
"2  c #231405",
"3  c #2C1904",
"4  c #21150A",
"5  c #25190B",
"6  c #2A1C0B",
"7  c #321E06",
"8  c #331A0B",
"9  c #391E0A",
"0  c #2D1F12",
"q  c #261917",
"w  c #381B13",
"e  c #362106",
"r  c #3C2405",
"t  c #34230A",
"y  c #39250B",
"u  c #3D290C",
"i  c #2B221A",
"p  c #2B2116",
"a  c #342413",
"s  c #3D2C15",
"d  c #3C2C1B",
"f  c #352918",
"g  c #3E301D",
"h  c #221D32",
"j  c #1F2121",
"k  c #242423",
"l  c #292A27",
"z  c #2C2D2A",
"x  c #2A2727",
"c  c #322B2D",
"v  c #362B27",
"b  c #3C3327",
"n  c #2E2B3A",
"m  c #282236",
"M  c #322C32",
"N  c #322E3D",
"B  c #353234",
"V  c #3B3336",
"C  c #34323C",
"Z  c #3D373A",
"A  c #3D3A3C",
"S  c #3F3B37",
"D  c #2D302D",
"F  c #452A05",
"G  c #4B2E05",
"H  c #402609",
"J  c #432D0B",
"K  c #4B2D0A",
"L  c #4E330B",
"P  c #563506",
"I  c #53350A",
"U  c #5B3B0B",
"Y  c #583809",
"T  c #412D14",
"R  c #412F18",
"E  c #453115",
"W  c #4A3415",
"Q  c #44321B",
"!  c #4A361B",
"~  c #4E391D",
"^  c #553A13",
"/  c #5B3D12",
"(  c #533C1C",
")  c #593F1A",
"_  c #433325",
"`  c #4A3621",
"'  c #4D3A21",
"]  c #4C3C2D",
"[  c #44372A",
"{  c #513C22",
"}  c #503F29",
"|  c #433C3A",
" . c #5A411D",
".. c #66420B",
"X. c #634519",
"o. c #694814",
"O. c #714E19",
"+. c #5E4524",
"@. c #55422A",
"#. c #584935",
"$. c #51493E",
"%. c #644A23",
"&. c #6D522B",
"*. c #64543E",
"=. c #353341",
"-. c #393542",
";. c #3C3B45",
":. c #3F3D49",
">. c #3D2F46",
",. c #423E4B",
"<. c #443F46",
"1. c #3F4047",
"2. c #434244",
"3. c #4B4B46",
"4. c #44424B",
"5. c #4B454B",
"6. c #4A494C",
"7. c #484846",
"8. c #544D4A",
"9. c #53524D",
"0. c #575040",
"q. c #4C4C52",
"w. c #494452",
"e. c #504E54",
"r. c #514D59",
"t. c #584E5E",
"y. c #535355",
"u. c #54545B",
"i. c #555A5A",
"p. c #5B5A5C",
"a. c #595956",
"s. c #4F5251",
"d. c #685945",
"f. c #665F53",
"g. c #5D615D",
"h. c #666159",
"j. c #6E6041",
"k. c #5B5560",
"l. c #5B5D62",
"z. c #615D65",
"x. c #5D6363",
"c. c #5E6A65",
"v. c #626364",
"b. c #626A66",
"n. c #646469",
"m. c #68666C",
"M. c #646C6A",
"N. c #6B6C6B",
"B. c #6B6A63",
"V. c #66726C",
"C. c #6B746E",
"Z. c #67796F",
"A. c #77746A",
"S. c #6D6C73",
"D. c #716E75",
"F. c #6D7472",
"G. c #6D7B73",
"H. c #737375",
"J. c #717B76",
"K. c #74757B",
"L. c #757D79",
"P. c #7A7B7B",
"I. c #7A7779",
"U. c #877954",
"Y. c #817F6E",
"T. c #6F8075",
"R. c #718177",
"E. c #75827A",
"W. c #7A847E",
"Q. c #978A5B",
"!. c #8B8256",
"~. c #92896A",
"^. c #848173",
"/. c #88867E",
"(. c #948C78",
"). c #9F9579",
"_. c #A69A6D",
"`. c #B0A47F",
"'. c #7E7D81",
"]. c #807F83",
"[. c #7D8581",
"{. c #7F8882",
"}. c #828384",
"|. c #838A85",
" X c #87858A",
".X c #868C89",
"XX c #8B8C8C",
"oX c #88878B",
"OX c #8C918E",
"+X c #85908A",
"@X c #95948D",
"#X c #8E9391",
"$X c #8F9893",
"%X c #939393",
"&X c #959996",
"*X c #979798",
"=X c #989799",
"-X c #9A9B9B",
";X c #999997",
":X c #8F8E90",
">X c #A39C8B",
",X c #9FA09F",
"<X c #B2A986",
"1X c #A0A09F",
"2X c #9E9EA0",
"3X c #A3A3A3",
"4X c #A7A7A8",
"5X c #ABABAB",
"6X c #A8A7A8",
"7X c #B1B1B1",
"8X c None",
/* pixels */
"8X8X8X8X8X8X8X8X8X8X8X8X8X8X].,.,.e.Y.7X5X5X-XP.h.}.5X5X5X5X%XI.t.8X8X8X8X8X8X8X8X8X8X8X8X8X8X8X8X8X",
"8X8X8X8X8X8X8X8X8X8X8X5X5X6X5X Xz.N.2X3X;X%X#X}.v.XX3X-X;X*X}.m.z.=X3X5X6X8X8X8X8X8X8X8X8X8X8X8X8X8X",
"8X8X8X8X8X8X8X8X8X}.3X3X%X:X@X:Xm.N.=X%X+XOXOX XN.%X-X=X;X=X Xv.F.:X%X%X3X5XH.p.8X8X8X8X8X8X8X8X8X8X",
"8X8X8X8X8X8X8X8XP.|.3XOX.X.XXXW.h.S.:X%X.XE.W.{.N.XX;X;X=X#X}.p.b.|.XX#X%X-X;Xv.e.8X8X8X8X8X8X8X8X8X",
"8X8X8X8X8X8X3X'.N.H.%X;XE.W.W.W.u.m.}..XE.R.T.E.N. X|.{.{.|.J.6.c.T.{.#X*X,XI.v.D.=X8X8X8X8X8X8X8X8X",
"8X8X8X8X8X6X6X5X-XS.H.;XR.R.G.J.q.u.C.C.Z.V.M.x.e.F.F.G.G.F.y.-.i.Z.[.+X%XI.i.:X6X7X5X8X8X8X8X8X8X8X",
"8X8X8X8X3X3X-X=X,X-XH.H.G.c.i.q.=.N w.u.y.w.4.=.N w.q.q.4.:.m h -.i.b.J.F.y.}.3X-X;X5X5X8X8X8X8X8X8X",
"8X8X8X%X+X*XXX|.|.%X&Xu.6.M M q = = = = O O O o o O = = = = o = , x A 4.4.].*X:X:X:X%X3X%X8X8X8X8X8X",
"8X8X8XP.J.|.|.E.R.G.M.;.x i a 5 .                               X 5 p v M x.L./.W..XXXW.P.8X8X8X8X8X",
"8X8XF.a.N.R.E.E.Z.b.=.b Q a 8 *                                   * 0 d Q M y.J.W.W.E.J.v.v.8X8X8X8X",
"8X8XoXy.y.g.Z.F.c.;.v ! E p 6 @                                   * 5 d Q d V y.C.C.b.a.y.H.8X8X8X8X",
"8X3X6X%Xv.2.i.c.4._ Q ` g 5 5 & .                                 # 2 a T R ` N y.a.y.y.P.6X4X8X8X8X",
"8X6X4X3X4XF.:.-.v ( Q Q s 5 4 +                                 . # % a s R ~ _ C 2.u.%X5X5X7X4X8X8X",
"8X5X-X#X*X3Xm.M ' ' Q Q s * * +                                   + % p u R ! ( D y.2X2X+X*X5X7X8X8X",
"8X3XXX#X|.XXS.x ' ' R d a 4 4 +                                   + % 0 a s ( ! b k.*X|.W.{.,X7X8X8X",
"8X%X|.[.[.[.y.d { ~ s s a * 5 ;                                   % 5 p a s ! ! Q A '.E.|.|.OXXX8X8X",
"8XH.[.E.W.P.5.s ' ~ s s s * i ; .                                 : 5 a y d ! ! ! S F.W.}.W.H.k.8X8X",
"8Xq.q.i.v.b.Z Q ' ~ d g g D , o                                   < l d s Q ! Q ! [ x.b.x.q.<.-.8X8X",
"8XI.u.w.1.2.B Q { ~ Q @.$.;                                       . ; | @.! ~ W ~ _ -.2.:.:.q.u.8X8X",
"8X4X=X}.x.:.M ! ( @.0.3.;   . X                                     . ; 9.#. .! ~ _ -.s.x.[.*X3X8X8X",
"8X4X%X*X*XH.Z ! @.h.3.# . X % + .                                 + X o > p.d. .' [ l.}.*X*X3X7X8X8X",
"8X*X.X.XXX[.A ] 9.B < # 2 * * @                                   * * + O > h.d.~ [ F.$X|.OX&X5X8X8X",
"8X%X.XE.W.{.1.3.k o O 3 s 5 * +                                 . + 4 2 % O k N.#._ K.+X[.|.#X4X8X8X",
"8XXXE.R.E.E.;.; . * y ~ E 5 % +                                   + % 6 s 5 O > h.8.'.[.[.R.|.3X8X8X",
"8XE.E.E.T.L.n o * ^ +. .s * % X                                 . + % 6 ! T 6 o , =.F.W.R.E.E.$X8X8X",
"8XE.W.R.E.G.B 4 W &.+.~ u * % X                                   + @ 5 E ! ) 5 o = K.[.T.R.W..X8X8X",
"8X{.L.L.L.J.A Q @.&.+.! u * @ X                                   + + 3 s ! %.T 5 ; n.L.J.R.W.L.8X8X",
"8Xb.M.N.b.c.V Q  .X.+.W t % + X                                   + + 2 t E +.Q ! f x.M.M.M.n.k.8X8X",
",.,.6.4.6.7.V R ( X. .L e @ + .                                   + @ 2 u E X.Q @.[ <.6.4.4.-.m 8X8X",
"8XD.D.H.I.H.<.R ~ X.^ J 3 @ + O .                                 . + 2 y T ) Q ( ] l.I.I.H.S.m.8X8X",
"8X-XOXOX#XXX8.T W ..I r 3 @ : ;                                   # + 2 e J ^ Q ~ ] }.-X*X%X=X4X8X8X",
"8X:X|.E.W.W.<.H J U L r 6 i ; .                                   & & % 7 u I T E _ [.|.{.{.#X3X8X8X",
"8X|.|.E.T.W.A y J Y F T | >                                       . > i 7 r I T J R '.W.E.E.{.,X8X8X",
"8XW.E.R.G.E.A e F P ^ 9.:   X X                                       i b r I u J d P.W.R.E.E.$X8X8X",
"8XL.G.J.G.L.Z 7 F  .h.>   . + +                                   X o o S ` L H H d C.L.G.G.R.#X8X8X",
"8XJ.J.J.J.C.V 7 @.B.>   @ % % X                                   + + . & a.( r H g b.G.J.F.G.V.8X8X",
"8Xw.q.e.y.y.c b 2.<   3 r 2 % X                                   % % 2 * > H.~ r a 4.e.q.,.-.=.8X8X",
"8Xk.z.p.p.a.N k . + r L J 3 % .                                   % 2 7 r : l A.T 0 2.p.p.l.w.,.8X8X",
"8X3X-X-X-X*XC   2 P ^ I F 3 @ .                                   @ 2 e L r q k B.| '.3X,X,X3X5X8X8X",
"8X|.{.W.W.}.;.% Y O./ Y K 3 + .                                   @ 2 e L ^ L q k 6.}.+X[.}. X2X8X8X",
"8XV.V.G.V.V.<.H o.O.U Y G 1 .                                     . 1 7 G ) o.K * > F.K.M.M.V.[.8X8X",
"8XF.c.V.V.m.| J o.o.U L 9 $   o                                   . . 8 K / o.U t q S.F.c.c.c.'.8X8X",
"8XM.c.c.M.F.Z J ....P 9 $ O o                                     . o $ H P ..X.W a M.F.x.c.x.K.8X8X",
"8Xl.x.l.x.M.| J Y P w $ = #                                         o o 1 K P / ^ Q x.S.c.x.l.l.8X8X",
"8X,.4.4.,.4.M H K w O ; ;                                             = # q G P L d 1.1.:.-.=.=.8X8X",
"8X;.:.:.<.;.x w q O : ; . o   .   . .                       .     . . O , < w K F i =.>.:.:.=.h 8X8X",
"8XoX:XoX XoX-.- O k D k k j j : O & ; < < O O . . O O < ; ; : & & i l D D z # q r a m. XoXoX'. X8X8X",
"8X:XoX X]. XN o i 3.s.3.7.3.7.D i b B D l l k j & i l l D B A v l 3.9.9.a.p.x # 8 w '.oX'. X:X-X8X8X",
"8XK.S.S.D.S.=.k j.|..X^.^.^.Y.d.} N.N.B.v.v.x.0.b a.g.f.h.h.B.h.#.^./.@XOX#X[.j o q l.m.n.n.n.'.8X8X",
"8Xk.r.r.u.r.;.0.~.;X>X>X@X>X).j.j.Q._.(.~.~.~.U.@.A.^.^..X(.(.!.*.Q._.`.<X`.<X!., , w.1.:.:.:.w.8X8X"
};
