/* XPM */
static char *result[] = {
/* columns rows colors chars-per-pixel */
"50 50 6 1 ",
"  c #21110D",
". c #181C32",
"X c #503625",
"o c #755338",
"O c #9D7658",
"+ c None",
/* pixels */
"+++++++++++++++++                    +++++++++++++",
"+++++++++++++++++                    +++++++++++++",
"+++++++++++++++++                    +++++++++++++",
"+++++++++++++++++                    +++++++++++++",
"++++++++++++     ooooOOOOOOOOOOOOoooo     ++++++++",
"++++++++++++     ooooOOOOOOOOOOOOoooo     ++++++++",
"++++++++++++     ooooOOOOOOOOOOOOoooo     ++++++++",
"++++++++++++     ooooOOOOOOOOOOOOoooo     ++++++++",
"++++++++    oooooOOOOooooooooooooOOOOooooo    ++++",
"++++++++    oooooOOOOooooooooooooOOOOooooo    ++++",
"++++++++    oooooOOOOooooooooooooOOOOooooo    ++++",
"++++++++    oooooOOOOooooooooooooOOOOooooo    ++++",
"++++++++    oooooOOOOooooooooooooOOOOooooo    ++++",
"++++++++    XXXXXooooOOOOOOOOOOOOooooXXXXX    ++++",
"++++++++    XXXXXooooOOOOOOOOOOOOooooXXXXX    ++++",
"++++++++    XXXXXooooOOOOOOOOOOOOooooXXXXX    ++++",
"++++++++    XXXXXooooOOOOOOOOOOOOooooXXXXX    ++++",
"++++++++++++     XXXXooooooooooooXXXX     ++++++++",
"++++++++++++     XXXXooooooooooooXXXX     ++++++++",
"++++++++++++     XXXXooooooooooooXXXX     ++++++++",
"++++++++++++     XXXXooooooooooooXXXX     ++++++++",
"++++++++++++     XXXXooooXXXXooooXXXX     ++++++++",
"++++++++++++     XXXXooooXXXXooooXXXX     ++++++++",
"++++++++++++     XXXXooooXXXXooooXXXX     ++++++++",
"++++++++++++     XXXXooooXXXXooooXXXX     ++++++++",
"++++++++++++     XXXXooooooooXXXXXXXX     ++++++++",
"++++++++++++     XXXXooooooooXXXXXXXX     ++++++++",
"++++++++++++     XXXXooooooooXXXXXXXX     ++++++++",
"++++++++++++     XXXXooooooooXXXXXXXX     ++++++++",
"++++++++++++     XXXXooooooooXXXXXXXX     ++++++++",
"++++++++++++     XXXXooooooooXXXXXXXX     ++++++++",
"++++++++++++     XXXXooooooooXXXXXXXX     ++++++++",
"++++++++++++     XXXXooooooooXXXXXXXX     ++++++++",
"++++........     XXXXXXXXooooooooXXXX     ........",
"++++........     XXXXXXXXooooooooXXXX     ........",
"++++........     XXXXXXXXooooooooXXXX     ........",
"++++........     XXXXXXXXooooooooXXXX     ........",
"++++........     XXXXXXXXooooooooXXXX     ........",
".................        XXXX        .........++++",
".................        XXXX        .........++++",
".................        XXXX        .........++++",
".................        XXXX        .........++++",
"++++......................................++++++++",
"++++......................................++++++++",
"++++......................................++++++++",
"++++......................................++++++++",
"++++++++++++.........++++++++++++....+++++++++++++",
"++++++++++++.........++++++++++++....+++++++++++++",
"++++++++++++.........++++++++++++....+++++++++++++",
"++++++++++++.........++++++++++++....+++++++++++++"
};
